<mxfile host="app.diagrams.net" modified="2024-05-13T17:20:12.559Z" agent="Mozilla/5.0 (Windows NT 10.0; Win64; x64) AppleWebKit/537.36 (KHTML, like Gecko) Chrome/124.0.0.0 Safari/537.36" etag="jrpEeAohrecPFxfujUUa" version="24.3.1" type="device">
  <diagram name="PÃ¡gina-1" id="SfYil0zXchR6mfdDQTm8">
    <mxGraphModel dx="1781" dy="600" grid="1" gridSize="10" guides="1" tooltips="1" connect="1" arrows="1" fold="1" page="1" pageScale="1" pageWidth="827" pageHeight="1169" math="0" shadow="0">
      <root>
        <mxCell id="0" />
        <mxCell id="1" parent="0" />
        <mxCell id="XM2iZvEffHL1gF4DJcAG-1" value="" style="shape=image;imageAspect=0;aspect=fixed;verticalLabelPosition=bottom;verticalAlign=top;image=data:image/png,iVBORw0KGgoAAAANSUhEUgAAA0QAAAJQCAIAAAAhSzNAAAAAAXNSR0IArs4c6QAAAARnQU1BAACxjwv8YQUAAAAJcEhZcwAAEnQAABJ0Ad5mH3gAAP+lSURBVHhe7P0N3FVT/v+Pu+3OMMpEVCoUMjXJTamZhETSjFFKiqKkUJRxM6NiRBlEoagkMRRJ5YtK4q8b3cslufhGyK/JV5K7fFB8/i/nvc6a1d57rfXe+5xznXOd6/18XI/rsdbaa7/3a7/Xe6393udmnz22CoIgCIIgCOWWX5O52XNfXbpyLedvyYo3Ay22v8XL1wRabH9ik/MnNjl/YpPzJzY5f2KT8yc2OX9ik/MnNjl/AZsLXl/29Ox5/03msPl/BUEQBEEQhHLC//zP/0gyJwiCIAiCUF6RZE4QBEEQBKEcI8mcIAiCIAhCOUaSOUEQBEEQhHKMJHOCIAiCIAjlGEnmBEEQBEEQyjGSzAmCIAiCIJRjJJkTBEEQBEEox0gyJwiCIAiCUI6RZE4QBEEQBKEcI8mcIAiCIAhCOUaSOUEQBEEQhHJMMJlbvHyN2iIIgiAIgiAUPPLKnCAIgiAIQjlGkjlBEARBEIRyjCRzgiAIgiAI5ZjsJHP/P0EQBEEQBCEbqOyKTdaSOVWK4v/7//4/VfLx//7f/1MlH//3//5fVfLBtyk6OYhODqKTg+jkIDo5iE4OopNDIeiUZC6CYh1sDqKTg+jkIDo5iE4OopOD6ORQrDolmYugWAebg+jkIDo5iE4OopOD6OQgOjkUq05J5iIo1sHmIDo5iE4OopOD6OQgOjmITg7FqlOSuQiKdbA5iE4OopOD6OQgOjmITg6ik0Ox6pRkLoJiHWwOopOD6OQgOjmITg6ik4Po5FCsOiWZi6BYB5uD6OQgOjmITg6ik4Po5CA6ORSrTknmIijWweYgOjmITg6ik4Po5CA6OYhODsWqU5K5CIp1sDmITg6ik4Po5CA6OYhODqKTQ7HqzEIyt2jZarUlDjgwzsrG2rVrVclHSUmJKvlYtWqVKvng2xSdHEQnB9HJQXRyEJ0cRCcH0cmhEHRmmsx9/vnn8socB9HJQXRyEJ0cRCcH0clBdHIQnRxypzNxMocsDkgyJzr9iE4OopOD6OQgOjmITg6ik0Mh6JRkLoJiHWwOopOD6OQgOjmITg6ik4Po5FCsOiWZi6BYB5uD6OQgOjmITg6ik4Po5CA6ORSrTknmIijWweYgOjmITg6ik4Po5CA6OYhODsWqU5K5CIp1sDmITg6ik4Po5CA6OYhODqKTQ7HqlGQugmIdbA6ik4Po5CA6OYhODqKTg+jkUKw6JZmLoFgHm4Po5CA6OYhODqKTg+jkIDo5FKtOSeYiKNbB5iA6OYhODqKTg+jkIDo5iE4OxapTkrkIinWwOYhODqKTg+jkIDo5iE4OopNDseqUZC6CYh1sDqKTg+jkIDo5iE4OopOD6ORQrDqLLZlbtWrV4sWLIRHlLVu2vPbaa59++inKO3fufOaZZ5YtW4YCqmjEpq1bt6KMztgFO6IMNmzYMGvWrG+//RZl/Ee3devW0SYUUKVN27dvR3nJkiW0yXFcHBRs3rwZVfdxaRMG23tcdEYZ5+49Lp0vupFxlG3HRRmHwLl7jwuw+7Rp0+i42Nd2XDrf0tJSlB3HxSaUcTgad/dx6Xxx7t7j0iZY8x6XNr3++uuouo+LMvadMWOG97h0vvPnz0cZOI5L5/vWW2+hjKM7jkvGce6O46JFny/86T0une/GjRtRdhyXNsF4eB6FjwvQH7HkPS6db+Q8ChyXztecR7bjYhP2xTyCHWxyHJeMB+aReVxAx6XzRTfvcVGGneeff95xXL0JuwfmUeRx6XzXrl2Lsvu4dL7heRQ+Lp2vnkeO49L5Yhaj3X1c2mTOo8BxcQp0XJSxL+aR97hoQbttHpmuoPM155HtuNgEOzh3VN3HJePheRQ+Lp0vzSP3cWnTc8895z0uQH9zHpnHxYjo49L5Lly4kDY5jovdYT9yHqEdkCR9vnoeOY5L5wt/eo9LxlH2Hhdl2ME88h4XoGCbR+Zx6XwhEuXAcT/66CPzuHS+NI/cx6XzDc8j7K5dYfqZ5pE+rgOKTw6ks6iSOfhrjxS33norqs2aNUO5SpUqKGOkadNDDz2E6u9+9zuUjznmGJRHjRpFm+bOnYuhovLZZ5+NTf3796cqBgDDRuXevXtj03nnnUdVuupT2XHcu+66C1XOcTF59HERdggyKoePi0lO5ZtuugmbTjzxRJQjz7dGjRoo88/XcVykjAhEKnuPS+fbsGFDlCOP27ZtW2y69tprqYolm3lcjLv3uHS+1113HW2CuxC76I9y4Ljm+V544YXY1KVLF6omON+Anx3HhWXYp3LHjh2xiXNcnHvkcevXr4/yfffdR5tw3A8//NB7XDrfTp06UZV5vjgKqjgiyuHj6vNt2bIlNv3tb3+jTeHjxvXziBEjUI08Lvqgqo+LecQ87ksvvUTlwHFxFnqK0fnWrVsXZfdxUY57vhgXbMIYoRx5XDrfgw8+GOUHHniANjmOi0sg87iIpcjjInqxFyIZ5Vq1aqE8fPhw2pTsfDG/MMuo7Djf8HE552set127dtiE1YOqtuOCTZs2/Z//83+o7D4urkfe42KlwiacNVXN42JdxSassVTF+TKPi2rkcXHFwfpPZTpu5Pk6jnvzzTdjk/e4uJZhHuG6Rpscx8UlEkk8lb3ne9RRR6HsPi7KkccNXKrMSzPTz4F5NGXKFFQPPPBAlAPHxc0G87iYR97j4hAo33nnnbSJjuvAzG3cZC2ZW7x8jdoSBxwYWm3AU6rkA4mwKv2//4e7DazLWBdwe4Tq8uXLUUaEoYx5+9hjj2GNQwFVNGITOqCMzihjR+yOKvKJf//735gPKEMGbUJZGydt6IAyMDdFHhcHBe+88w6q7uOiCrMlJSXmcfUm87i4A0P5vffe8x6XzhcFbHIfF2UcAufuOC5aUKbznTx5sve4dL6vvPIKynRcbIo8LsqwScdyHxdVmMK4e49L54sFF2V9XNoUOC7KAPfKqLqPiyrMTp061XtcOl+sUI7jmq4gg+7jUjecOx0XVdtxsRW740De49L54iYSZfdxUcbhMI9QpePSpvBxUUX/8DwKH5fOF4smyu7j0vnSPIo8rukKmDXnke24dL56HuG6hWrkcck4WXAfF2UcguaR+7h0vphHdFzaFHlckhSYR5HHRRk2yUvu46KK4yKWIo9rDgGdr55HjuPS+dI8wqUOZdtxaVNgHmFT+Lh0vphH3uPS+dLaSJtsx0UZdsx5ZDsunS+seY9L57ty5UqUA8dFf1T1cVGGTZpH7uOiiv6IpdWrV6PsOC5tCsyjyOPS+WJ2oOo+Lqo4LnrSJsdx6Xz1PHIcl86XLLiPS5vC88gcAjounS/mkfe4dL60l/u4KMOmOY9sx0UVjZx5tGTJEpQRIdikj+sANlXJB514kbwyh9sRpL04JWqMBDNZlXyQTQ7JXkF0Izo5iE4OopOD6OQgOjmITg6ik5OxxNVZJMkckuI9Ui/GUmMkEpQcRCcH0clBdHIQnRxEJwfRyaEQdHIylrg6iySZ27JlS7NmzZDtUmMkEpQcRCcH0clBdHIQnRxEJwfRyaEQdHIylrg6iySZ4yBByUF0chCdHEQnB9HJQXRyEJ0cilVnkSRz0HTrrbd+m/rysA0ZbA6ik4Po5CA6OYhODqKTg+jkUAg6ORlLXJ1FkswtXrxYPjPnQHRyEJ0cRCcH0clBdHIQnRzKl05OxhJXZ5Ekc6tWrYJrli1bRo2RSFByEJ0cRCcH0clBdHIQnRxEJ4dC0MnJWOLqLJJkDsydO9f9SGUJSg6ik4Po5CA6OYhODqKTg+jkUCA6vRlLXJ3Fk8xBFhVsSFByEJ0cRCcH0clBdHIQnRxEJ4cC0enNWOLqLJJkrrS0dI/UjzJRYyQSlBxEJwfRyUF0chCdHEQnB9HJoRB0cjKWuDqLJJmThwa7EZ0cRCcH0clBdHIQnRxEJ4fypVMeGhwBnfDWrVvPPvvsTz/9lBojkaDkIDo5iE4OopOD6OQgOjmITg6FoJOTscTVWSTJHAcJSg6ik4Po5CA6OYhODqKTg+jkUKw6s5DMLV6+Rm2JAw4MBTbWr1+vSj5KS0vx//3337/44ovffvttaoxk7dq1quSDbHKIq5OD6OQgOjmITg6ik4Po5CA6OYhOTsYSV2eRvDIHB8ln5hyITg6ik4Po5CA6OYhODqKTQ/nSyclY4uoskmRu3bp1cM2qVauoMRIJSg6ik4Po5CA6OYhODqKTg+jkUAg6ORlLXJ1FksyB0tJSKtiQoOQgOjmITg6ik4Po5CA6OYhODgWi05uxxNUpyVwEBTLYXkQnB9HJQXRyEJ0cRCcH0cmhiHVKMheETljeZnUjOjmITg6ik4Po5CA6OYhODuVLp7zNGgGd8Guvveb9OKEEJQfRyUF0chCdHEQnB9HJQXRyKASdnIwlrs4iSea+/fbb/v37b926lRojkaDkIDo5iE4OopOD6OQgOjmITg6FoJOTscTVWSTJHAcJSg6ik4Po5CA6OYhODqKTg+jkUKw6iySZk5/zciM6OYhODqKTg+jkIDo5iE4O5Uun/JxXBHTC8tBgN6KTg+jkIDo5iE4OopOD6ORQvnTKQ4MjoBPesGEDXLNu3TpqjESCkoPo5CA6OYhODqKTg+jkIDo5FIJOTsYSV2eRJHMAsqhgQ4KSg+jkIDo5iE4OopOD6OQgOjkUiE5vxhJXZ/Ekc3Pnzt25cyeVI5Gg5CA6OYhODqKTg+jkIDo5iE4OBaLTm7HE1ZmFZG7x8jVqSxxwYGi1UVpaqko+NmzYgP/z58/fY489XnrpJWqMpKSkRJV8kE0OcXVyEJ0cRCcH0clBdHIQnRxEJwfRyclY4uosklfmFi9e7P04odxhcBCdHEQnB9HJQXRyEJ0cRCeHQtDJyVji6iySZA6aRo0a9e2331JjJBKUHEQnB9HJQXRyEJ0cRCcH0cmhEHRyMpa4OoskmeMgQclBdHIQnRxEJwfRyUF0chCdHIpVZ5Ekc59++ukxxxyzYcMGaoxEBpuD6OQgOjmITg6ik4Po5CA6ORSCTk7GEldnkSRz8tBgN6KTg+jkIDo5iE4OopOD6ORQvnTKQ4MjoBP+6KOPDjzwwNLSUmqMRIKSg+jkIDo5iE4OopOD6OQgOjkUgk5OxhJXZ5EkcxwkKDmITg6ik4Po5CA6OYhODqKTQ7HqLJJkbufOnVOmTIEyaoxEBpuD6OQgOjmITg6ik4Po5CA6ORSCTk7GEldnkSRzy5Yt22OPPRYvXkyNkUhQchCdHEQnB9HJQXRyEJ0cRCeHQtDJyVji6pRkLoJCGGwOopOD6OQgOjmITg6ik4Po5FCsOiWZi4BOWN5mdSM6OYhODqKTg+jkIDo5iE4O5UunvM0aQbEONgfRyUF0chCdHEQnB9HJQXRyEJ0cSGeRJHPyaBI3opOD6OQgOjmITg6ik4Po5FC+dBboo0kWLVuttsQBB8ZZ2Vi7dq0q+SgpKcH/OXPm7LHHHk888QQ1RrJq1SpV8kE2OcTVyUF0chCdHEQnB9HJQXRyEJ0cRCcnY4mrs0hemZOf83IjOjmITg6ik4Po5CA6OYhODuVLp/ycVwTFOtgcRCcH0clBdHIQnRxEJwfRyUF0ciCdRZLMQdOoUaO+/fZbaoxEBpuD6OQgOjmITg6ik4Po5CA6ORSCTk7GEldnkSRzixcv3kN+aN+O6OQgOjmITg6ik4Po5CA6OZQvnZyMJa7OIknmVq1aBdcsW7aMGiORoOQgOjmITg6ik4Po5CA6OYhODoWgk5OxxNVZJMkcmDt37s6dO6kciQQlB9HJQXRyEJ0cRCcH0clBdHIoEJ3ejCWuzuJJ5iCLCjYkKDmITg6ik4Po5CA6OYhODqKTQ4Ho9GYscXUWSTK3YcOGPfbYY926ddQYiQQlB9HJQXRyEJ0cRCcH0clBdHIoBJ2cjCWuziJJ5tauXev9OKEEJQfRyUF0chCdHEQnB9HJQXRyKASdnIwlrs4iSea2bt169tlnf/rpp9QYiQQlB9HJQXRyEJ0cRCcH0clBdHIoBJ2cjCWuziJJ5jhIUHIQnRxEJwfRyUF0chCdHEQnh2LVWSTJ3Lffftu/f39ku9QYiQw2B9HJQXRyEJ0cRCcH0clBdHIoBJ2cjCWuziJJ5uQzc25EJwfRyUF0chCdHEQnB9HJoXzpLNDPzC1evkZtiQMODK02SktLVcnHhg0b8P/111+Ha+bPn0+NkZSUlKiSD7LJIa5ODqKTg+jkIDo5iE4OopOD6OQgOjkZS1ydRfLKHMD5UMGG3GFwEJ0cRCcH0clBdHIQnRxEJ4cC0enNWOLqlGQuggIZbC+ik4Po5CA6OYhODqKTg+jkUMQ6JZkLQie8bt26PfbYY9WqVdQYiQQlB9HJQXRyEJ0cRCcH0clBdHIoBJ2cjCWuziJJ5l577TXvxwklKDmITg6ik4Po5CA6OYhODqKTQyHo5GQscXUWSTInjyZxIzo5iE4OopOD6OQgOjmITg7lS6c8miSCYh1sDqKTg+jkIDo5iE4OopOD6OQgOjmQziJJ5jg/jiGDzUF0chCdHEQnB9HJQXRyEJ0cCkEnJ2OJq7NIkjl5aLAb0clBdHIQnRxEJwfRyUF0cihfOuWH9iOgEy4tLYVr4CBqjESCkoPo5CA6OYhODqKTg+jkIDo5FIJOTsYSV2eRJHMAsqhgQ4KSg+jkIDo5iE4OopOD6OQgOjkUiE5vxhJXZ/Ekc3Pnzt25cyeVI5Gg5CA6OYhODqKTg+jkIDo5iE4OBaLTm7HE1VkkydyqVav22GOPZcuWUWMkEpQcRCcH0clBdHIQnRxEJwfRyaEQdHIylrg6iySZW7x4sffjhBKUHEQnB9HJQXRyEJ0cRCcH0cmhEHRyMpa4OrOQzC1evkZtiQMODAU21q9fr0o+SktL8f/DDz8cMmTI+++/T42RrF27VpV8kE0OcXVyEJ0cRCcH0clBdHIQnRxEJwfRyclY4uosklfmOMgdBgfRyUF0chCdHEQnB9HJQXRyKFadRZLMbdmypVmzZh999BE1RiKDzUF0chCdHEQnB9HJQXRyEJ0cCkEnJ2OJq7NIkrm18tBgJ6KTg+jkIDo5iE4OopOD6ORQvnRyMpa4OoskmUOGe+CBB5aWllJjJBKUHEQnB9HJQXRyEJ0cRCcH0cmhEHRyMpa4OoskmeMgQclBdHIQnRxEJwfRyUF0chCdHIpVZ5Ekczt37pwyZQqUUWMkMtgcRCcH0clBdHIQnRxEJwfRyaEQdHIylrg6iySZW7Zs2R577LF48WJqjESCkoPo5CA6OYhODqKTg+jkIDo5FIJOTsYSV6ckcxEUwmBzEJ0cRCcH0clBdHIQnRxEJ4di1SnJXAR0wvI2qxvRyUF0chCdHEQnB9HJQXRyKF865W3WCIp1sDmITg6ik4Po5CA6OYhODqKTg+jkQDqLJJmTR5O4EZ0cRCeHgtWJm90dO3Z8+eWXn3322aZNm1555RUsCOvXr1+3bl1JScnatWvXrFmzatWqFStWLFu2bOnSpYsXL3799ddfe+21mTNnLliwYP78+XPnzn3xxRf/z//5P3PmzJk1a9azzz77zDPPTJ8+Hf9RRsujjz6KreiDnuiPvRYuXAgLsANrsAnLsI+jYBOOiOPi6NAAJR988AFUQRsUQifUkmwZdw6ik4Po5FAIOuXRJBHQCctDg92ITg6ik0Ninbt27frmm2+2bNny4YcfIsVB0vPqq6++8MILSJXGjh07ceLEBx98cPTo0Xfeeedtt902fPjwYcOG0X/NLbfcgpYRI0bcfvvtI0eOvOuuu9B/zJgx48aNe+qpp5BvIdNCmvXyyy9TjqUTrJUrV7799ttIqt5999333nvv/fff37BhA2Rs3Ljx448//uSTTz799FP46j//+Q/kQfbWrVu/+OIL/Mf6hk1oxCZ0QBmdsQt2xO4wAlMwCLPvvPPO6tWrcVLLly83M0UoQWL30ksvIRd85JFHHnjggbvvvhsn+Pe//33w4MGDBg268sorBwwY0K9fvz59+lx22WWXXnpp7xSXXHJJr169UEUjNgFUr7rqqhtuuOHWW2+FEZz1lClT4D34EJ7EoeFVqIJaSIK3ld+dSHxyEJ0cRCcH0ikPDY6AThiL7DHHHIO1lRojkaDkIDo5VFidP/zwA5IVTLQ1a9YggZg9e/bjjz+OBOWOO+5AknH55Zd37dq1U6dOp512WosWLRo3bnzkkUceeuihuAetXLnyXnvttd9++x100EG1a9dG+3HHHde8efNTTjkFixr4KcWPP/6I9eX777/fsWMHjkVlqlIHgD5ACSrP7NwdnCxOmSA/UAGnTB3IUUjpLrzwws6dO//5z39u375927Zt4UN4krwN38LD1apVg7fhc3ge/kd7kyZNMCIYF4wOxggjhfHCqCEnnjp1KsYRo4kxxchiScdxlUQDmUccRCcH0cnJWOLqzEIyt3j5GrUlDjgwtNooLS1VJR9whyr5KCkpUSUffJuik4Po5JAXne+///6KFSvmzZs3efLkhx9++O677x4+fPi111576aWXIl1ArtCyZUtkXfXq1atRowaSg3333Rf5ATKGRo0aHX/88a1atTrzzDORHyC9QJIxYMCA66677uabb77tttv+9a9/jR07FjanTJny1FNPzZw58/9YoBxFrQuCHXKU8hoD+Byeh/8xChgLjAjGBaODMcJI9e7dG6OGscMItm7dGqOJMcXIVq9eHaOMscaIH3744Rh9xAAioWPHjpdddtk111wzbNgwxAlsTps2DZGD+EEUqXhKIfOdg+jkIDo5kM4ieWUOmkaNGvXtt99SYyRyh8FBdHIocJ2YCJ988smbb745ffr0p59+evz48bfffjsuwz169DjrrLNOPvnkI4888qCDDtprr73233//OnXqNG7c+KSTTjrttNPOPfdc5HA9e/bs168fUrp//OMfd9xxx7333jthwoQnnnjCkZBlAuUoSrpghxylvJZjMNYYcYw7Rh8xgBQQ8YCoQGwgQhAn+sVXxA+iCLGEiEJcIbpOP/10RBriDVGH2EMEvvLKK4hGxGRgiZb5zkF0cihfOjkZS1ydRZLMLV68GMucfGbOhujkUC50fvHFF4h2hDoStbFjx+Iq27t3706dOrVq1eqYY4455JBDKlWqVLVq1Vq1atGLZ23btsWlt2vXrpdddhmux0OHDr3rrrtwif33v/89Z84cdenOK5SjAHWGQhTKR2WVzMUFsYSIeuihhxBdiDFEGuINUYfYO/XUU0844QREI2ISkYn4RJQiVhGx7du3R/QihhHJiGdE9fr16xHh6pwNZF3iIDo5FIJOTsYSV2eRJHOrVq2Ca5YtW0aNkUhQchCdHHKk85dfftmyZctbb7318ssvP/HEE/fcc89111130UUXtWvXrkmTJrgW7rPPPgcccEC9evWaNWuGLO0vf/lLz549r7rqqr///e8jR4584IEHHnvssRy9fpY7UinKryhHCFEoHxVqMscH8YkoRawiYhG3iF7EMCIZ8Yyorl+/PiIccY5oR8wj8hH/mAW33norZgTmBWYH5ghmivJLCFmXOIhODrnTyclY4uoskmQOzJ07d2f62/6RSFByEJ0cEuv8/vvvN2zYgOB/8skn77777kGDBnXt2vXUU0895phjqlevjul90EEHHXXUUSeddNIZZ5xx3nnn9erV65prrrnlllvuu+++KVOmzJo1S10Si4hUipJpJkffk8DaFOCH1LcowFdfffV1mm/SfJvmuzQ7duzQpqiAFoBN1JN2VIa+/hpmie3bt9NeBJVTBhQworQmgrwE7rrrLmRCkyZN+ve//13uEncmiHNE+7333ovIR/xjFmAuYEZgXmB2YI7AD/iPWYO5gxmEeYTZhDmFmbVgwQJ4W3nNiaxLHEQnhwQ6vRlLXJ3Fk8xBFhVsSFByEJ0c3Dph580338Q1acKECdddd13v3r1xHTr22GPpS5116tT5wx/+cNppp51//vl9+vRBhxEjRuDy/Pjjjz///PN0MStfIKXAdXTy5MkPPvjgPffcg9P5xz/+MWTIkAEDBlx66aUXXnjhX/7yl3POOef0009v1apV8+bNcQ2uX7/+IYccsv/++++9996UowCkO8iTkBht27btiy++2Lx586effkrPAfnggw/eeeeddevWwbFvpcBN7RtvvLF06dIlKRan0Q97mz9//po1a9CTHkpSWlqKSICdjz766JNPPsEIbtmyBcsXjoVDIEtDBvDjjz/+/PPPGMFffvkFesIv/2Bk0eGnn35CZ+yCZO7LL7/cunXrZ5999p///MdUC504Ij3ljgSvNaAWdHjvvfcgj4Rt2rQJqnDWMEWPo4Mr4BC4BYsbuQgakNAglurWrVujRo0qVarAgXAjnAmXwrFwL5yM6ILD4XY4H0OAgcBwYFDIiIkawvIGZgp9jRrBhhmEeYTZhLPGzKpduzZ9jRdewrxDIjh8+PCHH34Ye2FQcMpwVNu2bTErr7/++qlTp77++uuIBxpfG7J+chCdHLROb8YSV2eRJHMbNmzALMW6SY2RSFByEJ2RYLnHoo+l/9Zbb8VlANdLXE0Rck899RTSl0GDBv31r389+eSTkajtu+++1atXb9So0SmnnNKxY8eLLrro6quvvuWWW+6///5///vfdCkqQJCQTZkyZfz48Tid22+/fejQobhGXnXVVZdddhlOoXPnzjiXdu3a0dcef80CDCpVqoRrJ8796KOPPuGEE0499VR0Rhpx8cUXI4fAuY8ePXrixInwFa7Br7766sqVK5HHIPXZvn073ZvCCPyGJIm87aBsxh0p1J577hn+8FYe45NcrSoGcCDcCGfCpXAs3AsnI6uGw+F2OB9DcPnll2M4MCiwoMY7Bar0xn2tWrWOOOKI4447DsOHIcZAozMGHUOPAEAYIBgQEggMhAeCBKFS4C8KYq5hxuH0Mft69uyJ08F8xKzEKd955534jzk7bNgwnGDLli0PO+ww+KFBgwZI/vr27XvHHXfg5gR3BUisycmyfnIQnRxIJydjiauzSJI53OzCNfIFCBuikwNsYvnGIo6lHAs6lnXc62OJx0J/6KGHYtHv3r07LgCINDBmzBj8P/3003HNwwUPd/m4SEyaNKkAL3LTpk17+OGH6ZPpuIb16tXr/PPPP+uss3B5w/UbWelvfvMb5FKHHHJIw4YNkav96U9/6tChQ7du3fr06TN48GBcEXEJhwVcIGfPno2MFieuTKcSAuW+EPwxgpFq1apx3ogsm/hEGGDQwxbyGJ9wkcPVAWw6YUENWwpU0XPbtm24V1m/fv2KFSteeeUVDDEGGsONQcfQIwAQBggGzAUEBsIDQYJQQcAgbBA8CCEEUvv27RFUCC0EGH3Jhp5doo5USOCkIN50Ju4ivv3223fffXf+/PmQfdNNN11wwQUnnnjiwQcfXLly5aOOOqpt27b9+/f/17/+9fTTT8NLjsEtm/i0Ies8h0LQyclY4uoskmRu69atZ599Nm5PqTESCUoOFUQndseijKUZCzSW6Xbt2mHJxsJds2ZNLOJYyrGgY1nH4o4lHgu9+aJR48aNK1Wq9M9//lNdHPLHc88999hjj40dO3bEiBHIJvv164d0k57Z27x5c/p00d57733AAQfUr18f54U50rNnz+uuuw5nPWXKFFhYtmzZBx988NVXX8Xyp5kTmBfFAHybMHLggQdu375d1e1kOO6RhG2+//77VapUQYSoepo8ziO4yOHqADadsKCGLQWqmehE2CB4EEIwhXBCUCG0EGBnnHEGgo2+yoDw+93vfodQREAiJUJwIkQRqAhXBC1CFwGMMCY9ZcOFF16ILC3lTpc/f/755x9//PHLL798++23X3jhhQcffPBvf/vbX//612bNmtWoUWO//fY7+uijMaGuvvrq0aNH4xZuzZo1SIvLJj5tyDrPoRB0cjKWuDqLJJnjIEHJoch0YnmdNWsWllosuFh2zzrrLCzB1apVw3KMRRlLMxZoLNNYrLFkY+HWn5py0KVLF+yOS4K6OOSGadOmTZgwwXw5rXPnzvRyGj3cS7+cduyxx7Zp0+b888+/4oorhg8fjtOZPn36woULS0pK3nzzTc57lyDWuOMqqFRmL5lDGo3FRNXtlE18rl69GonI3LlzVT1NHufRr6lHgSVzNkybCL///Oc/CEUEJMISwYkQRaAiXBG0jRo1ohf5Uif3XxDq5ot8mAhZfJHv5JNPbtiwIR0I86hly5aY0ddeey2WCNzdLV269JNPPnEsAr/88gtOChdjTK7Zs2ePGTPmmmuuQZL6+9//HjEDMD07duwIg0hV58yZg3P/+uuv1c4G5WL9BKKTQyHoLJJk7ttvv+3fvz8mGDVGIoPNoZzqxHKJRRNLJxZQLKPnnXdekyZNaG3FIoulFgsull0svliCESdYjh1PN3BA14DatWvjkqAuDol48sknIXXYsGEDBgxAXnjuuef+6U9/opfTfve735lfC9Dgqvboo48+//zzL7300oYNG7766iulyU6Oxh1i1GlkL5k77LDD9EeUHJRNfL788stIMqZOnarqafI4j36NgHKYzLnROk1hKCPUr7vuuosvvvjss88+4YQT6tevT9+V0S/ynXrqqZgymDiYPphEmEqYUGp/H4i044477sorr8SBkLche0MOh0wO6wayOuR2yPCwKUGet2vXri+++GLlypXPPvvsPffcc9VVV0H/Mcccs99++9HdI6zh7nHcuHEvvvgiZjHzC84J/OmlQMbdS7Hq5GQscXUWSTInn5lzUzQ6sfytX78eS+Gdd96JZRGL44knnnjQQQdhuTz22GM7dOiABRTLKBZTLKmYKsyfG7cB5YsWLZo0aRKO9ec///noo49GmCEvxEUFlwR1cbAzbdq0Bx544JZbboGq7t27Y2WH2nr16lWpUuW3v/0tBLdr165Pnz64Gj344IPINV955RWkpMhpkGviQMpKClSVpgIYd1ObKSwA3yaMwC0ff/yxqtuJpVOVfIRtYjiQrN9www2qniaP8wgucrg6gE0nLKhhS4Fq2fjThtZpCos8TdjEpMDUwATBNKEX+TBxMH0wiTCVMKEwrRBFSPUw0TDdMOkw9TABA6/qVa5c+Ygjjli+fLkyHQUytmzleZD9ww8/4ExxRCjBwtWvX78zzjjjyCOPhJKDDz4YppCV3nTTTRMmTJg/f/7777//4+4/PZzAn14KZNy9FKtO+cxcBHTC69atg2tWrVpFjZFIUHIoEJ1YzrCoYWnDAodlDosdlrxDDjkEy1/Dhg2xfGNBxLKIxRFLJPZCUAZWwLgg7UOaOGvWLJi99NJLW7VqhRwRoIAqGrEJHRBmBJTQtQFLOW61//nPfw4cOLBHjx5IKJEHNGjQAPnl/vvvf9RRR51++um9evXCdWXy5Mkvv/wyfQhPHdUg4E8cguwTqKoNBTDupjZTWAC+TRiBozY4f3aaKJv4RL6OQe/YsaOqp8njPIKLHK4OYNMJC2rYUqBaNv60oXWawiJPk2OTvsQwZcoUTDRMN0w6TL1GjRphGmIyYkrC8r333ov/4JtvvkGapfaMgzvPA6qfExhBhgcB8AAuhY899tjtt9/eu3fvU089lb5xVbt27T/+8Y89e/ZEwnrfffctXLjwww8/dLwoSOQxPkGCcfdSrDo5GUtcnUWSzIHS0lIq2JCg5FDGOrE8YZHCUoX1F8sWlkUsYVgWsZzhzvW000677LLLsMzR46BwFsjYEH+Rz1r8+OOPFyxYMH78eCyvuAzrj8WozbsDSeGX3PAfZbSgHVsjZWMJ/vrrr8nyDTfcgP/VqlVDItK2bduLL754+PDhEydOnDt3LuYqvQ2a2J+wrC5uKVBVGwpg3E1tprAAfJsw0rhxY+TKqm4nsT8dhG0iI8ddRP369VU9TR7nEVzkcHUAm05YUMOWAtWy8acNrdMUFnmaGerEZKTLJ5IkJF7du3dHtvfggw8+88wzb7zxBowjEcRahOWFnurnfpprJC+88ALsR4pngqN///33WGF++eUXnAWWESxE0ImUDqtivXr1vMbzGJ8gwbh7KWKd3owlrs4sJHOLlq1WW+KAA+OsbKxdu1aVfJSUlFBh3rx5VLCBLFiVfGibXhLo9FKhdGJ5Ovzww9u0aYNMCMvWI488Mn/+/A0bNmA5Q5x99913+K8ixgBRt2TJEtyC/+Mf/0D+94c//KFq1apIAZH8XXHFFffcc8/zzz+PqZJaWvdAmfOSm/mGLO6YsaZjfcfCiiUeN/H/+c9/li1bNnPmzIceegg6e/Togd3pXlydiYXE/oRldXFLYR4o7+NuanN4gG8TRpo0aYKRUnU7if3pIGwTF07EIYJqzZo1qilFHucRXORwdQCbTlhQw5YC1bLxpw2t0xQWeZpZ0fnee+/hvvHxxx8fOXLkVVddhTu3k08+uVatWnvvvTdGHAnTJZdcMmLEiIcffvjZZ5/FCvPpp58iC8TKQAsC1iLHxzYg+7zzzsP/unXrYnHo1q3b9ddff//992N5Wb16Nf/CHABpJWwSZ511Fu55zj333GuuuWbs2LHw1TvvvKPOLUXBrvMBRCfwZixxdRbJK3PyNqubgtKJxOi1117Dijlw4MC//e1vtE6ByB/hQUb15ptvTp8+HYssllrcVVMqhgKtvNiEDpFvXMImLa+2l9ywUGKNRsqIe2Is019++eXmzZsRRcgqkFbCOLI9JIhHHnnkPvvsg9RNv/GBfJH5xkdif0I2XdsIVNWGAhh3U5spLADfJoyceOKJ7vlLJPang4DNL774Yr/99kMBw42UjhqJPM4juMjh6gA2nbCghi0FqmXgTwdapyks8jRzqhPTP/yhDiR5VapUadiwIT1JGPkf1oQ5c+asWLHi448/RpBgL/Drb8B99x19Km7IkCEQj61YZJ588kncKFLKePzxx2PJqlatGhaidu3aYVUZPnw43bjaPnRhApszZsyoXLnytGnTsPJce+21UHjqqadiXaI0FDaxlmJFRTesrmo3JwUy7l6KVae8zRoBnTAyU7hGvgBhI486N2zYMHXqVCyFSINwwf7tb39LX+zq0KHDZZddhsQIixTWoMMPPxwjiKhAIoUF64orrkAWhfypatWqf/jDH7p06fKPf/xjypQpuF1GyCnTPmAQyyvOXa+5tP5iIcaS99Zbb+HeCNpGjRrVr18/emoJlm8s4ljK3R9JLgN/Qry6uKVAVW0ogHE3tZnCAvBtwsgpp5zyxhtvqLqdrMcnCNicOXMmghOFW2+9NfAdiDzOI7jI4eoANp2woIYtBapl4E8HWqcpLPI086JTf93qjjvuwK0gViGsYL/73e9+85vfHHfccQiSAQMG3HXXXVhD0AcXZqwwWFtwW4jcDvsGPpOHpI2eS4w0DskcUjokYVhzkOQh1UPCh7QPyR9SQCSCSAeRFNK9IhyCXM32jSvkcFhFsZZCT9OmTbG6Yo2FTqy3WHVnz54d+VHUAhl3L8Wqk5OxxNVZJMkc5ok8msRBmenctGnT3Llz7777biwlWJ6wTmENwnX6mGOOGTRoEBa+8BME0AFLFSIbVK9enR7RNH78+AULFnC+3hiA3hCht0exsGJ5xZ00llosuDj6lVdeCfu///3vsRxjUcaShwUayzQ9LGDx4sXYVxlyUgb+hDeUg1KgqjYUwLib2kxhAfg2YaRNmzacxSjD+IwkYPOaa65Bfo8C4qF58+bUSORxvsNFDlcHsOmEBTVsKVAtA3860DpNYZGnWSA6ifCDkHB3emAKpFOdOnXCWoc70scff/zll19+77330B/LEWV4uHxG/ubv6tWrZ82adf/9919//fXdunVrlf7BQAKzg/8sJKyxWOugAatu69atscBiHcZqjDUZKzPWZ6zSBeVPB8Wqk5OxxNVZJMkcBwlKDrF0YvRxb/Hggw9efvnlyNiwltWsWROLTufOna+++mosKNOnT1cLjB30x1KlFi325Yo+VKfzNiyXWDSxdGIBxTKKhQxLKhZWSMJ9KpZaLLhYdrH4Oh7jWVDjDlcoB6UwPZN3naY2x5DxbcJIu3btkL6rup3E/nQQsInLnn6NEHcXpg/zON/hIoerA9h0woIathSoloE/HWidprDI08xc5/bt25EtmR96S6AzQMDmtm3bEMP6EeXnnnsu3TcedNBBWIL+8pe/DBky5L777sOquHTpUiyeWMR+TH3pITLDA3AFUadOnQszeEo5jojVGJKwMmO9xSqNVbFly5Z9+/Z94IEHsIZDjDpkiJyOu5cCiU8vhaCzSJI5ZLjeH8eQwebgsIkECBe5SZMmYVFo27YtrQhYpJA29evX74477njiiSfU4hEHLFJYqqZNm9alSxd1pN3BMoeMDUseFj6Ufw25JUuwPGFZxOKIJRIasFxi0cTSiQUU8rCY6h/YKafjjhVcOSgFqmpDAeg0tZnCAvBtwkiHDh1eeuklVbeT2J8OTJulpaUIJFX53/+94IILphqPDs7jfIeLHK4OYNMJC2rYUqCaa3+60TpNYZGn6baJRQl7ealbty5WLf051zKziUbzxwPpScL0kLkTTjjh/PPPv/HGG5FUzZ49++2338Yq91Pq0XQ6R8RR0Dm7vx+ItRorNtZtrN5YP7GSH3LIIaeeeioWT5w41nl9u5vTcffCt1m+dHIylrg6iySZk8/MuUmm85133nnyySevu+669u3bY82qUqVK48aNEYJ9+vS59dZbH330UbUwZAYWKSxVJSUlMI6D0idOsJxhUcPShhtfLHNY7LDkYeHDuonOWArPOOMMLIucn74up+OOeFYOSoGq2lAAOk1tprAAfJsw8uc//3nOnDmqbiexPx2YNh988MEePXqoyv/+L+KfPj9H5HG+w0UOVwew6YQFNWwpUM21P91onaawyNN029x7773dDwHW4L4ROROVy96mCfy5efPmpUuXIsaQV/Xt27ddu3YNGjTAcWvVqnXyySd369Zt2LBhEyZMgEMI9Bk6dOj48eNxOOWs7IH1HKs61nas8FiKsdpjzcfKj4NCIa4FSredBOPuJZY/VclHIeiUz8xFQCdMz6GAg6gxkvI12Byyq/O7777DyoL06LLLLkPahMlcv359euDtzTffjDVFTfps8Pzzz8PgLbfccvnll6eWKQUWLyxhJ510Ej0vAEsbFjisJljssKBAnv7Fp8L3J5FYJ7yhnJUCVbWhAHSa2kxhAfg2YaRz587PPvusqttJ7E8Hps02bdogOFUlRY0aNT744AMq53G+w0UOVwew6YQFNWwpUM21P91onaawyNN028QuL7zwgqrYWblyJXrq38Ere5tg586duHGdNm3a1Vdf3aVLF6RN2L158+ZY5ZClIX3EJXXixIm4zE+dOhXZVe/evZHYHXbYYeh21VVXYT084ogj9txzT2SQLVq0OO+887CEYiHFcoq4VR7MErCJlf+SSy7BVQDXAlwRcF1AtgedWIpxvVCnlCbBuHvh28xpfHqJq5OTscTVWSTJHNi+fTsVbJSvweaQoU4kRi+99NKoUaOwpjRs2HDfffelF97oFa9nnnlGzemMoU8KDxkyBAc65ZRT6tWrh8Xo8MMPxxoxYMAAxDR9SQLLFvpgCXv99dc/+eQTpdJCAfozksQ64RblvhSoqg0FoNPUZgoLwLcJIxdeeOFTTz2l6nYS+9OBtvnee+/hLoLKmoEDB+KaSuU8zne4yOHqADadsKCGLQWqOfWnF63TFBZ5mm6bQ4cOxV4cRo4cqfbJh0166xbLLFbC4cOHI6VDYvf9998jh0OGhHwOWR06eN+6/eWXX95///0XX3xxzJgxWEKxkGI5xaKKHbGQwjgWUvp8sPJpNsAVgd4m7tChA04B1wtcNXAsXEFwHcHVBMpPPPFEdJg8eTLOS2mNIo/zCPBt5lSnN2OJq7N4kjncyrgf213uBttLXJ3vvvsulo/rr78et3eHHHJIjRo1TjrppAsuuAAz/4EHHlBTNhtgMmOpQnKGAx111FFYZRo1atS5c+d//vOfWF8gI/ClfU3Yn+gZWOloKbzuuutoKfQ+q72cjjvOVHkzBapqQwHoNLWZwgLwbcLIJZdcYn46zUZifzrQNm+77bZBgwZRWbNixQrEMJXzON/hIoerA9h0woIathSo5tSfXrROU1jkaTpszps3r2rVqviv6nZoUVKVMrcJcvrWLZZKXASxwGKZxWKLJRcLL0IXizAUQieWZeXiLIGrBq4duILgOlK9enUM3MSJE++++27cmOHov/nNb9q2bYvLzdNPP/3hhx8qlSnyOI8A32ZOdXozlrg6iySZW5V6Kv2yZcuoMZJyN9heTJuffPLJ9OnTr7322pYtW8IVL7zwwo8//oiFY8KECf369aOnhODuDbMLV03cdGZxYmOu3nXXXVddddVf/vIXHIg+S3vaaadBzGOPPbZmzRq+l8yeWBewGOFczPcgcBdLb1JgbUJKR29SuN8NKafjjvNS/k2BqtpQADpNbaawAHybMNKnT59HHnlE1e0k9qcDbRNXviVLllDZpFWrVghyFPI43+Eih6sD2HTCghq2FKjm1J9etE5TWORpOmz27Nnz/vvvVxUnH3zwQYMGDVSlzG0CnBoWqx07dmD5RcZDD5lDI/6jjBa0Y2vct241gXHHJQDLLxZhLMVYkLEsY3HGEo2FGss1Fm1EtXJ6NsC1BrKJZ555ZsqUKQ8//DAyy3POOeewww6rVavWueeei+qLL7741ltvKYk++Oee0/j0ElcnJ2OJq7NIkrnFixfDNe6PE5avweYwd+7cMWPGYAmoX78+psp555135513LliwYOzYsakJtcexxx7boUMHJHOjRo3iPCWECfKqG264oVu3bq1bt65duzZuYbFA9OrVC2JeeeWV8Jkm8yf0YxlSFTu33HILeqpKFKY/d+3aNWvWLNvr2wU17jgp5e4U5jnmXaepzeF8vk0Y6d+//0MPPaTqdhL70wHZxHXU/K6DybPPPtuiRQsU8jjf4SKHqwPYdMKCGrYUqObOnxy0TlNY5Gk6bKL/l19+qSpOfv75Z9N4GdsE+q1bM3vbunVrILcD/LduTbzxCVNYoumqgUUbSzcWcCzjqGJJx8KuxiARN910E+n/wx/+sGnTJqSScA4W23feeefll19Gbjdu3DgcpU2bNgcccABunHDQ0aNHv/76646ne/LPPafx6SWuTk7GEldnkSRz0HTrrbe6fxelfA12JDAye/ZszJm2bdtWqVIFcwaJGjKeFStW4F4HaX5qHdjj8ssvv+eee5C1qEmWGVOnTr3tttvoW07IDvfdd98jjjgC91i4t8NF7r333lPi7CTzJ5YzOh0vWCLVPlFof2JlqVmzZl3jUZwOJk2aRHtFUgbjDg1qAFKgqjYUQHya2kxhAfg2YWTgwIGc10IS+9MB2cS1zfFsFHpxroznuwlc5HB1AJtOWFDDlgLV3PmTg9ZpCos8TYdNvluA2bmMbeborVuTBPGJBRzLOJZQLOlY2LG8Y5GnRxZg2cfir0aFAe6FkI/CG8Q111zz1FNP0Rus9HSCnTt3fvfdd2h54403YHns2LEDBgxo3rz5Pvvs06xZs759+06YMGHNmjUkjOCfe07j00tcnZyMJa7OIknmOJSvwdYgS3v44Ycxt4855pgDDzywffv2t9xyy4svvvj222+vXr36k08+wTzBkGCqoHPjxo2RrJx++ulqesVn5syZ995776BBg84///yTTjrpoIMOqlGjxh//+EfMOuQ3y5cv119iyrU/6XMeqmLHu0RqnciD69SpQ2U3OM29995bVaIIj3vWP9sHC2pIUqCqNhRAfJraTGEB+DZhZMiQIbhNV3U7ieeRA9h85plnEOSqHgW9OJfHdQkucrg6gE0nLKhhS4FqjvypSj60TlNY5Gk6bPLdAszOZWwzR2/dmmQen1jesY5hqceCjxmBxb969eq4EOBygIsCLg24QKhxCnHUUUeddtpp8Aa4884777rrrs6dO2PJBSig+vrrr9N1CovhDz/8gDL+QzMSOHrY+0UXXYR0sHLlyjj0tdde++STT3J+4o/IaXx64dvMnc4sJHOLl++WSjPBgaHVRmlpqSr52LBhA/6vW7fu97//PZIbaowEF1RV8kE2OcTVyQHhO3369Ouvv/6MM8747W9/27BhQ6wCyOeWLFmCuyhkbxgAzIEdO3aYTzMnkD2gc5UqVdT0YjBx4sR//OMf2OvUU0+tV68ebpJwZ/bXv/4V92rIQpBKKlkhcu1PiNGPhHCDO7yuXbuq3UJonZCBVWblypVqNzsvvPACetJekZg6kYLQZ/uOP/54+t5+4LN9WMjgUnT497//rfaJIuBP9FcjlMLUk9/4hE5TmyksAN8mjNx0000333yzqtuJpVOVfMAmEjVMBFW3gEvayJEjVcVH1nXCRQ5XB7CNOyyoYUuBao78qUo+tE5TWORpOmyiv5q3DEzjZW8z1lu3ardE/vTCt7lgwQKsY7gc4KKAdQwXCKzMuFjgkoELxwTjkVXVqlVr3bo1Ej51Gmk+/PDDp5566pprrsEsw3nhv/miHaBniwIkeZ999hmu44899tgdd9xx7rnn1q5dGwklLoW4K0bC5wjCnManF75N0snJWOLqLJJX5sr7Q4Pff/99hG///v2bNWuG+xJMiRtuuGHWrFkY+E2bNuFuCVGO7O0ny5dACXiAqFq16sCBA9UM2x3c6+CC1K9fv44dOzZp0gTTr27dumeddRYOh9mFCOOfe679iRPBoqYqTrBEorOqhDB1ZuutW63zq6++Qmd+gqgqUQT8ic5qzFKY+5Z9fJpAp6nNcVJ8mzAybNiw2267TdXt5CI+R40a1b59e1Wxg+WlZs2a+mPpbrKuEy5yuDqAbdxhQQ1bClRz4U++Ta3TFBZ5mg6bfLcAs3MR2AyQo/muSmlwmcDFApcMXDhw+cBFpH79+vfddx80A6QEql8UP/744+uvv+540Y5AGXkGCl988cXSpUsfffTRv//976eddlr16tUPP/zwLl26/Otf/1q4cKH5q4w5jU8vcf0pDw2OgE74o48+OvDAA5GfUmMkBTXYCFZ44M477zzvvPNq1aqFAEVMjxkzBo2bN29GjCKPQfaGmxW1gwV0fvbZZ4cMGXLKKacgOHDHg/9/+ctfGjRoQCsjTYMLLrgA90OHHHLIAQccgAKSufHjxy9atCj8VYC4QckhmT9xIqrEwNHZ1Jmtt261ztmzZx966KE4+syZM93fUPO+dRvwJyzQCBLmCZZBfDqATlObKSwA3yaMIJNDPqfqdrIen7haYOlYsWKFqjvp06fPgAEDVMVJ1nXCRQ5XB7CNOyyoYUuBatZ1Ar5NrdMUFnmaDpt8twCzcxHYDJCj+a5KFnARgVrkc5gdWOuQlm3ZsuXbb7/dtWsXcgX3Dbn3RTsCl8vvv/8ehW3btr388su4eA0cOPDkk0+uXLny73//e6zq48aNw3WQefNfCP7kZCxxdRZJMschp4uRF9gMPD3khBNOGDRoEFreeuutL7/88pdffkG8mncnNt5+++0JEyb06tWrUaNGBx100LnnnnvHHXcgx4dNNB5xxBGYVCgDpIk1a9Zs37794MGDn3/++Y0bNyoTdgrHn9CvSgwcnU2dyHGZb93ef//9PXv2VJUQWieWjypVqoSzt8hvqF155ZW0VyQBf6K/urilQFVtyFl8qpIP6DS1mcIC8G3CyKhRo2666SZVt5P1+ERydsUVV6iKDwRP3bp1cTlRdTtZ1wkXOVwdwDbusKCGLQWqWdcJ+Da1TlNY5Gk6bKI/vYrjBffGpvGyt6lKDJg2A+RovquSHVy2li5devvtt2PNPOaYY/bbb7/WrVsPGTLk6aefXrVqFY4FZ/7000+4wIU/GqSBEduLdvCGfv4ULMAOXSs3b948Z86cMWPGIJ9r3LjxPvvsg2sr8rypU6euX7+e+ocpfH8ScXUWSTK3c+fOKVOmuKdfThcjG8uXL6fvgR9++OEHH3zwOeecQ08P+eyzz+gLPghK7/0E1gvkavQZAmRvyOGQtCGfQ1anO8Aa/q9YsQJxf+KJJ9ID2HTiUr6Ckki89gUwdaIb8+7N/dat1okRrFSp0rRp07yP8+Z/UYPA0dXFLYUpJovxqYk17qY2h5f4NmFk9OjRWP1V3U524xNp2aGHHoq7ZFX3AX8++eSTmFzbtm1TTRayqxPARQ5XB7CNOyyoYUuBatZ1Ar5NrdMUFnmaDptt2rSZP3++qjhZuHAhkgxVKXOb/OEDZucE/vTCt5lg3DE74D1csM477zzkZIcccshZZ5116623Pv/88++8884XX3xBX4DA9fqXX36hXcIEXrSzeQ8XPvoA0jfffAPjWIr/9a9/IQs84ogjDjzwwHbt2v3973+fOXOm+ZNCheBPTsYSV2eRJHP0VI7FixdTYyQ5XYw02Nd8eshxxx3Xt2/fxx57bPXq1Yg2xC4izz2EROD9U/xHGS1ox1bkELCDAnIO3Jrg9gXTpnbt2jVr1qSnzcG96JOy9CsFMsm9mDptszcSR2dTZ7Zsap24TXS/eWrifrUv4E8cXV3cUphiMolPG7HG3dTm8BLfJozAObilVnU7WYxP5N9Y8Z955pm4/vzHP/5x9tlnU4uNLOok4CKHqwPYxh0W1LClQDXrOkFcfwJTWORpOmyOGDHCOxwE1uSxY8eqSpnb5A8fMDsn8KcXvs3Mxx2JFNIpJFVIrZBgYdKdf/75uHlbsGDBBx98gGmIyyJyO/OCZUKfNmZ6D9dWet7C1q1bly5d+sQTTwwfPhxDiYQSaSUujkgxn376ae/NGJE7f3IylrjjLslcBHGdaD495Le//e3pp59OTw/BHT+cRd9dwH/ahUgF56+oegrb+6cI9J9TH6GjV/JwOCT1119/fcuWLStXrvyHP/yhf//+yBfff/99ZShEYU7yMKbOgHPcODqbOrNlM5lO/hc1AHqqi1sKc8dk/nQTa9xNbY4z4tuEkYceeghhrOp2shifF154ISYRCgn82aNHD/ebs1nUScBFDlcHsI07LKhhS4Fq1nWCBP40hUWepttm9+7du3TpsmTJEiyVqskAjQsXLkTW1blzZ9WUooxt4rw4t/EAxk0nJPCnF77NrI/7+vXrx4wZgzs3XL/22Wcf+tAbLnyLFi367LPP6CUPum5Sf7iCaNasGXrSJ8s530Oiiya9IYuEErnjpEmTrrvuuj/+8Y+/+c1vcLHGrTUSceR8tjwyd/6UZC4COmEMPC4G7qmSxaD8+uuv582bd+uttyJvw61Gw4YNsbgjn0NY4IINMZiNiCHzNWQEH06Z3t1HUFJ0Asf7pzBCNxlffPEFDod9cZSjjjoK+SJuNXD06dOnm1/ncVAuJjkwdcI5qpQZps5YNh2dE+t0dA74Ez3VxS2FuWMyf7qJNe6mNscZ8W3CyCOPPNKnTx9Vt5Ot+Bw9ejSuxFRO5s8//elPmLmqEiJbOjVwkcPVAWzjDgtq2FKgmnWdIIE/TWGRp+m1iaty/fr1K1WqhN3DtG7d2nz9jChjm7l46zZAjua7KvlIoBP51ooVK8aNG4fLIrK6KlWqtGjRAnkePWEOuR0uo7t27UKy9dNPP61cuXLixIlXXnllq1atqlWrhstlt27dRo0aNXfu3C1btpBBB7gcU2K3ffv2995776WXXsJx+/Xrd+KJJ2I0VafdyZ0/ORlLXH8WSTLHIcOgNJ8egphDdk9PDyktLaWMigKFOgOEF4IMoYaAQ9gh+BCCCESEI4ISoUkrgvn+KaIW2RtyONxP4PZl2rRpw4YNo6fN4TYC4Y588S3jV+0STB4vZebPSEydWEPhClVxAs9XrVpVVUKYOm2TNhJHZ1NntmwG/Ime6uKWwtwx7+NuanOcEd8mjEydOvWSSy5RdTtZic8XX3wR81F/lSyZPzdt2lSvXr0nnnhC1XcnKzpN4CKHqwPYxh0W1LClQDXrOkECf5rCIk+zQHR6cdjMxVu3AXI031XJR+Y6cSVFIvuvf/2rS5cuSKMPOuig008//eabb37uuedKSkr0G7L0ued169Zh9l133XW4RKJn3bp1O3XqhCvmzJkzA1+GjQRXDUQaOP/883Fdxo4LFiwIZFfly59Fksx99NFHtWrVyu6jSZCZQaR+eggWbkTYmDFj6KvXyLfoo5f61WAEEMIIMYGQQmAhvOhRhwg4hB31MUEYvfDCC/Am/aYHDvraa68hW+/bt2+TJk2QL2JK33TTTbNnz7YNatzB5sC3metJjsm8dOlSVXGybNmy6tWrq0oIUyd8rkoMHJ1NndmyGfAneqqLWwpzx7yPu6nNcUZ8mzDy1FNPXXjhhapuJ/P4RLQgk4NyVc/An4sXL95zzz2xIKi6QeY6A8BFDlcHsI07LNCoEahmXSdI4E9TWORpFohOL26buXg72CRH812VfGRd5+bNmx9//HFcUpEE/+53vzv88MP//Oc/I9WbP3/+p59+iusvrtE6/Yp7/V2+fPkRRxxRuXJletEEiw+9Y3bSSScNHjx4zpw5X3zxRe78yclY4vqzSJK5XDw0GAYbNWpETw958803kcBR6OiX3xLfGcACbgsAbjWeffbZkSNHnnvuuRhapC8IKdyIIM5UVydZnzwgblBySKYTeTMWPlVxgrVv1KhRqhLC1IkxZb7ah4GOvKgQpk5HtzCOzgF/oqe6uKUwd8z7uJvaHGfEtwkjmAiBa1gkGcbn+++/X6dOnalTp6p6ikz8+eSTT2Lif/zxx6qeJkOdYeAih6sD2MYdFtSwpUA16zpBAn+awiJPs0B0evHazMXbwZoczXdV8pFrnZi8mG7XXnvtH//4xypVqhx77LE9e/YcN24ckmNcTHelHmunX1txvzMGV6N83HHHHXbYYSrsUjz33HN33HHHJZdc0qJFi6pVqx599NH9+vXDfab5ZdhI4vpTHhocAZ0w8vRjjjlmw4YN1BgJMyjffffd0aNHX3TRRYccckhqfil27NiRyXv2lL3BCPLCRx99FDniySefDLMtW7ZEdCJf1OFS4IuRpgx0duzYEfdkuA9DzKkmA/hz2bJlSPiOP/541RSFqRNrJe59VcUJDtqmTRtVCWHqxCCqEgNH54A/0VMtMCnMHfM+7qY2xxnxbcIIboVx263qdjKJT1wMmjZtet9996l6mgz9iRUAEVhSUqLqKTLRGQlc5HB1ANu4w4IathSoZl0nSOBPU1jkaRaITi+ik0NWdK5Zs2bChAl9+/Zt1qzZPvvs07x5c1yacZ9GMxE37fplFxD5mfWGDRviKqzCLop77rmnT58+uBDUqFEDKTiygkmTJiFDUEYN4vqTk7HE9WeRJHMcHEFZWlr68MMPIy1AAle7du3TTz8dYfHggw9iOJG0TZ48mcYeQcD/Ns3PP/+MPnAWePXVV5Egdu3aFQFRq1atyKeHaGSSm4wYMQJzifwfAHdO1atXd7wmR5g6cderP/buBkkkDq0qIUydUJKVV/sC/kRPWlAIc8e8j7upzXFGfJsw8tJLL3Xo0EHV7SSOT2RyjRs3VpXdydyfWCv222+/GTNmqHoGOm3ARQ5XB7DphAU1bClQzbpOkMCfprDI0ywQnV5EJ4es69yxY8eTTz6Ji+yFF15I3xGkDyk9++yzH330EX0lUXVNgRgDBx98MPqrsPOBOY6s4IwzzkCGgDwB2QJyhgSfu82dP4skmYMmXNTpw2c2Ak788MMPH3300e7du2NsDj30UFy8r7nmGuTdaujSIDIw3jT2ak87u3bt+vrrr5Gibdq06ZlnnrnxxhsRUlWqVKEs0P30EI1Mcg6JdXbu3BmDsnDhwsgMDI1Lly7FRO3YsaNqisLUma1X+wI6EW8qBFOY4Zd3f5raHPOCbxNGFixY0K5dO1W3k2zcly1bVqdOnfBrckRW/Pnyyy8fdthhI0eOpGoynQ7gIoerA9h0woIathSoZl0nSOBPU1jkaXpt4oJdUlIybdq0q6++GvOXnprevHnzvn37jh8/fvny5T+Fftiab3Pw4MFZtyk6c6ezadOmZ511VqdOnU499dRatWphYtJzvubNm/fFF1/QUdBt3333/ec//6nCLg7IE5AtIGdA5oD8AVnEmDFjON+6ADSPOBmL99w1NI+ykMwtXr5GbYkDDgwFNtavX69KPpAa4/9zzz2HscGdMTVGsnbt2tWrVz/wwANdu3atV6/e7373u9NOO+2qq6566KGH1BBFgSA4+uijEWoIOCV9dxAZ33zzDUJq5cqV48aNu+SSS9CfnjY3ZMgQ3C6QQvrPATpVyQffZlx/cii/Om+77Tb9VPEAlSpVOvzwwzHDVVcLpk5Yw5KhosEJ1pcbbrhB7RYioBNiVAimQFVtKAB/mtpMYQH4NmEEC8Ipp5yi6nYSjPvjjz9etWpVrLZUDZMtf+Jq1LJlSywvKCfQ6QYucrg6gE0nLKhhS4Fq1nWCBP40hUWeptvm1KlTsdexxx57/vnnDx8+HJd2XOC///57jAiW7j59+tA7a3vuueddd92l9hGbdorPZo8ePQYMGIAb72rVqh155JEXXnhhv379sOnOO+/E/ylTpqjgiw/yB2QRbdu2RUaBvALTHzkGMg0lMQTNI07G4j53E5pHRfLK3KpVq+Aa3H9TowkUwmUYOQzhgQceiOvuFVdcAXerofCBEMHwIzhwA6Espr7B8N13323fvv2FF1645ZZb2rdvD8uRTw/R8LPsnN4BexGdHAI6s/JqX0An4lmFYApU1YYC8KepzRQWgG8TRt544w0kc6puJ+64jx49GvMXOqkxkuz68/LLL2/VqhVWDFX3wYxPuMjh6gA2nbBAo0agGtefHBL40xQWeZpum9hF/3anA/rku/6EjNi0Udw2X3vttcmTJ/fv3//3v/892k888cTq1as3aNDg3HPPHTJkyCOPPKICMT7IK5BdIMdAPnD00UejjNwDGQgdl6B55MhYNO5zN6F5VCTJHJg7d+7O9DdZMGxz5swZNGhQkyZN6Ed/kaTfe++9yuVxmD9/PpxO4Mzfe+89xAFSw6ZNm1apUgWW3U8P0fAHJqeLphfRySGsc+zYsQgGFSi7U6lSpfr1648ZM0Z1tRDQiR1VCKZAVW0oAH+a2kxhAfg2YQSrG1ZVVbfDt4mbY9x/I8nGDa5qspB1f959990HHXTQSy+9pOpOmPEJFzlcHcCmExbUsKVANda4q5KPBP40hUWeptvmXnvthb127NiBxRmDjusoMni04D/KaEE7tqJnnTp1sFzTXmLTRgW0uXbtWizR55133sEHH1y3bt2zzz4b+cPDDz+sgjI+yDeQdeCigAwE2QKsISf5+uuv9TwyM5ZI3OduQvOoeJK57du3z5s3729/+xsuCfvuu2+LFi169+591113KdfGZNy4cVddddWZZ56JyIDUUaNGderU6ZBDDqGnh2DU6c47gU4v3kVTf0rguuuuY37ywKszgc2y0Yk+6In+2Av7wgLswBps0ovq7vkAwjozt1kG4w5VKhZToKo2xJ/kHGLpNLWZwgLwbcLIW2+99Yc//EHV7TBtvvzyy4cffjj9WpeXXPhz6tSpNWvWHDhwoH49wIZ3HhFwkcPVAWw6YUENWwpUY427KvlI4E9TWORpOmyuXLmyatWq2AuYV/GtW7cGrvGgRo0a9MhZIDYjqcg2iXfeeQdXhwsuuKBWrVqHHnoo0gAkA0gJVIDGB3kIshHkJMhMkNghS0GugoxFHc+CV6eG5lGRJHMbNmzAgB177LEXXXTRHXfc8fzzzysvxmHs2LFXXHGFfvO7Z8+ejzzyCMyGnx6iiaszDEZ01qxZu3btUnXfovlC6leHKfkIf0pAZyd77rnnxIkT1T4+ncls5lon2rEVfdAT/bEX9oUF2IE12IRl2EcH9yvtps5s2cx83MME/AkNKi5ToKo2xJ/kHGLpNLWZwgLwbcLI+vXr4XlVt+O1+cUXXwwYMABLcPh5XTZy5E+kcUjmsJg89NBDqjUK9zzSwEUOVwew6YQFNWwpUI017qrkI4E/TWGRp+mwefHFF1966aWqYgcrbdeuXXv16qXqYtNCRbYZAPH5/vvvIw1AMkCfs0d6gCQBa4sK1pggM0F+giyFrjKRTzPWxNKJ/5kmczheISRza1Mfysa1WfmMzb333nv55Ze3adOmevXqRx55JIYct9SrVq0i417cOidNmgRVXurWrYubeH3f4F400d+dZxC4a0FP/aqAW2cymznViRa0YytVHeAo6KkqUWidWbQZNz45BPwJASpGU5h64k5yDrF0mtocjuLbhBHcjx111FGqbsdt88EHH8REHjx48HfffeeOT5Oc+nPp0qVnnHHGqaee+txzz1FLAKZOuMjh6gA2nbCghi0FqrHGXZV8JPCnKSzyNB02mzZtunr1alVx8sEHHzRo0EBVxKaFimwzQGAebdy4EekBkgSkClhnkDYgeUjw8a2FCxdOTj3vrEAeGowDgUJJ5rZu3QrXTJky5Y033lAOs3PXXXdddtllrVu33n///Y855hiMx1NPPfXpp5+SQUA2Obh17r333st5n4M239F3L5pkM+6nBDg649rMqU60oB0FrwUcBceivSLROrNoM258cgj4E6pUvKZAVW3IXnyaxNJpajOFBeDbhJGPP/4Y976qbsdm85lnnvnjH/941llnrVixglrc8WlSBv7ECtOyZcsTTzzx8ccfV01pmDrhIoerA9h0woIathSoxhp3VfKRwJ+msMjTdNhE//AHNiLBDbNpXGxGUpFtBnDMdyQMmNRIHpBCIJFo1aoVkgrOx7pefvnlxYsXP/nkk5BkZh1h4uoskmQOwDXkrHA+N2fOnFGjRl188cUtWrSoUqVKkyZNrrzyymefffazzz6jfQNom17cOiEp6694XXXVVegMzPzD+ykBt85kNnOqEy1opw5eCxhN2isSrTOLNk1/7tq1a9asWZ9//jlSQPMdZHqLOfFn+2BBhW8KVNWG7MWnCd8mdJraTGEB+DZhZPPmzYcddpiq2wnbxNgdf/zxyOSefvpp1ZTCHZ8mZeZPLETt2rXD6n/HHXd88MEH1MjUCRc5XB3AphMW1LClQDXWuKuSjwT+NIVFnqbDJt8twOwsNiOpyDYDMOc7EgmsQrhk0I+qI83o1asXUg7MdxXTaZYsWYJkjspe/XF1Fkky9+2338I1yHbJTXDZzJkzR4wY0b179xNOOGGfffbBfyTOcO62bdtoRwdkk4Nb59ChQ6GKg37WKHAsmvPmzatatSr+q7qF8KcEHDoT28y1TrRjK/qougXvsUyd2bKpdSJBrFmzZt26dTGI3s/hTZo0ifaKJOBP9KdgJlBVG3KwGAG+Teg0tZnCAvBtwgiyYXhS1e1om++9995tt9121FFHdejQ4cUXX6RGE0d8Bihjf2Lpw7r/u9/97vTTT58wYQLzQx1wkcPVAWw6YUENWwpUY427KvlI4E9TWORpOmzy3QLMzmIzkopsM0CC+Y4EA2nGkCFDdOKBJASpCBKSRYsWLVy4kIJ8xowZkLR161baK5K4OoskmXvttdfgGqRE5CmAasuWLW+66aaXXnrpm2++QZ8yXty9CYEG1/vevXurilNnz54977//flVxEviUgENnYpu51ol2/eqFGxwLR1SVEKbObNnUOvVbt174bwcTCGAVyinKbDHyAp2mNlNYAL5NGEGGfeCBB6q6HdynPfjgg23atKlVq9agQYNQVRtCOOIzQL78ifW9W7duWCVOPPHE6667DtcAx20GXORwdQCbTlhQw5YC1Vjjrko+EvjTFBZ5mg6bfLcAs7PYjKQi2wyQ4XxH4oH0A0kIUhEIUPGdArkKWuQzc7sBAfi/bt06uMb8KGJ4pMt4cc9FkoST+vLLL1XFyc+7f0rAoTOxzVzrRDu2qooTHMs0EsDUmS2bWqf+UoX3c3j8L2oQ6KxCOYW5b1biMwDfJnSa2hwnxbcJI3ARPKbqu4P7V+Q911xzzfHHH7/ffvv16NHj+eefV9vsOOIzQN79uXjx4jvuuKN9+/aVK1du2LBhx44dr7322vHjx7/yyitr1qx5//33N2/eDBc5XB3AphMW1LClQDWWTlXykcCfprDI03TY5LsFmJ3FZiQV2WaALM53CFDxnQJ3pGhxvyofV2eRJHMg4KzwSJfx4g4BuUiSVImB2dmtU5UYlKXOxEYCmDqzZdPUSfdYwPs5vKFDh6p9ogj4E/1VKKdAVW3I02KkgU5TmyksAN8mjPz000/77rsvEpfVq1e//PLLWOyQvXXo0OGoo45CAofCqFGj3njjjVg6VclH3v2pSilKS0vnzJlz9913X3755aeeemrz5s2R3h166KFwkcPVAWw6YUENWwpUC8SfprDI03TY5LsFmJ3FZiQV2WaALM53CFDxncarP65OSeYi0Da9OHR6h8rE7OzQmdhmedSZ2EgAU2e2bJo6e/fuPXz4cFWx433bPeBPHF2FcgpTTFbiMwDfJnSa2hxe4tuEEaJRo0ZIX04//fT+/fuPHj36+eeff++991SnFLF0qpKPvPtTlXxkrhMeVsOWAtUC0WkKQ5kaTRw20R/XJFVx8sMPP5jGxWYkFdlmgCzOdwhQ8Z3GlBRJXJ2SzEWgbXpx6PQOlYnZ2aEzsc3yqDOxkQCmzmzZNHXm4rN9AEdXoZzCFJOV+AzAtwmdpjaHl/KuU5V8VByd4aAqEJ3eiHLYbNOmzfz581XFycKFC1u3bq0qYtNCRbYZIIvzPTD1QGScm8TVmYVkbvHyNWpLHHBgMhFJaWmpKvnYsGEDFQLOQpXaNSUlJarkQ9v04tDpHSoTU61DZ2Kb5VFnYiMBTJ3ZshnQGetzeGq3EAF/oqcK5RTmjlmJzwB8m9BpanOcUd51qpKPiqMzHFQFotMbUQ6bN91001lnnaXmmJNTTz31jjvuULuJTQsV2WaALM73wNQDkXFuElenvDIXgbbpxaEzLMCB2dmhM7HN8qgzsZEAps5s2cy1ToCeKpRTmDtmJT4D8G1Cp6nNcUZ516lKPiqOznBQFYhOb0S5bXbv3r1Lly5Lliz54YcfVJMBGhcuXNi2bdvOnTurphRi00ZFtmmSxfkemHogMs5N4uqUZC4CbdOLQ6d3qEzMzg6d6JbsUwJuncls5lon2iOnaBgcyzQSwNSZLZsBnarEgKkToKcK5RTmjlmJzwB8m9BpanOcUd51qpKPiqMzHFQFotMbUV6bY8eOrV+/fqVKlbB7mNatW4d/q1dsOqjINjVZnO8Qo+I7DVrUNgtxdUoyF4G26cWhEwKyniQl/pSAQ2dim7nWiXZsVRUnOBaOqCohTJ3Zsmnq9M5JE0fngD/RU4VyCnPHrMRnAL5N6DS1Oc4o7zpVyUfF0RkOqgLR6Y2owvRnGNHJoQLqDEw9EBnnJnF1SjIXgbbpxaEzF0nSiBEjzj77bFVx0rZtW/OOxKEzsc1c60Q7tqqKExwLR1SVEKbObNk0dXrnpImjc8CfjnjOSnwG4NuETlOb44zyrlOVfFQcneGgKhCd3ogqTH+GEZ0cKqDOwNQDkXFuElenJHMRaJteHDpzkSSBZJ8ScPszmc0y0Imt6IOeNiNLly7FUTp27KiaogjozIpNU6d3Tpo4Ogd0OuI5K/EZgG8TOk1tjjPKu05V8lFxdIaDqkB0eiOqMP0ZRnRyqIA6A1MPRMa5SVydksxFoG16cevMRZIEkPnF/ZSA158JbJaNTvRBT7XP7sAy7I8ZM0Z1tRDWmblNUyf2ihzfMJg56KwqIQI60VOFcgpzx2zFpwnfJnSa2hxnlHedquSj4ugMB1WB6PRGVGH6M4zo5FABdQamHoiMc5O4OiWZi0Db9OLVmSChkcnDoXB0YhCRlKuKE/5n+wDCQ4VyClTVhgLwp6nNFBaguMfdTWHqDAdVgej0RlRh+jOM1+bOnTtLSkqmTZt29dVX41a/cePGON/mzZv37dt3/Pjxy5cv//zzz2fNmrVr1y61Q550amQecfDaDEw9EBnnJnF1SjIXgbbpRSYPh+LWiXS8bbY/2wcc8Zx3f5rawhNNU9zj7qYwdYaDqkB0eiOqMP0Zxm1z0qRJODskcEjjhg8fjpQOid3333+PHA6ZHPI5ZHXoULdu3Zo1a+qnV5a9ThOZRxy8Ns0IJyLj3CSuTknmItA2vcjk4VD0OnPx2T5HPOfdn6a28ETTFP24OyhMneGgKhCd3ogqTH+Gcdvce++9kbepipM6derMnj2bymWv00TmEQevzcDUA5FxbhJXpyRzEWibXmTycKgIOrP+2T7sqEI5BapqQwH409RmCgtQEcbdRmHqDAdVgej0RlRedOq3RAcPHhz5luhPP/2kuqZx28TuL7zwwo4dOyZPnnzhhRceffTR1apVQyP+o4wWtGPrypUr0fjVV1/RXmWvE3jfDs7EZhZ1agp8vuNMVXynQYvaZiGuTknmItA2vWRxsDWik0Mynbt27Zo1a9b27dtVfXcKyp+OeM67TlNbeKJpCsqfDiqOznBQFYhOb0SVvU5kXVDifUt0zz33nDhxotrHZ3Po0KHYBZjZ29atWwO5HRg5cqTaJx86y4tNkwKf7zg1Fd9p0KK2WYirU5K5CLRNL1kcbI3o5JBA588//1yzZs26desiNrxMmjSJ9oqkDPwJDSqUU6CqNhSAP01tprAABTLuXiqOznBQFYhOb0SVvU7IQP6hKnb4r6LNmzevatWq+K/qdpDr9O7dW1XKXCcoLzZNCny+46RUfKdBi9pmIa5OSeYi0Da9ZHGwNaKTQwKds2fPrlOnDpXd4GZx7733VpUoysCfjnjOuz9NbeGJpimQcfdScXSGg6pAdHojqux10ufbvG+Joifz8209e/a8//77VcXJBx980KBBA1Upc52gvNg0KfD5jjNV8Z0GLWqbhbg6s5DMLVq2Wm2JAw4M79tYu3atKvkoKSmhQsBZqFK7ZtWqVarkQ9v0kkCnF6/O0tJSnOB9993Xv3//c845p1GjRjjZJk2adOvW7dZbb50xY8aKFSvGjx+PbmoHhs4ENnOtE+3YivmPnuiPvbAvLMAOrMEmLMO+uXskWueaNWuwO+78VAjaoXcEaK9IymDcIQBnpzH15D0+TW0ORxX4PNJUHJ3hoCoQnVBiQo0mZa+zR48eJMbMNiLfEq1evfp7771HezlsoueXX36plhgnP//8Mzqr3cpcJygvNk0KfL7jvNSsS4MWtc1CXJ3yylwE2qaXLGbuGrfOZF9ud+tMZjOnOs23RNET/SmxgwXYgTXYhGXYRwf3W6KmzpEjR6I/h6FDh6p9oiiDcYcGFcopUFUbCiA+TW2msACFPI9MKo7OcFAViE4ziiIjqox1Mt8S3b59e9euXXv16qXqTpuOmRLG7FzGOsuLzQAFPt8xoGrWpfHGQ1ydksxFoG16yeJga9w66cVqVXFivljt1pnMZk51ogXtVHaDo+BYqhKFqbN3797IAlXFjnfpKYNxd8Rz3uPT1BaeaJpCnkcmFUdnOKgKRCeUmGD21ahRo3bt2scee+y55557zTXX3H777a+++ip1dpMVnbl4SxTnpUoMzM5lrLO82AxQ4PMdA6pmXRpvPMTVKclcBNqmlywOtsatE+f1Qvwvt7t1JrOZU51oQTu2ei3QW6K0VySmTiwTWCxUxQmWHixAqhKiDMYdJ6VCOYV5jnmPT1Obw/mFPI9MKo7OcFAVpk7M6y+++GLTpk3r1q3Dfd29997bp0+fFi1aHHjggd26dXv00Uc3b96suobIik54JtZboqris6lKDPg2c6GzXNgMUODzHSelZl0a8zQjiatTkrkItE0vWRxsjVtnsi+3u3Ums5lrnfotUa8F91uipk50xmKhKk6w9KCzqoQog3FPndluqA0FEJ8Qo6aZJHMWClOnOXAA1fLlT/RHJod8Dlkdcrvhw4cvXbqUOmiyotMR1WHMzmIzklzYDFDg8x0npWZdGq9P4uqUZC4CbdNLFgdb49DJ/OQBwDJnfrndoTOxzVzrzNZboqZO7/wxcXTO4rh//fXXr7766vjx4y+++OJ27do1a9asfv36uFbh6AHUDgUQnxCjppkkcxYKU6c5cADV8utPzJobb7yxQYMGXbp0WbFihWrNkk5HVIcxO4vNSLJuE30KFiVxd9CuZl0aW0+Nw58BaB5JMheBtumljBf3xJ88cOhMbDPXOrP1lqip0zt/TBydMx/3//znPw8//HDHjh332muvP/3pT/369fvHP/4xd+7cN998c+PGjV9++eUvv/yCbtAQlpH3+IQkNc0kmbNQmDrNgQOoFoE/77333kMPPRQrQElJCapZ0emI6jBmZ7dNXDtVxckPP/zAt6lKDIrJZiyDZYlNGNrVrEvjPQWHPwPQPKpAyRxaChOlL41jMULnZJ88cPgzsc1c60R7Vt4SNXU6uoVxdE58EdqwYcPo0aPbtm27//779+jRY/r06TtSj1YCBXuxDACd8IyaZpLMWShMnebAAVSLw587d+4cOXJk9erV+/bt+/LLL6tWHw6bjqgOY3Z22GzTps38+fNVxcnChQtbt26tKmWus1zYjGWwLLEJQ7uadWm8p+DwZwCaRxUrmVOlQiKsyrFoxjoFs7PDn4lt5lpnYiMBTJ3ZspkgPhcsWIAcrlatWv369UN8UqNJIV8sTaATnqFZBhxeyrtOVfJRcXSaAwdQLSZ/fvvtt8OHD69SpQrn4xnAYdMR1WHMzg6bI0aMOPvss1XFCRaKsWPHqkqZ6ywXNmMZLEtswtCuZl0a7yk4/BmA5pEkc3kmrMqxaMY6BbOzw5+JbeZaZ2IjAUyd2bIZKz5LSkq6det21FFHTZkyRbVGUfgXSwI64Rk1zSSZs1CYOs2BA6gWnz/nzZvXoUOHrl276te8bThswjNZf0sUdO/evUuXLkuWLMFeqskAjQsXLkQm17lzZ9WUoox1lgubZp+CwiYM7WrWpfGegjuWTGgeSTKXZ8KqHItmrFMwOzv8mdhmrnUmNhLA1IlukctoGES5wyYzPj/77LO+ffvuv//+d955p2qyU14ultAJz6hpJsmchcLUaQ4cQLVY/Tl48OCmTZuuWbOGGiNx2MzFW6LE2LFj69evX6lSJTg/DEyZr8kRZayzXNiEr1SpwLAJQ7uadWm8p+CNJQ3NI0nm8kxYlWPRjHUKZmeHPxPbzLXOxEYCmDqxTGCxUBUnWHqwAKlKCE583n777VWrVu3fv/+2bdtUk5NydLGEt9U0k2TOQmHqNAcOoFrE/pwwYcK+++775JNPUjWMw2Yu3hINkBV/5kJnubDpWHbyi01YYOoB7ynwY4nmkSRzeSasyjHJY52C2dnhz8Q2c60zsZEApk4sE1gsVMUJlh4sQKoSwh2fiMl27dr16NHj3Xff1fHpJSuLe4AE88gLdMLbappJMmehMHWaAwdQLW5/vv7660ccccSwYcNUfXfcNrP+lmiAbPkzFzoL36Zj2ckvNmGBqQe8p8CPJZpHkszlmbAqxyRHZ3hfVZxgbpiWHf5MbDPXOtEeOe3D4FimkQABnVgssGRg4Yg0jsalS5di0enYsaNqisLhz5UrVzZq1Eh/BFvHp5dsLe4mCeaRF+iEt9U0k2TOQmHqNAcOoFr0/vz8888xl/v166fqBl6buPfL4luiAbLoz1zoLHCb6K9KBYZNGNrVrEvjPQV+LNE8ykIyt3i563MJNnBgMhFJaWmpKvnYsGEDFQLOQpXaNV7f5YWwzpKSElUK0apVK/4nD1q2bKl2c/ozsc1c60Q7tqp+TnAsHFHtFiKs8/bbb4dxeD4MFprDDz8cHVRXCzZ/PvLII7Bw3333qboRn14COtW5GagNcWwmmEdeoBOOUtMsaqJp8q5TlXxUHJ3mwAFUC0SnCvE01GiSiU5c6o4//vhbb71V1dNk7s8wBeJPL+VdJ0JXxUqBYVsPA1MP2Hpq4vpTXpnLM2FVjju2xJ88cPgzsc1c60Q7tqqKE/dbomX2isI999xTq1atV155RdVT8G2Wmc5IYuk055pjWuVdpyr5qDg6zYEDqFYQf+K6iLk5Y8YMVU9RgDojEZ1hHMtOfrEJC0w94D2FuP6UZC7PhFW5J0+yTx64/ZnMZhnozMpbomWzGA0aNOjkk0/GNUPV0/BtlqPF3ZxrjmmVd52q5KPi6DQHDqBacfyJu6zKlSuvXLlS1SvSuIcp7zody05+sQkLTD3gPYW4/pRkLs+EVXknz9j4nzzw+jOBzbLRiT7oqfbZHViG/TFjxqiuFspgMRo2bBgSyh9//FHVDfg2y9HiDueraSbJnIXC1GkOHEC1Qvlz8uTJjRo10qYKVmcA0RnGsezkF5uwwNQD3lOI609J5vJMWJVMcg6Fo/PJJ5884ogjPv/8c1XfnaL0pznXHNMq7zpVyUfF0WkOHEC1ovlz+PDh7dq1o3Ih6zQRnWEcy05+sQkLTD3gPYW4/pRkLs+EVckk51AgOtesWbPvvvu+/vrrVA1TlP4055pjWuVdpyr5qDg6zYEDqFZAf/bo0eP2229HocB1akRnGMeyk19swgJTD3hPIa4/JZnLM2FVMsk5FILOHTt2NG3adMKECdQYSVH605xrjmmVd52q5KPi6DQHDqBaAf357rvvVq1a9bPPPitwnRrRGcax7OQXm7DA1APeU4jrT0nm8kxYlUxyDoWgs2vXroMHD6YWG0XpT3OuOaZV3nWqko+Ko9McOIBqxfTnkCFDBg4cWPg6CdEZxrHs5BebsMDUA95TiOtPSebyTFiVTHIOedc5fPjwDh06qLqdovSnOdcc0yrvOlXJR8XRaQ4cQLVi+nPbtm3777//a6+9puo+JD45lKVOx7KTX2zCAlMPeE8hrj8lmcszYVUyyTnkV+eiRYuqVq1aWlqq6naK0p/mXHNMq7zrVCUfFUenOXAA1QrrzzvvvPMvf/mLqviQ+ORQljody05+sQkLTD3gPYW4/pRkLs+EVckk55Bfnd27d9c/2OWmKP1pzjXHtMq7TlXyUXF0mgMHUK3I/mzQoMGCBQtUxYnEJ4ey1OlYdvKLTVhg6gHvKcT1pyRzeSasSiY5hzzqLCkp+e1vf/vtt9+qupOi9Kc51xzTKu86VclHxdFpDhxAtSL7cyz7N2YkPjmUpU7HspNfbMICUw94TyGuPyWZyzNhVTLJOeRRZ8+ePW+66SZV8VGU/jTnmmNa5V2nKvmoODrNgQOoVnB/1qpVK/yrLWEkPjmUpU7HspNfbMICUw94TyGuPyWZyzNhVTLJOeRL54oVKw499NCPP/5Y1X0UpT/NueaYVnnXqUo+Ko5Oc+AAqhXcn/369Rs9erSq25H45FCWOh3LTn6xCQtMPeA9hbj+zEIyt3j5GrUlDjgwFNhYv369KvkoLS2lQsBZqFK7xuu7vBDWuXbtWlXyoc/dSwJ/eqmYOjt27HjLLbeUgU4VHwZqQwH405xr4QDW5F2nKvmoODrNgQOoFohOFeJpqNEkRzofe+yxU045RdXtSHxyKEudCF0VKwWGbT0MTD1g66mJ6095ZS7PhFXJHRuHvOhcunRpgwYNUKjg/jTnmmNa5V2nKvmoODrNgQOoij/333////znP9RiQ+KTQ1nqdCw7+cUmLDD1gPcU4vpTkrk8E1Ylk5xDXnQOHz78xhtvRKGC+9Oca45plXedquSj4ug0Bw6gKv7s0aPHww8/TC02JD45lKVOx7KTX2zCAlMPeE8hrj8lmcszYVUyyTnkRWeLFi1effVVFCq4P8255phWedepSj4qjk5z4ACq4s/p06d37NiRWmxIfHIoS52OZSe/2IQFph7wnkJcf0oyl2fCqmSScyh7nZs3bz7wwAOpXMH9ac41x7TKu05V8lFxdJoDB1AVf+7YsWOvvfb6+uuvqTESiU8OZanTsezkF5uwwNQD3lOI609J5vJMWJVMcg5lr/PRRx/t1q0blSu4P8255phWedepSj4qjk5z4ACq4k/wpz/9iV5xtyHxyaEsdSJ0CxYlcXfQrmZdGltPTVx/SjKXZ8KqZJJzKHudyOSQz1G5gvvTnGuOaZV3narko+LoNAcOoCr+BP369Rs/fjyVI5H45FD4Oh2LVRh0zqLOwNQDXjFx/VmxkrnCROlLI5OcQ9nrPPDAA7W8Cu5PBK2aZpLMWShMnebAAVTFn+C+++4bOHAglSOR+ORQ+Dodi1UYdM6izsDUA14xcf1ZgZK5uEHp9bVJFgdGJjmHMtb56quvtmjRQlUqvD/NueaI/LzrVCUfFUenOXAAVfEnmDt3brt27agcicQnh8LX6b1Mm6BzFnUGph7wionrT0nmIiCbXl+bZHFgZJJzKGOdY8eOvfrqq1WlwvvTnGuOyM+7TlXyUXF0mgMHUBV/gjfffLNZs2ZUjkTik0Ph60TAf/nll6ri5Oeff8b/LOoMTD3gWDmJuP6UZC4Csun1tUkWB0YmOYcy1nnNNdfce++9qlLh/WnONUfk512nKvmoODrNgQOoij/Bxo0b69evT+VIJD45FL7Onj173n///ari5IMPPmjQoEEWdQamHnCsnERcf0oyFwHZ9PraJIsDI5OcQxnrPPfcc2fPnq0qFd6f5lxzRH7edaqSj4qj0xw4gGoB6oSqvKAOH4XEJ4fC1zlv3ryqVaviv6rbGT58eO/evbOoEwGmZl0ad8iBuP6UZC4CsgkLsV6SdaN1epFJzqGMdR577LHr1q1TlQrvT3OuOZakvOtUJR8VR2d4kSwQnVCSd0hJJBKfHMqFzqFDh2KsK1euXKdOnTZt2gwcOHDGjBnbtm2bPHnyhRdeePTRR1erVo3iYePGjVnUCYNq1qVBi9pmIa4/JZmLgGzGfUlWVSxonV5kknMoY521a9fetGmTqlR4f5pzzbEk5V2nKvmoODrDi2SB6DSjKDKiCtOfYUQnhzzqRHQ999xzSOCQxiGZQ0qHxA6NyOGQySGfQ1Y3c+ZMCsIs6oRBNevSRMa5SVx/ZiGZW7x8jdoSBxyYTERSWlqqSj42bNhAhYCzUKV2TUlJiSr5IJvTp0/nvyTbvXt32teG1uklrk4OCfzppULpRDiVPSq80igpBeBPaFPTLGqiaYpg3AOUd53mwAFUC0QnlJhQo0lh+jOM6OSQR51777338uXL1ZJqAR3QDZ2zqBNRrWZdmsg4N4nrT3llLgJtk16S5TBy5EjaxYa26UXu2DiUsU4MsSqVFXTEVHBFZHWq5CNH/oQkNc2iJpqmCMY9QHnXaQ4cQLVAdHojqjD9GUZ0csijzkmTJiHAGjdu3KVLl+HDh0+bNg1Z4Pfff48Ebvz48X379m3evDk6oBs6Z1GnGeFEZJybxPWnJHMRmDZfeOEFKjtYuXIlen711VeqHoW26UUmOYcy1onxzQtt27ZVJSOe8+5PiFHTTJI5C4Wp0xw4gGqB6PRGVGH6M4zo5JBfnZs3b0YChzQOyRxSOiR2CDnkcMjkkM8hq/vpp5+oZxZ1BqYeiIxzk7j+lGQuAm2T85IsUadOHfPbjmG0TS8yyTkUvU4EcAC1oQB0QoyaZpLMWShMnebAAVQLRKc3ogrTn2FEJ4cKqDMw9UBknJvE1SnJXATapvcl2WbNmqFD3bp1a9as6f5Oq7bpRSYPh6LX6YjnvOs0tZnCAhSUPx1UHJ3hoCoQnd6IKkx/hhGdHCqgzsDUA5FxbhJXpyRzEWibYOfOnY6XZHGgzz//fNasWbt27VI7WDB1CplAbjTHyE05XYxwphTJhD5xkHedpjZTWICC8qeDiqMzHFQFotMbUYXpzzDaJs5CyARyY7kbdxs4IxXfafQ52oirU5K5CLRNL8l0UkFIgPYef4wKfJJrAjod8Zx3naY2RzwXlD8dVByd4aAqEJ3eiCpMf4bRNh3zQvCivVfuxt2GGeGEN0Li6pRkLgJt00synUImkBv5Y1Tgk1wT0IkzVaGcQp84yLtOU5spLEBB+dNBxdEZDqoC0emNqML0ZxhtE2chZAK5sdyNuw2ckYrvNPocbcTVKclcBNqmlywOtkZ0cih6nY54zrtOU1t4omkKyp8OKo7OcFDtueeee+21194pUCVU77LiyCOPxEGVppSqo48++pgUxx57bOPGjX//+9/jf9MUf/jDH5o1a3b88cc3b978hBNOOPHEE09KcfLJJ7do0aJly5ZoP+WUU1qlaN269R//+Mc//elPbdq0OTVF27ZtTzvttNNPP/2MM85AtV2KM888s3379medddbZZ5/doUOHjh07durU6c9//vNf/vKX8847769//es555zTOUWXLl0uuOCCrim6det2YYru3btfdNFFPXr06NmzJ9ovSdGrV6/evXtfeumll112WZ8+ffqmuPzyy/v163fFFVf0798f/a9McfXVV1977bWDBw8eMmTIdddd97cU119//Q033HDjjTfedNNN11xzzT9S3HzzzUOHDh02bNjw4cNvueWWW1P885//vO2220aMGHH77bej/8gUo0aNuvPOO//1r3/dddddd9999z0pRo8efe+99953331jxoxB57Fjx95///0PPPDAgw8+OG7cuPHjxz+U4uGHH54wYcLEiRMnTZr0yCOPwNqjKaZMmfLYY49NnTr18ccffyLFv//97yeffPKpp56aNm3a9OnTscvTTz/9zDPPzJgx49lnn505c+Zzzz03K8Xs2bPnzJnz/PPPY3xfeOEFWHjxxRdfeumluXPnzps3b/78+S+//PKCFK+88srChQtfffXV1157DUkCdnz99dcXLVq0ePHiJUuWLF269I033liWYvny5StWrFi5cuWqVatWr16No6xZs+bNN99cu3btW2+9VVJS8vbbb69L8c4776xfv/7dd98tLS197733YOH999/HvNuwYcMHH3zw4Ycfbty48aMUH3/88SeffLJp06ZPP/0UkwhmN2/e/J///GfLli2fffYZJuDnn3++NcUXX3yxbdu2L7/8cvv27V999RVMff311998882333773Xff7dix4/sUyJZ++OGHH3/8EVFNTiA/AO9EizvfiyqZE4RiAhcJDbVQqOcXUkLXXeBQpeeml/KeJIUpTJ3mwOHSiP90XaFrDA2lY0CzDo4FkD3gP9ICJAcAZaQXAHkGQMKBtAMgBQHIRZCRAKQmlKMA5CvIWgDSFyQxSGUIJCJ3pEDugnSHQOqDBIgyIaREALkRQJKEVAkgZwJInv6eAukUkiQCCRbSLIB8C4kX0i8CqRgSMoDECwxKMXDgQCRqV6WgvG1ACmRyyOeQ1RHI8CjVQ86HzI9AFohcEBkhoOzw4hTIF5EFAqSPACsDJZTILCnFBEg3kXQCZJ/nn38+klECiSnSU0Bl2qQbkbwihQXnpkBGixQWqS1yXPxHmosCUl6A3JeSYCTEAJkx8mNkyZQr4z9SZ4AcGpk08mkUCKoiyUbajYQbIPlGGYk4oKQc2TlydGTkACk75e74D5DKN2nSBJk9OC4FUnyk+5T3N2zYEPcAjQzQAo466ijcLRxxxBENUtSvX79eisMPP7xuijp16tROcdhhhx166KG1UhxyyCEHH3xwzRS/S3HQQQfVqFGjeooDDzzwtykOOOCA/VP8JsV+++1XrVq1qimqpKhcuXKlSpX23XdfumXCf4A7KIA4V9PAQtz5XrSvzAlCMYHw9k7+soGU4O5WC1MbQui56UWSOQ6Z68Rg0ajp4TOhoXQMaNbBsYA6vCBUJLwTLe58l2ROEMoBqateASVzkEQv7ThU6bnpRZI5DpnrpIFbvnz5ryEVgobSMaBZB8cC6vCCUJHwTrS4812SOUEoB6SueoWVzAHkcw5Vem56kWSOQ+Y6MVi2TA7QUDoGNOvgWEAdXhAqEt6JFne+F1UyJwhFRurTzL9CVQr1/EJKTNSGEHpuepFkjkPmOtWA+VC9c486XgoV6OlQF4SiR00DC3HnexaSuUXLVqstccCBsYrZWLt2rSr5KCkpoQJcozLeFKhSu2bVqlWq5EPb9JJApxfRyaEi6DRD2oxn8ScH0cmhQHTaQl0j/uQgOjnkRacZ4URknJvE1VlUr8wpJ6VAldo1OFtV8qFtepFXFDiITg5hnYhhE9Uq/uQhOjkUiE6Et1q4o5ZuIP7kIDo55EWnGeFEZJybxNUpyVwE2qaXCjt5fv755/Hjx3/11Veq7qQI/IlwyjtKSlH4M4Do5FDEOlWIp6FGk0LQieVu9uzZOfoNbofxBP7UwCDMhhfqQvAnh7BNFSLZRlnfnSzOIxxCpSZpbAfVxPWnJHMRaJtesjjYmkLQOXbs2NatW8OHYRo0aNCrV68aNWrUrl0b1YkTJ9KODorAnzhTVSpDUv7+FVVPUwT+DCA6ORSxTh3nVMgLpCQS6MRChz516tTB0ocFEMsg7RWgRYsWWDzVbk5Mf5LxWrVqValSxWa5UqVK9evXdxsPjPuuXbtq1qwJzdh95MiRvXv3thnHam+zXGjxCbWqlD1sNrM4j3AIlZqk8Z5IXH9KMheBtukli4OtYerE3MPCgdMMgxmLebtx40bVNabOzp07t23bduHChT/88INqTYP7vA8++KBr1644CqorV67cc889aZODwLk7MsV69eoFlNuw+dNhPOyWAI4xUibKHHX43eHHUh7jE4hODqKTUBGfQjWVIe6DQicWOix3KKMnFkAsg+FX0bBgYtnE4oklVDXZMf1JxmH5gAMOeOihhyJfn4PxJUuWdOnSpXv37qopRGDcZ82aVbduXRTI+PDhwxPI5ow7FlUsrVi9cZQw4Uwxk/iEQVXKHjabWZxHOIRKTdJ4TyTuPCryZA7/NcW0aHrzLcxbnDL9RM8LL7zA13n77bfDsqpY2L59O8zu2LEDZRR++uknardhnjtTOYD4SZMmqW0hIv2ZoXHHGGFN3LRpk6rkb9wJvk3RyUF0cigznTRDyx51+Cg+/vhj6oBFDwUsgNRuA6uQ7YUujfYn1k8y/qsIhvGzzz57xIgRqrI7AX/SQk1lXXAQKdsx7lhC9a/AxcoUM4lPzonExWYzi/MIh1CpSRrvicSdR8WfzOmtRbNoYr5hbqiKHZzyokWLkMmhgMVItfpo0aIF5p6q2KlWrdrkyZNRaN68+fLly6nRhj53vnLIhlkUdu7cqVp3J+zPBMZVUxrHGB177LHr1q1TlTyNu4ZvU3RyEJ0cilgn7tPoFSwbuKBgoUMBix6WPmp0gCW0devWqmJB68RaRMbDK1Ik8+fPb9OmjarsTtif2ibHeKRsmz8pB4V4usSoVjtmppjJuDO9FAubzSzGJw5BmYnGeyJx55EkcxFom16yONgar07MN06+Vbly5RkzZqDQuHHjBQsWUKMXOCr8slaYo48++sILL0Shb9++48ePp0Yb+tyZyvWoQXlJSQmVA4T9Gde4LmgcY3TuuefOnj1bVfI07hq+TdHJQXRyKGKduE/D3RqVIxk5ciQWOhSw6GHpo0YHWELDy0sArRPrJxn37kLgAmzrGfanY7kLEynb5k+dgwKOcTNTzGTcOceKi81mhvEJsyYqNUmDFtXPQtx5JMlcBNqmlwwHOxKvTpwLJ9+qU6fOwIEDUejSpcu4ceOo0Yv2mBu9qOmVyIE5RhzlWgOUT5s2jcoBwv6Mazx8po4xuuaaa0aPHq0qeRp3Dd+m6OQgOjkUsU7cp+FujcqR9OjRg25Z9U2sl/DyEkDr1PfD3l00tp5hfzqWu0jC3Wz+NFd+jnEzU8xk3JknEgubzQzjU5tFAajUJI3eaiPuPJJkLgJt00uGgx2JV6c3CIg2KVAYPnz44MGDqdEL07h+u8G8P7NhjhEV3OhuUA6oHCDsz7jGw/0dY3T//fdfddVVqpKncdfwbYpODqKTQxHrxH0a7taoHEnTpk2x0KGgP17ixbscaZ36kyrMFQzYeob96VjuIgl3s/lT56AgrvFMxp15rFjYbGYYn9osCkClJmn0Vhtx55EkcxFom14yHOxIvDq9QUAMHDiwTp06KEybNq1Tp07U6IVpfOvWrdTz+++/9+5ijhEV3OhuUN6lSxcqBwj7M67xcH/HGC1YsOCUU05RlTyNu4ZvU3RyEJ0cilgn7tNwt0blSLBWYKGjApY+anTjXY60TtM4tXix9Qz7U/dkGg93s/lT56AgrvFMxp15rFjYbGYYn9osCkClJmn0Vhtx55EkcxFom14yHOxIvDq9QUDMmDGjcuXKKJSUlHA+50EwjetX5mC8cePG1GjDHCMquNHdHMbD/oxrPNzfPUa//e1vN2/eTOW8jLuGb1N0chCdHIpYJ+7T3J8qxvpJH97NxStz+pPBzBUM2HqG/elY7iIJd7P5Ez0pB6UyFdzobpmMO/NYsbDZzDA+tVkUgEpN0uitNuLOI0nmItA2vWQ42JF4dXqDgNi2bRv15Lx4pmH21J+Zc7x4pjHHiApudDeH8rA/4xoP93ePUbdu3fQ6npdx1/Btik4OopNDserEHRru06jFRqdOnejDu7n4zJz+ZDBzBQO2nmF/Opa7SMLdbP40v50W13gm4848VixsNjOMT20WBaBSkzR6q42480iSuQi0TS8ZDnYkXp3eICDMj7U1bdqUGr3AOOdrBHpRc3ysTWOOERXc6G6OD+SF/RnXeLi/e4ymTJlywQUXUDkv467h2xSdHEQnh2LViXUS92nUYmPw4MG0yumbWDfmh/1taJ16CWWuYLgA23qG/elY7sJEyrb50/x2GlO57pbJuDOPFQubzQzjU5tFAajUJI3eaiPuPMpCMrd4+Rq1JQ44MJmIpLS0VJV8bNiwgQoBZ6FKjXQ4FHAbQT29aJteEuj04tXpDQJCrzvjx49HFqJ29nHSSSdxHvCh327o3LnzhAkT1M4WzDGi3d3oblDes2dP2jdA2J9xjaOg9kzjHqN169b95je/oXIZjDuJNFEb4tjMS3xqRCcH0QlUiKehRpPc6fzzn/88duxYarExevRoeuatvkN2gyW0ZcuWamcLWifWTzLOXMHmz5/fqlUr2jdAeNzN5Y4KDiJl2/x53XXXUQ4KmMr1kptJfDKPFQstLECG80hLRQGo1CQNWlQ/C3HnkbwyF4G26SXDzD0Sr06cS6wXz/r27Tty5Ehq9ML5BQgADfQLEI5HwWnMMeIo16NmfmEqQNifcY3rgsY7Rq1bt8ZKikJexl3Dtyk6OYhODsWqc//999+yZQu12FiwYAF9eJd+AYIaHZgPyLWhdWL9JOOw/MILL1CjA/4vQADHchcmUrbNn+YHbDjGzZf9Mhl3zrHiYrOZYXxqsygAlZqk0VttxJ1HksxFoG16yXCwI/HqZD4dV7941rx5cziEGr1AJ/NHsZann/1t+5EGjT73uM/1Nb8wFSDsz5w+NJjAGkoPecnLuGv4NkUnB9HJoSh14t5MP8nWAf2cl/7lGCyA/J+usqF1Yv0k4/gPIi0DGF+6dCnyp44dO6qmEGF/wqBeqJPJtvlT56AAxqngAIfQrs5k3DnHiovNZobxqc2iACgz0eitNuLOI0nmItA2vWQ42JF4dfJ/twpOpmnM/zkv0olDYOJhxzD0c/WjRo3SP/xKOzrQ585XrtdN2w+/hv2ZwLhqSuMdo1WrVjVq1AiFvIy7hm9TdHIQnRyKUifuzWyvcplAJy2kWPSw9GEBxDKIapiWLVuGX9yKxNSpjbdq1cpmuVKlSvXr1x8zZozaJ4qwP/XPp+LG3iEbq71Nts2flIPqTFG12sHirA+RybhzjhUXm80M41ObRQGo1CSN3moj7jySZC4CbdNLhoMdCUcn88UznW/lSydh2mQqJ/GF80P7mvPOOw9LUuH4043o5CA6ORSlTtyb4Q5N1e2IPyORH9rXRPpTm/3VQZLMeYEAKgScRZ7S/kKhyBYjpBS4C8R5haEXzzZu3Ki65lUnCNiEctvLfvXq1Qsot2HT6TAedksAzrkvW7bssMMOi/tKJ4cii08gOjmITg650Hn77bfj3kxVnIg/3WBRxdKK1VsttbsTftkvE50wqErZw2YzQ39qs796QZI5LxBAhYCzyFPaXyjIoslBdHq5+OKLb7jhBlXxIf7kIDo5iE4OTJ07d+6sVasW7s1U3Yn4k0PZ6PTmQAmATRO67U/2USIT7KsLQKUmafRWG3H9KclcBNqmF5nkHIpM5zvvvLP//vtv375d1Z2IPzmITg6ikwNT5+23364fG+lF/MmhbHR6c6AEmDbND+ToTwTyv+Rnos2iAFRqkkZvtRHXn5LMRaBtepFJzqH4dF5yySU33XSTqjgRf3IQnRxEJweOTtyJHXDAAYsWLVJ1H+JPDmWj05sDJSDSJhoTPH7LxEw/gEpN0uitNuL6U5K5CLRNL4U8eXCHMXv27K+++grlrOuE8fHjx5NxLwn8CcsQH/44rSYTf9qM823ijm3PPffctGmTqtvJRKeNBP70Ijo5iE4Oha8Td2IDBgwQf3IoNJ3eHCgBkTb1s73M37qwEXnuZvoBVGqSRm+1EdefksxFoG16yePkGTt2bIsWLXBeYRo0aNCrV68aNWrUqVMH1YkTJ8bV6f4aARmvXbs2qjBOOzoInLv3CxAjR45EGeJr1qy5a9cutdvu2Pzp/QKEw3iscb/xxhv/+te/qrqdrI87iKVTlXyITg6ik0OB68Q9GO7EPv74Y/Enh0LTidVblbJHpM1kP1lpos2iAFRqkkZvtRHXn5LMRaBtesnX5PE+g6Nr16507itXrsTKFUtnXOO0yYF57synh8AyWurWrTtr1izaGiDSnxkajzvuSOauv/56arGR3XEn4urkIDo5iE4OBa4T0xZ3Yigk00nf3MSdIVaSMLjBDnxz00ZYp9syPWfObdzhT7fx8BdONZxxL8pvs+rfwzR/68JGZCxps796QZI5LxBAhYCzyFPaXygUzWKEiYGURVUsbN++HadMb/mjwH+UBufnvALGbc/11ehz5ygHsKkLn3/+OZUDhP2ZwHjgSwxxx/2bb75p0qTJhAkTqDGSLI67Jq5ODqKTg+jkUMg6cfelX1CPpVM/1xf/cU+IO8Pw5zQin6lmw9RJxkGnTp0iLQMYX7JkCbKK7t27q6YQYX8mfhScxuHP4n7OnP4dXvO3LmxExpI2+6uDJJnzAgFUCDiLPKX9hULRLJq40cH0UBU7yX7OC3eWcY0vt/zilkafO1O5HrVC+zkvjR73N998s2rVqo7jZnHcNQl0ehGdHEQnh4LVifsu3H3hHoyqfJv657xw2QqvG2GQu9he6NJonbgZJuP4zzEe97dZk/1Ig8bmT5KdzHgm4845VlwibW7dupXav//+e+9BI2NJ74UCoMxEo7faiDuPspDMLV6+Rm2JAw4MBTbWr1+vSj5KS0upEHAWqtRIh0Nh7dq11NOLtuklgU4vXp04l/DbiGH0W/59+vQZNmyY2tlHAuMjR45UO1swx4hjXI+aw3jYn3GNo6D2TJNs3B9++OFatWqtWLFC1Xcn8biTSBO1IalON4l1OhCdHEQnUCGehhpNMtf59NNPV6lSZd68eaoex+a0adOaNWsGYfrVGje4u8NdsdrZgtaJqxUZ10uTm/nz559yyim0b4DwuJvLHRUcRMq2+VPLBnGNZxKfTC/FItKmHmskrE2bNlWHtxAZS6bzQSox+S9oUf0sxJ1H8spcBNqmlwQ6vXh16pNyo9/yHz9+/EUXXUSNXhIY79u3LzXaMMeICm50N4fxsD/jGg/3TzzuyDhPPfVUVdmdLI67JrFOB6KTg+jkUIA6P/nkk9q1az/zzDOqnoJvExOcFiK97rnBXaV3OdI69SrHXMFwAbb1DPvTsdyFiZRtG3dzcY5rPJNx5xwrLpE2k13jTLRZFIBKTdLorTbiziNJ5iLQNr2U2WJk4g0CInBjQY1eEhhv3rw5Ndowx4gKbnQ3h/GwP+MaD/fPZNz79OmDfA7XDFVPk8Vx12Si04bo5CA6ORSgTsxNJGSqkoZvs0ePHriio6DfkfDiXY60TiQKZJy5ggFbz7A/HctdJOFutnHXskFc45mMO/NYsYi0qcfaPFMbkbGkzaIAVGqSRm+1EXceSTIXgbbppcwWIxNvEBCx3vLX5MK4OUZUcKO7OYyH/RnXeLh/huOOqwXu/gOfn8viuGsy1BmJ6OQgOjkUlE7cXyGTw72WqhvwbeJmGDeWKOjPCnvxLkdap/5kMHMFA7aeYX86lrtIwt1s425+oDmu8UzGnXmsWETa1GPt+Oi2JjKWtFkUgEpN0uitNuLOI0nmItA2vZTBYhTGGwSEfvGspKSE89YAkcA4/5s+TOO6m8N42J9xjYf7Zz7uzzzzTNWqVc3vt2Zx3DWZ6wwjOjmITg6FoxN3Vri/Cr8mR/BtYq3AjSUVtm3bRo1uvMuR1mkapxYvtp5hf+qeTOPhbrZxR0+STWUquNHdMhl35rFiEbaZ+IkNJtosCkClJmn0Vhtx55EkcxFom15yvRhF4g0CQr/lP23atE6dOlGjlwTG+c/gYRrX3RzGw/6MazzcPyvj/uabbzZp0kQ/fy6L467Jis4AopOD6ORQIDpxT4U7q8Dn5Ez4NrHW0Q86Va5cecaMGdToxrscaZ3616KYKxiw9Qz707HcRRLuZht380eu4hrPZNyZx4qFaZOeSJrJs1Q12iwKQKUmafRWG3HnkSRzEWibXnK6GNnAuXC+tqnf8h8+fPjgwYOp0UsC44AabZhjxDGuR81hPOzPuMZ1QZOtcf/mm2/+mmLTpk1ZHHdNtnSaiE4OopNDIejE3RTuqXBnRY2R8G3iZhg3lijUqVNn4MCB1OgmvLwE0P7Uvxbl3UVj6xn2p2O5iyTczTbuWjaIazyTcWceKxawaZL5rxwR2FcXgEpN0uitNuLOI0nmItA2veRuMXIQ9zlzmHXjxo2jRi9xnzNnTmkb+tzjPgrOYTzsz7w8Z87BjTfeiFu6QYMGBR5NbKNo4lMjOjmITg58m6+//jrdSunnydng28TNMN1VtklBjW7Cy0sA7U99y+rdRWPrGfanY7mLJNzNNu5aNohrPJNxZx4rFpE2f/75Z1zjMvn9cW0WBaBSkzR6q42480iSuQi0TS+5WIy8Ovk/dUBv+Tdu3HjBggXU6IXzCxDANK5fbLehzz3ujzQ4jIf9Gde4LmiyPu4ff/xx7969DzjgAHh1586dqtVC0cSnRnRyEJ0cODZx13TTTTfhDop+rcsLXyduhnFjicLAgQPr1KlDjQ7Mx3DY0P7E/SoZ9+5C4AJs6xn2p2O5CxMp2zbuWjaIazyTceccKy42mxnGpzaLAlCpSRq91UbceSTJXATappcMBzsSjk7mj5AuTz+em/9zXtAZ17g3TTHPnWkclmHfYTzSn3GNq21pcjTu77zzzsUXX3zYYYeFn65uUkzxSYhODqKTg9smVgncL+GuacCAAa+99ppq9cHXiZth3FiiMGPGjMqVK1OjAyxBrVu3VhUL2p+4XyXj4RUpkvnz59teHQz7U9vkGI+UbRt3LRvENZ7JuDO9FAubzQzj03Q+UKlJGr3VRtx5JMlcBNqmlwwHOxKmTmQGLVu2xHmFadCgQe/evUeNGkU/nIfcJa5OGMfEI2sBwsZpRweBc3cYr1evHoxPnjwZZdifNGmS2ieEzZ9e5Q7jOR33ZcuWnXfeeY0aNRo8eDCWY2o0KbL4BFnRiWvzjTfeeMYZZzRp0uTggw+moSwOcDo4qT/+8Y84QU4KUqHGPYDDJqY87pRwv4S7JlRzoVP/nNeiRYtQUK12cEsJVapiQetEJkrGf40JhvEC+Tkvkp3MeCbjzjlWXGw2M4xPbRYFoFKTNHqrjbjzSJK5CLRNLxkOdiSik0M51blq1SosxEg3999//wsuuACZ5ebNm2mT+NMELQMHDjzooINOOumkYcOGLViwoKSk5LPPPvvll19UDzbeRTNzEhwCJ4LTwUnh1HCCOE2cLE7ZMWQVYdxthG3ijgj3Rbg7wj0S7pRUa850UspCd7DD8/RD+0uXLu3SpUvHjh1VU4iwP+WH9jnYbGY4j7TZXx0kyZwXCKBCwFnkKe0vFAptMbIhOjmUd51btmyZMmVKt27dfvvb355yyilXXXXV3//+99mzZ69bt27Tpk1ffPGFfsSRjmFNcfvzm2++gSv22muvv/3tb+Ff1EhA2IFZJyuHwMlef/31OHGcfuSH94t73N2QTdz54P4Hd0G4F8IdEe6LcHdEHTS51rlx48bevXs3aNAgNTWDtGzZ0vuaHBHW6bZcqVKl+vXrjxkzRvWOwuFPt3E40yab408yXq9ePWVud8LGM4lPGFSl7GGzmeE80mZ/9YIkc14ggAoBZ5GntL9QKITFiIPo5FBMOhcsWHD//ff36tXr3HPPPfbYY+vWrXvQQQdVq1YNQYs7WvwnVO+i9ufq1auPO+64/v37f/TRR9SSOabrckQWD4ETx+nDCXCFakpTxOMOUjH+KyjjTgb3M7irwb0N7nBGjx592WWX4Z4Hdz64/8FdEO6FaK8wsi5xKL86KUKyi81mhv7UZn8N63KRzC1evkZtiQMOTCYiKS0tVSUfGzZsoELAWahSIx0OhZKSEurpRdv0kkCnF9HJoeh1UtCaqA3F68+JEydWrlyZ81SnWMB1qpQzsn4I7QryD1Gs4w5SAf6rD+nupWrVqtWrVz/ssMMaNmx45plnXn755cOGDZsxYwZ1diPrEofyq5PiJLvAprK+Oxn6U0tFAajUJA1aVD8Lcf0pr8xFoG16qQh3QjZEJ4dMdJohrSMZFKU/p0+fvs8++/C/isjHdF2OyMUh4Ao4BG5R9SIddyrAgSbUaFIgOr2ITg6Z6IwMjwyx2czQn9rsrzFdLl6Zk2SOA9+m6ORQEXSaIa0jGRSfP1966aXKlSvnIpMDputyRI4OAYfALfr91uIbd63TFuqaAtHpRXRyyERnLuaazWaG/tRmUQAqvtPorTbi+lOSuQi0TS8VYfLYEJ0cMtFphrSOZFBk/vzmm2+OOeYYx2NoMsR0XY7I3SHgluOOO46+D1Fk4w60TluoawpEpxfRySETnbmYazabGfpTm0UBqPhOo7faiOtPSeYi0Da9VITJY0N0cshEpxnSOpJBkfnz73//e79+/VQlB5iuyxE5PUT//v3hIhSKbNyB1mkLdU2B6PQiOjlkojMXc81mM0N/arMoABXfafRWG3H9KclcBNqml4oweWyITg6Z6DRDWkcyKCZ/fvrpp3vttVcWv7saxnRdjsjpIeAcuAiOKqZxJ7ROW6hrCkSnF9HJIROduZhrNpsZ+lObRQGo+E6jt9qI609J5iLQNr1UhMljQ3RyyESnGdI6kkEx+fPqq6++/vrrVSU3mK7LEbk+xN/+9jc4qpjGndA6baGuKRCdXkQnh0x05mKu2Wxm6E9tFgWg4juN3mojrj8lmYtA2/RSESaPDdHJIZlOhCuhojkVz4C2FpM/DzrooKw8GdiB9lvuyPUh4CI4qpjGnYDOVFz/igr03UNdk3edquRDdHLIRGc4NjLHZjNDf2qzvwa0JHNeIIAKAWeRp7S/UJDJw0F0csi1Th29AWhr0fjztddeO+mkk1QlZ2i/5Y4yOAQcNWvWLFXxUY7mEbnu1+DeHeqgybtOVfIhOjlkojMcG5ljs5mhP7XZXwNakjkvEECFgLPIU9pfKMjk4SA6OeRaZyB6Acq6WjT+vPHGG4cNG6YqOcN0Y44og0PAUYMGDVIVH+VoHpHrTAeibFaJvOtUJR+ik0MmOsOxkTk2mxn6U5v9NaAlmfMCAVQIOIs8pf2FgkweDqKTQ6516ugNQFunTZt29NFHq6akkClNXvx5xhlnLFiwQFVyRvhks04ZHAKOOvXUU1XFRzmaR+S6XyNyd6iDJu86VcmH6OSQiU4VH9lGWd+dDP2pzdIhVGqSRm+1EdefksxFoG16qQiTx4bo5JBMpznPUaaqbmzYsOHQoUN/+eUXlL/77ruJEyfuu+++y5Yto60ctClNXvzZpEmTkpISVckZ4ZPNOmVwCDiqcePGquKjHM0j03UoU9VsJPKuU5V8iE4OFUSnDuNUXEsy5wMCqBBwFnlK+wsFCUoOopNDrnWa89yMYV2gTE7zyCOPtG/fXlUYmPaJvPjz4IMP/uyzz1QlZ4RPNuuUwSG2bNlSs2ZNVfFRjuZRwHVULZD41Mi6xEF0BtBhjAJQqUkavdVGXJ2SzEWgbXqRycNBdHIwdZrz3IzhQEGzY8cONMZi165daucUefEnZASy0gx54YUX6OwKAYhRsrIBHAWbquIjp/F5ww030Akm4+ijj547dy6Zgk60UJmgaqAR5CU+NbIucRCdAXQYowBUapJGb7URV2cWkrlFy9RPB8YCB4b3baxdu1aVfJSUlFAh4CxUqZEOh8KqVauopxdt00sCnV5EJ4fi1mnOczOGw1s1kY02jjzyyHnz5pE1Ii/+jKXZC2Vyt9xyC/5PnDiRoxM9f/jhB7W/E3RDZ86449BaRnbzORhUx/CR0/hs0KDBypUrlSYfy5Ytq1KlyogRI77++mvko2Do0KEIPzIFnTgp1TUFVcNnmpf41Mi6xEF0BtCxjQJQqUkatKh+FuLqlFfmItA2vcidEAfRycHUqeMWmDEcKJhENtro0KHD888/ryop8uLPWJrdUCZHyROVkVTRJgexBKCzd9zDMqicFfhqcxqfkPHxxx9T2cuf//zn/v37q0oK8yVG6AycFFXDZ5qX+NTIusRBdAbQYYwCUKlJGr3VRlydksxFoG16kcnDoYLo/Pnnn2fPnv3VV1+peopkOs15bsZwoGAS2Whj0KBB9957r6qkyIs/Y2l2EE6bmIlULAHo7I7PxDKY8NXmdB4NGDAASvh88803tKMGjVSATl0mqBpoBHmJTw35E1MbExzTnBojSazTYTyuTpPIRQlkxZ8B45notJEVnQHKTKcOYxSASk3S6K024uqUZC4CbdNLBQnKSCqazjFjxtSvX79SpUqIpTANGjSoUqVKrVq1UDZfE0qmE0ZUafcYDhRMIhttPPDAA7gkq0qKvIx7LM02bAkTtW/cuFHVo4glAJ0d8YkDOWSE2xPAV5vTeVRaWtqwYUMqe4nUrBuhM9CBquG98hKfGuikd8/r1KlTo0aNXr16Yb6jGqZFixZjx45VuzkxdZJxrB5YQ2yWsfJg/XEbD4z7rl27atasCc3YfeTIkb1797YZb926tc2yzZ9h4/Xq1SNrAcLGcxqfXmKNuyr5iLSJc9cFoFKTNHqrjbg6JZmLQNv0ksegxPTAwoHzCoMZi6llXsbi6oRxzEBlbne08cT+dBjHchBQbsPmT45y1TWEY4w6duzYpUuXpUuXRn7ECneoDz300AEHHICjrFy5cs8991Qbko477KjS7jEcKJhENtqYM2dOp06dVCVFMp1uvDZjaY7EnSoNHz4cI64qUcQSgM6OeYQD4XCqsjvZyuf4anO6LmF17dChA5W9RGrWjdAZ6EDV8F7J4hOTHeNiy2D4iRd0YlLTJwWxY9euXT/44IPwq2hYHBYuXNi2bdvOnTurJjumTjIOy1hDsJJEvj4H40uWLMEq1L17d9UUIjDus2bNqlu3LgpkHPGZQLZtvmdiPKfx6YVvM0OdcIsuAMpMNHqrjbg6JZmLQNv0kq+gxMTA9MAkCecWmE6YVJhaOOW9994b/3EViaUzrnG1zY557kzjZH/SpElqW4hIf2Zo3DZGI0aMOPvss1XFwvbt28kyyvj/008/UXuycSc7hC6HCyaRjTbgotNOO01VUiTT6cZrM5bmMN4kCSOOC7mqRBFLADpHzqOtW7dOnTr18MMPx+FUUwivVA58tTldl+69917+b1FEataN0BnoQNXwXrF0krdpgYqVZNj4+OOPSRJ9bRyTndptwKw3TdT+xFpBxvGfYxxrEVYkVdmdwLjTokRlXXAQKds23z///PPExnMan174NjPUafoHqNQkjd5qI65OSeYi0Da95CUoMSUwMVTFDk550aJFtK7xP7B8++23xzW+c+dO1WpBnztfOSwvX77cYTzszwTGVVMa2xi1adNm/vz5quKEbDZv3hz2qSXZuJvadDlcMIlstLFixYrAj6JmMT41XpuxNAeg2MN/VY9i6NCh6INkS9VDYOuXX36pKk4oGwjPdxiHkYYNG+K/O+PnCHaD3VXJR07XpQEDBjzwwANU9hKpWTdCZ6ADVcN78XW+++672B1+xiUmbCeMmWTYwAUFkxqFyZMnV6tWjRodIE1s3bq1qljQ/sRaQcY5agHWIqxIqrI74XHXNjnGI2Xb5ruWDeIaz8t1U8O3maFO0/mAMhON3mojrk5J5iLQNr3kJSgxJTAxVMVO5cqVZ8yYgULjxo35P5rUokWLuMZLfA/x1+fOVK5HzWE87M+4xnVBYxsj9ETQq4oTstm3b9/x48dTS7JxN7WFBZtbNZGNNtavX3/ssceqSoosxqfGazOWZhNOYvTEE0+gD32mx5bP9ezZ8/7771cVJ/QiX3i+T506lT5ANmbMGBwIB6X2SDLM57CvKvnI6brUqVOnOXPmUNlLpGbdCJ2BDlQN78XXiXUp64nXyJEjMalRuPDCC48++mhqdPBD6kE2qmJB+xNrBRn37kJgLbL1DI+77skxHinbNt+1bBDXeF6umxq+zQx1ms4HKjVJo7faiKtTkrkItE0veQlKnEv4bcQwuIwNHDgQhS5duowbN44avSQwPm3aNGq0YY4Rx7geNYfxsD/jGtcFjW2Mwj1tUE9zmUs27uYRw4Ij9UQ22vjkk0/o8y6aLManxmszlmYNMyXChRy5GgpItpByUWOAefPmVa1aFf9V3c7w1MfvwvOdXpmj31LD4bzZQyb5HN9dOV2XTjvtNM5dExGpWTdCZ6ADVcN78XXeeuutWU+8evToQbdnMAiz1OjGa1P7E2rJuHcXja1neNx1T6bxcDfbfNeyQVzjebluavg2M9RpOh+o1CSN3mojrs5Mk7nPPvtMkjkOfJtend4gINqkQAHXocGDB1OjlwTGATXaMMeICm50N4fxsD/jGg/3t40R0zKgnuYbEMnG3TxiWHCknshGG+U3mWMmQ8emQGH16tXo73in9corr0SHypUr4/4EIY1blBkzZmzbtm3y5MmUDSA/QwewcePGyPk+ZcqUY445hj7qpI/rIHE+h71UyUdO16WTTjppxYoVVPYSqVk3QmegA1XDe/F1duvWLeuJV9OmTemDEwgGBAY1uvHa1P7EWkHGvbtobD3D4657Mo2Hu9nmu5YN4hrPy3VTw7eZoU7T+UClJmn0VhtxdSZI5r7//nskc8jigCRzeQhKbxAQuCzh+oTCtGnTAl9ddJDAeJcuXajRhjlGVHCjuzmMh/0Z13i4v22MmJYB9cQM0bskG3fziLocLphENtoov2+zYhcEnvtD4uYrZCeccMKECROoHMnee+/9+uuvI4FDSCOZg3EkdjgKLFA2gIs3Fit0Q2fbfL/xxhvPO+88KmNHekXQBiVzQNXZ8HfJ6bqEyEH8UNlLpGbdCJ2BDlQN78XX2aRJk6wnXuiASU0Fx42Bidem9qdpnFq82HqGx133ZBoPd7PNd/Qk2VSmghvdLS/XTQ3fZoY69fmiAFRqkkZvtRFXpyRzEZTZYEfi1ekNAgLXJ1yWUCgpKeG83UAkMN64cWNqtGGOERXc6G4O42F/xjUe7m8bI6ZlQD1N2cnG3TxiWHCknshGG+X3CxDYxcycwiCRQh/67Fq/FNRuA529L5JR+oWCY75DEoShQJ/Vs+Vz+mU5MhgL/i45XZfq1q37ySefUNlLpGbdCJ2BDlQN78XXiX11brRt2zZqdBM+XACsn/Th3Vy8Mqc/GezdRWPrGR533ZNpPNzNNt/NDzTHNZ6X66aGbzNDnabzgUpN0uitNuLqlGQugjIb7Ei8Or1BQGAho54YMOYuIBfGzTGighvdzWE87M+4xsP9bWPEtAyop/mCYrJxN48YFhypJ7LRxsJy+2gS2kVnTgGOPfZYXG4pk3v44YdPOOEEandAeRWuTBiy4cOHY+xwiULgLV++nD772Lx5c3SghM8x37dv337MMcdMmTIFZQiAjPD7rTqTQznxuXPI6bpU4Mlco0aNKMnQX9LyEinSpFOnTggMFLL41q32p/5ksHcXja1neNx1T6bxcDfbfNeyQVzjebluavg2M9RpOh+o1CSN3mojrk5J5iKwORFGcoGynsarM7xLJLiDxBUFBVyWmjZtSo1eEhjXnw+zYY4RFdzobg7j4TGKazzc3zHusb7Nan7Uz2YzjDnuprawYHOrJrLRRvl9aDDtYmZORCB/mjBhAnquXr2aqm42b96Myz+uTBg1XKKQ2GFfBB59xBtBqJ8a6F6Xli1bhh31u7pmZgmeffZZbKVMDtCJxIK/S04vlgX+Nus555xDSUad9Je0vESKNBk8eDDNaPoYJTU64HypQvsztVr8aty7C1Eg32bVskFc4zmNTy98mxnqNJ0PVGqSRm+1EVdnFpK5xcvXqC1xwIGh1UZpaakq+diwYQMVAs5ClRrpcChgvaaeXrTNAF7vJ4B0mnh1MmXodQcXpAsuuEDt7COB8Z49e6qdLZhjRLu70d0cxsNjFNc4CmrPNLZxb9WqVaznzHXu3BlXdNrXZjOMOe7muYQFm1s1kY02HnjggUsvvZSsEcl0uvHajKWZ0E546aWXUMbl5IMPPqDnyel3Ni+//PJmzZrhik49vfDP3bsuvfzyyzg0BJASes/3lVdegbcPOOCAGTNmqH6ZnbuXBOunFz3uSHMz/wIEmYLOQAeqhs+Ur7N///6UZKS+oxX9PLYA4cMFGD16ND1bWN/Eulm4cGHLli3Vzha0P7FWkPGAK2xgLcKKRPsGCI+7tskxHinbNt+1bBDXeE7j00sW57sm0qbpfKBSkzRoUf0sxNUpr8xFoG0G0NaySNimVyd24TyDQ78j0Ldv35EjR1KjlwTGkXJRow1zjDjGtU8cxsNjFNe4Lmhs4875BQhAb6KhYH6axGYzjDnupraw4LByENloo/z+0L65i/ljTfR1nNWrV59wwgn0Obk83qlDADIeel0Q2urWrXvxxRfTj0FpMjx3Nzl95aPAH01y33330Ycc9Je03JivGNlYsGABJjUK9AsQ1OiA8yBi7U+sFWQclvULtw74vwABtNrEsm3zSMsGcY3nND69ZH2+g0ibpvOBSk3S6K024uqUZC4CmxO93k9A2KZXJ/PpuLiDpM/q4roCh1CjF+ZDg03jy9NfULeh/Rn3ub4O4+Exyt1Dg0H37t1xhViyZElkvki/FQaDgFI6/cMVDpsBzHGHBVWKEmxu1UQ22ujQoUMgJJLpdOO1Cc0JUDsbmD/DoN/lzO/ifs8992hJkd9/RHsC1M4+cnqxLPCHBiOwKcnQX9Jyg0XD+9Bg+jkvTG0sRyjQ68EZ/kSY9ifWCjKO/yDSMoDxpUuXYhXq2LGjagoRHncYhGYynky2bR6R7GTGcxqfXnIx3yNtwi26AH7NSwz0VhtxdUoyF4HNiV7vJyBs06uT/7tVcDLNtFz8nJc2rj9RZEP7k68clmndtBkPj1EC46opjXvywH79+vUrVaqEHcM0aNCgVatW9HOQsK/28dk0MccdRlTJKIcLJpGNNpBklJaWqkqKZDrd8G1mvrgjYZo6daqZNuVdZ1hSJIXpzzBaZ4H/nBcCG7tjDi5atChsJwwWDf2KkQ3opLUOE3zUqFH69eAwLVu29FojzHHXxrGG2Cxj5cH6M2bMGLVPFOFxnzRpEi1KuPd2yEY6a5PtiM+A8Xr16pG1AGHjOY1PL2U2j3DuugBUapJGb7URV6ckcxHYnOj1fgLCNjk6cZeDNQh3POEXiuhVItwnwbLOLWL5M65xtc2O6U+mcbJfID+0HybXixEUqtLuMRwomKAxFj/++KPaM0UynW4Kx59uRCcHrbMC/tC+jDsH0RlAhzEKQKUmafRWG3F1SjIXgc2JXu8nIGyTqRP3OrgLxO5hcPuF+6SNGzeqrvH9CeO4nVLmdkcbT+xPh3Hc2wWU27CNEUe56hrCZjNMrhcjqFWl3WM4UDCJbLRx5JFHBoYvmU43heNPN6KTg9b5/PPPd+jQgcpe3LEKnYEOVA3vlcyf5qcqw/BfRZNx5yA6AyDGdAGo1CSN3mojrk5J5iKwOdHr/QSEbcrk4VDcOs2oMGM4UDCJbLRx5plnzp07V1VSyLhzEJ2gtLS0YcOGVPbijlXoDHSgangvGXcOopNDmenUYYwCUKlJGr3VRlydksxFYHOi1/sJCNuUycOhuHWaUWHGcKBgEtloo3///uPGjVOVFDLuHEQn+PHHHxFsfGgvE90InYEOVA3vJePOQXRyKDOdOoxRACo1SaO32oirU5K5CGxO9Ho/AWGbMnk4lL3OUaNGVa9evWrVqhiyMD179pw3b57qapBMJwyq0u4xHCiYRDbauOuuu4YMGaIqKWTcOYhOKhx55JFU9uKOVegMdKBqeC8Zdw6ik0OZ6dRhjAJQqUkavdVGXJ2SzEVgc6LX+wkI28xWUP7888+zZ8/+6quvUM765IHx8ePHk3EvcYMSwDLEhz+2rOHbDPvTZtxh8/jjj+/SpcuyZcsQ/arJ4Msvv7z//vv33XffvfbaCwNqfikkmU4zKnQ5XDCJbLQxderUiy++WFVSZOJPGwnG3Yvo5JBTnXPnzj3zzDOp7MUdq9AZ6EDV8F4y7hxEJ4cy06nDGAWgUpM0equNuDolmYvA5kSv9xMQtsnUOXbs2BYtWmD3MA0aNOjVq1eNGjXq1KmD6sSJE+P60/01AjJeu3ZtVGGcdnQQ8Kf3CxAjR45EGeJr1qy5a9cutdvu2MbI+wUIh3GbzVGjRnG+8kZHoW/SZeU5cyl7Ct1oFkwiG23MnDnz/PPPV5UUyXS64dusIIt7JOVO57hx4/r3709lL+5YhU4zqgkqU6NGxp2D6ORQZjp1GKfiWpI5H/qEA84iT2l/oZD5YHu9n4CwTY5O7zM4unbtSpZXrly55557xvJnXOO0yYHpT+bTQ+hx+XXr1p01axZtDRA5Rhkat4179erVly1bpipOyC3Z+gUI/NfoRrNgEtloY968ee3bt1eVFMl0uuHbrCCLeyTlTueQIUPuuusuKntxxyp0mlFNUJkaNTLuHEQnhzLTqcM4FdeSzPnQJxxwFnlK+wuFzAfb6/0EhG16dY5lPB13+/btsLxjxw6UUcjuQ4MDxnPx0GBd+Pzzz6kcIDxGCYzjRKhM2Ma9atWqke+uhiHjXbp0oZ/6BjabYcxxN0VSAUQ2aiIbbSxevLj17k+9T6bTDd+mXIQ4FIjOiy++eOrUqVT24o5V6IyM6vBeMu4cRCeHMtNpxjZQqUkavdVGXJ2SzEVgc6LX+wkI2/TqxGV4ofycV2iM4hoPez7zcaeew1NQi81mGHPcI0VGNmoiG21Mnz69WbNmqpIimU43fJtyEeJQIDrPP//8mTNnUtmLO1ahMzKqw3vF0qkfGuz+tQasdbgDVLs5gc6s2zTHXRv3/gKE23h43OUXIMKU2TzCuesCoMxEo7faiKszC8nc4uVr1JY44MBQYGP9+vWq5KO0tJQKAWehSo10OBTWrl1LPb1omwG83k8A6TTx6sQu4bcRw+jfwu/Tp8+wYcPUzj4SGB85cqTa2YI5Rhzj2s8O4+EximscBbVnmszHnXpOmzatU6dOtK/NZhhz3E2RVABacKSeyEYbixcvxlWHrBHJdLrh20ww372ITg4JdJ522mmRX9yOxBarZAo6dQezp+6g4etcvXo1dkd6RD/Zh6XP8QsQbdq0Offcc9Wedt5+++2s29T+1D/8iv8g0jKA8SVLliCT/utf/0o7hgmPOwxCMxlPJtsWnyQ7mfEKMo/gFnICCkClJmnQovpZiKtTXpmLwJYRa2tZJGzTq5MpA8kWUi4Uxo8ff9FFF1GjlwTG+/btS402zDGighvdzWE8PEZxjYf7Zz7u1LOkpIR+6hvYbIYxxz1SZGSjJrLRhnxmzkR0ctA6W7dujZsBKntxxyp0RkZ1eC++Tiz+NPvocyBe2jJ+m3XBggVZt6n9qZcLnDUSI2p0cPbZZ48YMUJVdic87pHutREp2xaf5ioX13gFmUem8wFlJhq91UZcnZLMBfnqq6+mTp0aeW/k9X4Cwja9OpkyJk+eXK1aNRRw89S0aVNq9JLAePPmzanRhjlGVHCjuzmMhwM9rvFwf9vkYVoG1BMzRO/Cn5DmuEeKjGzURDbakG+zmohODlpns2bNpk+fTmUv7liFzsioDu/F13nfffd16dIFBb1GuVm4cCHSU1WxMG7cuKzb1P6cNm0aGY/0VZj58+e3adNGVXYnPO6R7rURKdsWn1o2iGu8gswj0/lApSZp9FYbcXVKMrcbEydORM/atWvXqFGjV69e4U8YqH7ZI2zTq5MpY+vWrdTTzC285MK4OUZUcKO7OYyHAz2u8XB/2+RhWgbU08xB+RPSHPdIkZGNmshGG/KcORPRyUHrLPBX5q6++mr6xKp+98DNDz/8ECnSZPDgwVm3qf2Z+oTtr8a9uxD/8z//Y+sZHnfdk2M8UrYtPrVsENd4BZlHpvOBSk3S6K024uqUZG439txzT3puBfp37do18CEAbS2LhG16dTJl6JvIkpISzgJEJDCuX2y3YY4RFdzobg7j4UCPazzc3zZ5mJYB9TTfHeZPSHPcI0VGNmoiG23IL0CYiE4OWmf79u0z/8wcFaAzMqrDe/F1nnPOOfRdcix69LleL5EiTTp16pR1m9qf+svv3l00tp7hcdc9mcbD3WzxqWWDuMYryDwynQ9UapJGb7URV6ckc//lp59+ov47duxAIfDcCqCtZZGwTa9Opgx9E4kph8WIGr0kMK5fbLdhjhEV3OhuDuPhQI9rPNzfNnnQE3fDquKEbCKTQz5HLfwJaY57pMjIRk1kow35bVYT0clB6yzwb7M2atQIN4Eo4G4T95zU6CZSpAnWuqzb1P7E/SoZ9+6isfUMj7vuyTQe7maLTy0bxDVeQeaR6XygUpM0equNuDolmfsv+t0x2wcjvN5PQNimVyd2+SHOF06HDx8+ePBgavSSwLh+sd2GOUYc49onDuPhQI9rXBc0tsnTpk2b+fPnq4oTsmk+UYU/Ic1xjxTpUA4iG22ceeaZc+fOVZUUyXS64dusIIt7JOVOZ4E/Zw774hJFha1bt1Kjm/DhAuTCpvanaZxavNh6hsdd92QaD3ezxSd6kmwqU8GN7lZB5pE+XxSASk3S6K024uqUZO6/6HfH9MtOAbzeT0DYpldn65jPmevSpUvgZRgHcZ8zZ77YbkOPEVO59onDeDjQ4xoPe942eUaMGHH22WerigV6kDLZxH/9IGX+hDTHneyYBRDZqIlstHHkkUcGwiyZTjd8mxVkcY+k3OnM3S9AUAGE9+LrbNKkCd1KZfFVtKZNm2bdpvanvvfz7qKx9QyPu+7JNB7uZotP85Y1rvEKMo9M5wOVmqTRW23E1SnJ3H/R747pl50CeL2fgLBNr86x7J86oC/SN27ceMGCBdTohfMLEMA0rl9st6HHiK+cCg7j4UCPazzsecfk6d69OzLLJUuWRL749/PPPz/00EMHHHAAbAZ+4ow/Ic1xjxTpUA7QGIsff/xR7ZkimU43fJsVZHGPpNzpzN1vs1IBhPfi6+zWrZt7GQ8TKdKkR48eWbep/amvO95dNLae4XHXPZnGw91s8Wl+mCSu8Qoyj0znA5WapNFbbcTVKcncf9G3GrbbL6/3ExC2yQlK5o+Q4nToiY78n/OCP+Ma1z8qb8MMSqZxWIZ9h/HIQI9rXG1L4548SBbr169fqVIl7BimQYMGVapUqVWrFsoTJ05U+/hsmpjjDiOBAohs1EQ22pBX5kxEJwetc+7cuWeeeSaVvbhjFTojozq8F1/nrbfe6n6DJQDWikiRJiNHjsy6Te1PpERk3LsLUSDfZtWyQVzjFWQemc4HKjVJo7faiKtTkrn/gj70IQAUIj8Yoa1lkbBNZlAit2jZsiV2D4PEonfv3qNGjaLfWkHuEtefMN66dWuyFiBsnHZ0EAhKh/F69erBODJplGF/0qRJap8QtkD3KncYjzt5AiBfnD179ldffaXqKfg2zXGHwkABRDZqIhttyGfmTEQnB60TBdwMUNmLO1ahMzKqw3vxdc6YMcP90ecAuPfDiqEqFnBBybpN7U/cWJLxSF+FKZDnzGnZIK7xCjKPTOcDykw0equNuDolmfsv+k29wn9ljiizoIxEdHJIptOMWyqAyEZNZKMN+TariejkoHX++OOPCDY+tJeJboROXTZ7hvfi63z33Xdpd9tDCQK0ZfxaA/10FQpZtKn9qZ+igP8c4/xfgKAP8lJZFxxEyrbF5+eff57YeAWZR6Z/gEpN0uitNuLqlGTuv+iP2xf4Z+Y0ZRaUkYhODsl0mnFLBRDZqIlstCHPmTMRnRy0ThQK+ZU5yHM/LpT4IfWbocgwOnfurJrsQGfWbZrjTsZh+YADDnjooYfClgGML126FBepjh07qqYQgXGfNWtW3bp1USDjw4cPTyDbFp+ZGK8g8whu0QWgUpM0equNuDolmfsvCEeAgu2DEV7vJyBsswCDMhLRySGZTjNuqQAiGzWRjTbkFyBMRCcHrbPAPzMHnfRDPnXq1LH9kA/RsmVL7+tnBHRm3aY57mS8Vq1aVapUsVmuVKlS/fr1x4wZo/aJIjDuu3btqlmzJjRj95EjR/bu3dtmvHXr1jbZtvgMG69Xrx5ZCxA2XkHmEc5dF4BKTdLorTbi6sxCMrd4+Rq1JQ44MLTaKC0tVSUfGzZsoELAWahSIx0OhZKSEuppY8KECXT3YPtghNf7CSCdJl6dGn3uXhL404vo5JBMpxm3VAA6VCLjMLLRxsyZMzt16kTWCBl3DqIT3HnnnVdccYWKJB+2WCVT0Kk7mD11B01cneiPO5YtW7ZQYyRx/Zldm4FxdxiPq9MEBmE2bCGxTpOA8Ux02siKzgBlptOMbaBSkzRoUf0sxNUpr8z9F0RD49SPR9EHI6jRJLIxQ8I2C/AOIxLRySGZTjNuqQAiGzWRjTbmzZvXvn17VUkh485BdIICf86cjDsH0ckhQ51mbAOVmqTRW23E1SnJ3H/ZuXMnuunnVoQ/BKCtZZGwTZk8HApQJ0KlvHybdfHixYGvrcm4cxCdoMB/AULGnYPo5JChTjO2gUpN0uitNuLqlGRuN5DJoefee+89atSoyE8YqH7ZI2xTJg+Hstc5ZsyYonnO3PTp05s1a6YqKWTcOYhOUOC/zSrjzkF0cshQpxnbQKUmafRWG3F1SjIXgc2JXu8nIGyTqXPs2LEtWrTA7mGQWCAT3bhxo+oa358w3tr5tDYYT+xPh3F6zpyp3IZtjDjKVdcQNpugY8eOXbp0Wbp06Q8F/AsQqsRAXpkzEZ0ctM727dvPmzePyl7csQqdkVEd3iuZPzHZI+/JCayfgQ/m2zD9mS2b4XF3W6YvQLiN5ys+Sbl8ASIAzl0XgEpN0uitNuLqlGQuApsTvd5PQNgmR2dn3k8dJHtocFzjapsd059M42Q/7kODMzRuG/fi+21W+cyciejkoHXi2oybASp7cccqdEZGdXivWDr1Gyz4H/60DIElIvzIDBvQmXWb5riTcdCpU6dIywDGlyxZglvK7t27q6YQZRyfWELJISCWTyrIPIJbdAGo1CSN3mojrk5J5iKwOdHr/QSEbXp14i4Hc0NV7MDyokWLaJng/5wX/7dZtXH+z3nxlcNy3J/zSmBcNaWxjXubNm3mz5+vKk7Ipv5dOGCzGcYcd63NFBnZqIlstDFz5szzzz9fVVIk0+mGb7OCLO6RlDudzZo1mz59OpW9uGMVOiOjOrwXXyc9NBhzHJeYsJ0wWDTcL3cBemhwdm1qf9JDg2kt5RjnPzQY6Hxr8uTJjpf9wi+eaWzxSbKx0JFy1WrH9EkFmUfaLb+6WJI5L/qEA84iT2l/oZD5YHu9n4CwTa9OTDzc66iKncqVK8+YMQOFWD+036JFi7jGS9g/tM9Urn0S64f24xoPe94x7v/zP/+jKk7IpvkT1DabYcxxjxQZ2aiJbLQxVZ4zZyA6OWidBf7KnPyclwls6nwr2QuKtvjUsgFHuemTCjKPtFtQAJSZaPRWG3F1SjIXgc2JXu8nIGzTqxO7YPqpip06deoMHDgQhS5dugR+u8lBAuP0sxkOzDHiGNc+cRgPj1Fc47qgyXzcqaf5E9Q2m2HMcY8UGdmoiWy0Ib8AYSI6OWidBf6ZOfmhfRPdk2M88gVFW3zKD+2bRNo0nQ9UapJGb7URV6ckcxHYnOj1fgLCNr06mTJw90Y3cLghGzx4MDV6SWAcUKMNc4yo4EZ3cxgPj1Fc4+H+mY879TTvWW02w5jjHikyslET2WhDfpvVRHRy0DoL/Nus3bp1o9fFbb/KGCZSpEmPHj2yblP7EykRGffuorH1DI+77skxHvmCoi0+tWzAVK67VZB5ZDofqNQkjd5qI65OSeYisDnR6/0EhG16dTJlDBw4sE6dOihMmzatU6dO1OglgfEuXbpQow1zjKjgRndzGA+PUVzj4f6Zjzv1xAzRu9hshjHHnXbHf8JsNAsmkY02zjzzzLlz56pKimQ63fBtVpDFPZJypzN3z5kzy1TQ8HU2adIEd1MoVKtWbfLkydToJny4AE2bNs26Te1P3PiRce8uGlvP8LjrnhzjkS8o2uJTywZM5bpbBZlHpvOBSk3S6K024uqUZC4CmxO93k9A2KZXJ1PGjBkzKleujEJJSQnnrQEigXH62QwH5hhRwY3u5jAeHqO4xsP9Mx936mnKttkMY4472TH/RxZMIhttHHnkkYEwS6bTDd9mBVncIyl3OnP3CxBmmQoavk7si0sUFbZt20aNbsKHC5ALm9qfpnFq8WLrGR533ZNpPNzNFp/oSbKpTAU3ulsFmUf6fFEAKjVJo7faiKtTkrkIbE70ej8BYZtenUwZWHSoJwaMrzwXxs0xooIb3c1hPDxGcY2H+2c+7tTTfEHRZjOMOe5kB/8DmFsDUAc+u3btUnumSKbTDd9mBVncIyl3OseNG9e/f38qe0GkqZKBboROKv8akbtDHTR8nY0aNaJvTekvaXkJHy4AboazblP7U3/Ny7uLxtYzPO66J9N4uJstPs1vp8U1XkHmkel8oFKTNHqrjbg6iz+Z02Q+2DCiStkjbNOrkylDf/Fq+fLlTZs2pUYvCYzrz4fZMMeICm50N4fx8BjFNR7u7xj3WN9mNT/qZ7MZxhx3soP/AcytJr/88ov5pGIvYQvJdLrh26wgi3sk5U7n3LlzzzzzTCp7CUca0I3QSWX8D0AdNHyd55xzDn1rSn9Jy0v4cAE6deqUdZvan/prXt5dNLae4XHXPZnGw91s8Wl+Oy2u8Qoyj0znA5WapNFbbcTVmYVkbtGy1WpLHHBgeN/G2rVrVckHbg6oEHAWqtSuWbVqlSr50DYDeL2fgAQ6mTL0F6/Gjx/fuXNntbOPBMa7deumdrZgjhHt7kZ3cxgPj1Fc4yioPdPYxr1FixaxnjN3/vnn33fffbSvzWYYc9xhh1DRnIpnoLcie6MjEo8//jj/+gq0KU0ynW74NhPMdy+ik0MCnS+//HKDBg1UJPlApKmSgQ4/6ESZUIG+e6hr+Dovv/xyupXSX9LyEj5cgCuuuCLrNrU/r776ajKOXWhfLzbj4XHXNpnGw5Zt8all015UcKONV5B5ZDofqPhOgxbVz0JcnUX+ypwJzlaVfNgy4rDNzEmgE7twnsGhv3jVt2/fkSNHUqOXBMb1d5psmGPEMa594jAeHqO4xnVBYxt3zi9AAP3wTPMNCJvNMOFxhzUVzbvHc8OGDYcOHUr53DfffHPllVfGelkO8M89TObzKEwFuVOPpNzpvP766xE/fGgvE92odaJFBXrU0g34OnEfRR9y0F/SchP5qf8A48aNy7pN7U/9qQzvLkTuHk0Cwt1s8allA45x0ycVZB6ZzgcqvtPorTbi6pRkLgKbE73eT0ACna15T8fVX7xq3rw5HEKNXpgPDTaN6+802dD+ZCrXPnEYD49RXONhzzsmT/fu3bFyLVmyJDJf/Dn1W2EwCCil0z9c4bAZIDzusEPBDFBWrallFMn0rwfLAGUrTSY6bfBtVpDFPZJypxP3EitXrqSyFywUO3bsUJU0Ovy0TrSoQM84mYMF+vqR/pKWm8jncQRYsGBB1m1qf+LGj4xHnniYuA8NDhQcROagtvjUsgHHuOmTCjKP4BYTCm8NWlQ/C3F1SjIXgc2JXu8nIIHOsezfrYKTKbfIxc95aeP6d0htaH/ylcMy0jiH8fAYJTCumtK4Jw/s169fv1KlStgxTIMGDVq1akW/nAP7ah+fTZPwuMOUiubd45lvs4IsmpGITg4JdCIUf/zxRyp7wZScOHGiqqQwPyGgddpCXcPXWVpaCguYg4sWLYo0FQAKw0/KDaB/ziuLNrU/ceNHxvGfYzzWz3lpgxzLkTmoLT5JNhZSUq5a7Zg+qYDzCC5S8Z3G67S4OiWZi8DmRE7IxiWZzs7yQ/tRY5Shcdu4hymbxQg6VTRLMpdGdHLIqc6GDRuuWLGCyl4WL1584IEHPvjgg1u3bkUaB4YOHUoftwVapy3UNbF0UnpBCxSmPCY+pr/anAZLBBYKLBdYNFSTHejMuk1z3Mk4cP/Q/tKlS7t06dKxY0fVFCIw7tu3b4dNKuuCAygP56CO+JQf2td4bcJFKr7ToEVtsxBXpyRzEdic6PV+AhLrxKxr2bIldg/ToEGD3r17b9y4UXWN708Yxy2aMrc72nhifzqM16tXL6Dchm2MOMpV1xA2m2HKZjGCZhXNksylEZ0ccqrziiuuSM2nhCCT0w+s1jrRrgI9G8mcKv3v/2KyY8pj4qeOHATrZzh3icT0Z7ZshsfdbblSpUr169cfM2aM6h1FYNxnzZpVt25dFFauXAkLyXJQTnyScqzeJDUAFuSATyrgPIIfVHynQYvaZiGuTknmIrA50ev9BORCZ5gKOHk05VenGdJmnIg/OYhODgWi0xbqGvEnh4DOXbt21axZs06dOnDpyJEjHZliON/SiD85eG3CySq+06BFbbMQV6ckcxHYnAibuUBZTyOTh0NF0InYUNEsyVwa0cmh3Om0hbpG/MkhrPPnn3+ePXv2V199peppxJ8csqjTjHAiMs5N4uqUZC6CvAy2RnRyqAg6zZA241n8yUF0cigQnbZQ14g/OYhODnnRaUY4ERnnJnF1FlUyJwjFRIcOHdS8l2QujejkUO50IrxVoKdCXRAqAhT8NuLOo6J9ZU4QioA33niDCubML+KLuhfRyaHc6dSrtw54QShuJJkLok9YkjmhKFmyZAn+SzJHiE4O5U4nrd7Lly9PhbwgFD+SzAXRJ1x+k7knn3xy8ODB+K/qgrA7yOckmSNEJ4dypxPhLZmcUKGQZC6IPmG4pizZa6+9VCkb1K1bV5UKiZFpVF3IH+YvQhbxRd2L6ORQ7nSqKBcKG3U9KCdXhCYpVKUgoeC3EXceZSGZW7x8jdoSBxwYWm2Ulpaqko8NGzZQAa5RGW8KVKldU1JSoko+tE0bqYHYY/Xq1epkssHhhx/+wAMPwHgWdWoy9CfK1GhSIDq9iE4OopOD6OQgOjmUO53eK0JB+XPLli17pVB1g7zoNL1HRPrQJK7OonplTjkpBarUrsninSWMm/apGkBtM1AbDNSGFKhu3boVhQK5UyeFGmo0kVcUOIhODqKTg+jkIDo5JNCprgRpqNGkoPy5c+fOvVOoukFedMJjKjVJE+lDk7g6izmZY74Tim5kQcMZGKAqKahq/o/k193SqKY0uiWTSU6Ws4i2SfZNZNHkIDo5iE4OopOD6OSQQKe+EFAhi5D9SBL784cffqiUQtUN8uJPnKZKTdK4TxzE1VnMyRzwvhOKDuimKmk4AwM6dOhABQfMPmSTjGcyybWRzElJU6im3ZFFk4Po5CA6OYhODqKTQzKd6nqQQjVljNtUYn8iTamSQtUN8uJPnKZKTdJ4fRhXZ5Enc7QJ2JIqaled0nAGhtixY4dqSoEWVUqBrdRN1VMEWqgPCroxk0mesp01lFELsmhyEJ0cRCcH0clBdHLIUKe6QmQJZTSKxDq/++47m/G8+BNKVGqSJlKbSVydFSWZQzmQeIHIZAtwBoZQ9TSRLYHGyBb9H2QyyU888cSVK1eqioEsRhxEJwfRyUF0chCdHIpYJ65WuGZROZJkOnExveWWW3690O6xR8OGDc8555wbb7xx8eLFtDUX/tyyZQs6r1q1as6cOQ8//DCOfvnll5977rknnHDCoYceChl77bWXSk3SoFHtbCGuzgqUzKnS7gS6EV4n0l5A1dNEtgQaI/vo/yCTydO+fft58+apikECf3qRxYiD6OQgOjmITg6ik0OB6MTV6swzz6RyJMl0/nrRTbFr167S0tLnn39+6NChzZo1q1279rBhw95//33Vz4fpz59//hlVM13r06dPmzZtGjRo8Jvf/AbH2mefffC/adOm+I+t6IOe6I+9kLOiUaUmadCiTFuI68/iT+bM/2FSvYKbvE6kvYCqp0B19uzZ4UazBeXIPvo/yGTydOvW7YknnlAVgwT+9CKLEQfRyUF0chCdHEQnhwLRiasVrllUjiSxzm3btqmSwdy5c6+44oqqVavefPPNqsmJ1mn7mFbdunXPOOOMwYMHP/XUUyUlJStWrKB22ssEjSo1SRPZzSSuP4s8mTOhbgEiN3mdSHsBVU8T2RJojOyj/4NMJs/48eN79eqlKgblbpJ7EZ0cRCcH0clBdHIQnRy0TlytcM2iciSJddJzviJZvnx5+/btccF94IEHVJMFrROdx4wZQ2U36AlUxQCNlJloIruZxPVnBUrmAHWj/oRuN/E6kfYCqm6H04066G6ZTB7sW7t2bVUxKHeT3Ivo5CA6OYhODqKTg+jkoHXiauV+0zOxTseO2NS6desuXbp4L81ap+45YcIElCPBJuoJqLMJGlVqkiaym0lcf1bEZI4KRKBKeJ1IewFVt8PpRh10twwnz9FHH/3mm8ERKXeT3Ivo5CA6OYhODqKTg+jkQDpxncLVilpsJNa5ZcsWVQpx9dVXd+/eHfncgw8+qJosaH/qqzMKkc870884w38qBECjSk3SRHYzievPCpTMUbcAkZu8TqS9sgjZzMovQFx11VV33XWXqqQpX5Ocg+jkIDo5iE4OopOD6ORAOnGduvLKK6nFRmKdmzdvVqXdmTNnTt26dQcNGoR8TjXZ0f6ka7RZCKOv45F90KhSkzSR3Uzi+rPIkznaBMyySaAb4XUi7ZX132adOnUqChlOnueee+6UU05RlTTla5JzEJ0cRCcH0clBdHIQnRxIJ65TuFpRi43EOjdt2qRKBtu2bcN19uabb8b/yG9IBND+1EmCLoShTb9mBlF90KhSkzSR3Uzi+lOSud26EV4nYhfmb4UxQWzhf7Z+m7Vly5YzZsxQlRTla5JzEJ0cwjpxK4xIa9iw4fXXX48jzp07d9y4cUOGDOnatev555/fvn371q1bN2vWDP9RRsvFF1+MreiDnuj/448/zps37/nnn7/33nsHDBjQqVOn00477aSTTjr22GNxvwtQQBWN2HTppZeiGyZjaWkpdjQPB7Pm4U4++eTIw/Xr1w9SIVjfwVfAcb/iiivICUceeWRg1AJu1KPWpUuXwKjZ9mrSpIljrM29/vrXv0YeKzxk0EkxdsMNN6hzsCDznUNR6sQVCtcpVbeTWOfHH3+sSgbdu3cfNGgQlqk5c+aoJifan4jnQCEMbcL/yD5opMxEE9nNJO64ZyGZW7x8jdoSBxwYCmysX79elXzgOkGFgLN+9ajhLJQjHxqM/9hEFjTappcEOsO8/fbbY8aMwX+qrl27lgpebDYnTJjQvHlzVUmRQCe5SEONJpnrDJMVfwYQnSaIdixz9NyjI4444owzzkCucNddd02dOnXmzJlI1BYvXjx9+nT8R/nZZ59FO7aiD3qiP/bCpfqss84aOHDgAw88gDVx4cKFK1aswIE+SYECqmjEJnRAN3Q+6qijEh8O1j766CMUSH8FHHdyAlKrTEatLPcy1apzsFB+55GNItaprgRpqNEklk5coXCdUnU7if35xhtvBHTefvvtrVq1uvDCC/v27auafGh/IpLJmi6EoU34H9kHjSo1SYMWMm4j7rhXlFfmsvtzXpoEOr1k5U4IUfvMM8+oSgHrDCA6OWSiU0d7OOw5JNsLZHg4XaiA4266LkM3xiLzvbwWZL5zKD6dDz30EK5QquIksc4PPvhAlVIg1UM03nTTTa1bt07gTx3JjpCmTfgf2QeNKjVJE9nNJK5OSeaKM5nDPXSLFi1UpfxMctHJIROdOtrDYc8h2V4gw8PpQgUcd9N1GboxFpnv5bUg851D8ek8/vjjcYVSFSeJdQaqyOGQySEgkdUl8KeOZBTk26xByjiZQzmLv82qKeTJ07Nnz6uvvprK5WWSi04OmejU0R4Oew7J9gIZHk4XKuC4m67L0I2xyHwvrwWZ7xyKTCeuSueff76q+Eiss7S0VJX+939vuOEG81kkCfypI1meMxdB2SdzqrQ7gW5EgsH2kjgoHbht/vjjj7gBeuihh1AuF5MciE4OmejU0R4Oew7J9gIZHk4XKuC4m67L0I2xyHwvrwWZ7xyKSSeuR7gqffTRR6ruI7HO9evXU2HOnDmHH364+SySBP7kzwX0jOyMRpWapInsZhJXZ/Enc+b/MKlewU0JBttL4qB04LX55ptvVqpUadGiRYU/yQnRySETnTraw2HPIdleIMPD6UIFHHfTdRm6MRaZ7+W1IPOdQ9HoxJUI1yNclcpA57p16/A/8lkkCfyJSI780fMAyGrQMzLs0ahSkzSR3Uzi6izyZM6EugWI3JRgsL0kDkoHHJsIwYYNG7766quq7iNfOonC9ydRfnXqaA+HPYdke4EMD6cLFXDcTddl6MZYZL6X14LMdw7FoXP9+vW4ElFKVAY6S0pK8J+eRYJMznwWSQJ//v/bew9oKYrtfVuJhyhBQLJIBgHJSXLOWUEEkazgEckZrkQRECRnFBEkw3gFBGQpCAcB8YiILsD4ca9LLoqoS1Hh973Mrql/0V3dXd09M2fOUM+CWdXd1dVv7b2ravfMnJ4nn3wSwaxC9+7d8Xr48OFTp0598cUXly9fvn79+smTJ7GTpSYhsIcat8KtzrsomQNUjeoTfL+IB2c74jkobVBs89VXX82ZM+e+ffvYti0pqBOkCnuC1KuTR7s57FXwdhbweTleuAv9LprOpxld4f8sxxb0eFchDnRi9cmdOzdWItqMgs4zZ84sXry4bt26yOcMzzv0Zs9bt24hLUNyhhQNiRrStT179mzcuHHFihVz584dOXLk8OHDBw4ciMu1bdu2YcOGVatWLVWqVP78+bNly4aBkCZNGpaahHAcHW513o3JHBUIwybhzdn2eA5KG9TbXLNmTebMmVetWsW2rUlZnanFnqlXJ492c9ir4O0s4PNyvHAX+l00nU8zusL/WY4t6PGuQmrXiXUHq8+uXbvYduR1IvCIbt26IZ9je0OkiD0hhqUmIbCHHbPArc44T+ZoP38VC8TtSiabpoizOREa5KdPny5duvTkyZPZLgtSXCcrOaF1qmDWyaPdHPYqeDsL+LwcL9yFfhdN59OMrvB/lmMLeryrkKp1YsXBuoPVh20HibROBN6UKVMqVKiAwpkzZ9jeECliTyhhqUkIx9HhVudd9M4cVTMgPZQizuZEbpD/+OOP3bt3L1GixLp162i/mVjQqYLWqYJZJ492c9ir4O0s4PNyvHAX+l00nU8zusL/WY4t6PGuQirViVUGaw1WHKw7bFeIKOhMSkpC+EkjMEXsCSUsNQkh1SbiVmf8vzNHiGURQzUiRZzNifQgP3DgQMOGDR999NG9e/eyXQKxo9MerVMFs04e7eawV8HbWcDn5XjhLvS7aDqfZnSF/7McW9DjXYVUpxMrC9YXrDJYa2iPgSjoPHbs2EMPPVSjRg22LZAi9sRYYKlJCMfR4VanTubuqEakiLM50RnkGzZsKFOmTKVKlSZOnHjixAm2N/Z0WqF1qmDWyaPdHPYqeDsL+LwcL9yFfhdN59OMrvB/lmMLeryrkFp07tu3D6sJ1hSsLPYP8oiCzqNHjxYvXlz6W/4pYk+MBZaahHAcHW513kXJnM0P7dMmJ0WczYnmIEfEjxkzply5coj7YcOGLViwYPXq1cePH//uu+9u3rwZNOFtWO070ZOmCrGmk3vTyq32eDsL+LwcL9yFfhdN59OMrvB/lmMLeryrEDs64VACqwPWiGPHjm3duhWrBtYOrCClSpXCaoI1hdW2Jgr2fP/990uUKFFH9guwKWJPGI2lJiGwhx2zwK3OMCRzR5Lu+G6jIrgwtFpx/vx5VnLiwoULVDAY63bE3XMP757Vb7PC2XilFji8TUc86HQkOTmZlZwIo85Dhw5NmjSpf//+zZs3r1y5cv78+WGWhg0bwnRBOxlNBFJEJyfG7cmJNZ1wJZL19u3bk1tjH0iFYBRI/13od/T9yJEjGIyZM2cOmiTWgU6ohWaUWR8s0ONdhRjRSc7FigDnooA1okqVKm3atMGqgbUDK0hM2XPnzp1I5khzzMK0WuDWnvH8ztzs2bODFnOGWuDwNh2Jwh2GDRHVyUwTgnaK6DtgFWJNJ1yZLl26QYMGXb9+ne2KYSASUhMSEngE3oV+R99z5MixcuVK82cLsQl0Qm2aNGmk84aIHu8qxIhOeFOEdorElD2RXJYqVWrs2LHI6rZt27Z58+aNGze+9tpr69atW7Vq1fLlyxcvXrxw4cJ58+bNmTNn5syZ06ZNmzJlysSJE8eNGzdq1Kjhw4cnJiYOGTIE8w+y1T59+vTq1euJJ5547LHHunTp0jFI27ZtW7Vq1axZs0aNGtWrV+/RRx+tXbt2jRo1kONWrFixXLlypUuXRkL54IMPFipUKFu2bLly5cqePXuWLFkyZsyISVhqQxG39oznZE4daoETU0FpQ0R1wizMlBZvCOtJU4VY0wlX0q9NpyIwz/IIvAv9nhpdBqBZOm+I6PGuQozohDfZemCxIsSUPQ8cOIBcCjqRNmXKlIlyqbx58xYoUACpVfHixXG0QoUKSLxq1qxZt27dhg0bNm3aFMkZsrRu3br16NGjd+/eeB08ePCwYcNGjx49YcKEqVOnTp8+/aWXXpo/f/6iRYuQEa5Zs+b111/ftGkTCrt27fr3v//97rvvHj58+OjRoydOnPj444/Pnj37xRdfXLp0CUqQSiKhRFqJ5BIppuPocGvPeE7maD9HD3IVpPaUhp22pwqxphOu/OWXX9hGKgGCeQTehX5H369cucI2Ug/QLJ03RPR4VyFGdMKbbD1IDcnc/v37ka41adKEbQukiE7ReoTj6HCrUydzElLE2ZwY0SnaUxp22p4qxJpOuPLWrVtsI5UAwTwC70K/p0aXAdFrVujxrkKM6IQ32XqQGpK5d955p0yZMk2bNmXbAimiU7Qe4Tg63OrUyZyEFHE2J0Z0ivaUhp22pwqxptNxBolNuOy70O+p1GXAUbke7yrEiE54k60HqSGZAxAZOzqhhNkuhFSbiFudcZXMxQ4kScRPUFoR0aBEL1jQ6WTOROrVCVe+/fbbbCM1cPPmzddff51H4F3od/T9tddegx3YdmrA4DUr9HhXIUZ0wptsPdDJnAnHNqGE2S6EVJuIW506mYsIJEnET1BaEdGgRC9Y0OlkzkTq1YlMLhihqYnChQvv3LmT9N+Fft+1axcswGyRehC9ZoUe7yrEiE74lK0HMZ/MBQOQkSNHjmLFitWvX3/UqFHbtm1D+hIJnf/9739R+eTJk7t3716+fPmUKVMGDBjQtm3bqlWr0nO+0qRJw2wXAjvZyRa41RlXyRwzUhCzpaIzeHBd86WBt6C0JxJBKbWntEepbjJyROtUQetUQetUQetUIUZ0Oq4IMWjPW7duXb169dKlSwcOHJg+fXr79u0TEhJ69uypmPeIOm/evIlNMV3r168fckRkilmzZoVB6GkjFStWxCuOog5qoj7O+uijj0TrEVIbiri1p07mJPgJSlzXfGngMyil+NFphdSe1CkOVfAPa06j8QeLJ9+w5jzBmggHrEWNxj0shnzDmrsTth6knmTOzOXLlydPnkzvlq1evZrttYDr7Ny5c9AARgoXLtykSZMXXnjhzTffTE5OPnHiBO2ns0Swk9kuhLSaiFt76mROgp+gxHXNlwZhD0rgR6cVZnseO3aMCoB6B6iOT6gdvLLWNRo38PgJRpNf0A7BWleGnZbSMjR3OSxuIjk587VAepWIrkeOuFo3mzdv3rFjR0dbcZ2ouXLlSirbg5rSZrGTTMeRVhNxa0+dzEnwHJRnzpzBdQm2K0SEgpKVnPBsz6SkJLInQf0y984bvDXWukbjhhiJxhiRobnLiU4cHj16FK/Sq0R0PXJEfd188cUXW7RoUbduXcdncXOdvL8rVqxAWQoOUU1AlUWwkwzIkVYTcWtPncxJ8ByUiI9u3bpJnRSJoPSs0wbRnoZMDmAnQXV8Qu3glbWu0biBx08wmvyCdgjWujLstJSWobnLYXET+ckZ+Zz0KhFdjxxRXDc/++wziO/bt2+PHj3YLmu4Tt5fFE6dOkVlEeykOnilggHsZOYLIa0m4taecZvM0S8DgmzZshUsWLBMmTKPPPIINjt27Ni7d+8hQ4aMGzdu5syZixYteu2113bs2HHgwIETJ058/vnnuPTFixcVn9Ip6hw9ejTiwyrfD3tQgogOHrKeDVTNMzdv3mQNaTT+8P/YDtaQb1hzPtDjQuMH/2MBsLZsYVUFIroeOaK4brZo0aJfv35FihS5evUq22UN18n7K+04QYdum0ZWBztZahJCWk3ErT3DkMx9cFySqDqCC8P6Vpw5c4aVnEhOTqaCwVjYRLKMnOyXX35BV5Gl0ZcTBw8ejFdFOnToQI1bwXUuW7asUKFCiYmJlO/TThGu05GTJ0+ykhPqbfq0J8q0E6CMDuLVp873338/X758bCOEB52OxIg9HbHSiduSPXv2ME8EfRGbOs1QmxAcFsQ2RRBFiCW2IeBKJ9qnqGa7BL744gvxsQLSOubTPdtTOi4I9TbD6Hd0KlywFgWsdKIyM3cggOCH/T3b04YUsScnEjrz5s0rHQtm7NsU/cV1ik7hR0Viyp4YjwTbDjJ+/PiGDRtipcZ6zXbZwnWiv9QaL5ihQ3iV1sFOZrsQ2EONW+HWnnH7zpyVQYH0bVIzGzZskDYiQjqR4yPTnzBhgk2+H/Y7DBDROyH0nZnyTmNSGa8+dR4/frxGjRpsI4QHnY7EiD0dsdKZNm3aXbt2MU8EfRGbOs1Qm2LweIY3YtZZs2ZNxBLbEHClk0c17RH5+++/4QJmfeuJhb8Snu3JxwVaCwvUrBWOOh1bUETajlV8ojIzdyCA4If9PdvTBvU2U8u8VLlyZelYMGPf5u24CfmL6xSdwo+KxLg96QPW1q1bDx06lO1yguvk/ZV2nKBDeJXWwU5muxDSaiJu7Xk3JnNsQwHHyqSzR48eiYmJyOR2795N+82EMSg5ER086Dsz5Z3GpDJeferctm1b586d2UYIDzodiRF7OmKlM0OGDDt27GCeCPoiNnWaoTbF4PEMb8SsE1G0detWtiHgSiePatojcuPGjfTp0zPrW08s/JXwbE/0hcaF9EJucWzEUWdYZABpO1bxicrM3IEAgh9DwLM9bVBvM7XMS61atZKOBTP2bcL+3F9cp+gUflQkxu3ZokULjKy6det60Mn7K+04QYfwKq2Dncx2IaTVRNzqvHuTudmzZ9OmGRyiOihTwQroXLx4MeID+dzo0aPZXhlhDEqOh6B0RGpP0Q5UxqtPnQsWLHjuuefYRggPOh2JEXs6YqUzISFh+/btzBNBX8SmTjPUphg8nuGNmHUiihBLbEPAlU4e1bRH5I8//siYMSOzvvXEwl8Jz/bk40J6Ibc4NuKoMywygLQdq/hEZWbuQADBjyHg2Z42qLeZWualp59+WjoWzNi3Cftzf3GdolP4UZFYtuf8+fPr1KkD2WfOnPGgk/dX2nGCDuFVWgc7me1CSKuJuNV59yZzKEg1YKdYhwpW7N+/H3XGjh2LfI7tsiBcQSniISgdkdpTtAOV8epT5wsvvMCTZk70B7lIRO3piJXOTJky4W6beSLoi9jUaYbaFIPHM7wRs05EEWKJbQi40smjmvaI/Pbbb3ABs771xMJfCc/2HDZs2EsvvYSC9EJucWzEUWdYZABpO1bxicrM3IEAgh/292xPG9TbTC3z0vjx46VjwYx9m7A/9xfXKTqFHxWJWXvSB6yVK1emv030oJP3FwX916xGYiGZo4IZlTpEjRo1kMmhGvJ9tssC/0GJq0QZZso7jUllvPqcjEqUKGE2WmqZNKOpM0uWLFu2bGGeCPoiNnWaoTbF4PEMb8SsE1GEWGIbAq508qimPSLXr1+HC5j1rScW/kp4tmfx4sVpXEgv5BbHRhx1hkUGkLZjFZ+ozMwdCCD4YX/P9rRBvc3UMi/t379fOhbM2LcJ+3N/cZ2iU6iCCmnSpKHTRaJszxYtWjRu3Jg/i8SD39ERKujnzEmIg2Ru9OjR3bt3t3oWiYGwBKUBD0HpiNSeoh2ojFc/Oj/66KMyZcqwDYEoD3IDEbWnI1Y6s2XLtnnzZuaJoC9iU6cZalMMHs/wRqQ6EUuIKLYRwpVOHtW0R+TatWtwAbO+9cTCXwlv9jxx4kS5cuWoLL2QWxwbcdQZFhlA2o5VfKIyM3cggOCH/b3Z0x71NlPRvCQdC2bs24T9ub+4TtEpVMExe+DvVxmIpj3nz59fuXJl8W8TPfhd2gspQcNIKmMns10IaTURtzp1MidBpc7u3bsRH8899xzP9+3xH5RmPASlI1J7inagMl796Jw8efKoUaPYhkA0B7mZiNrTESudOXLkePPNN5kngr7wo/PKlSuvvfYaXtl2iMjZUwwez/BGpDoRS4gothHClU4e1bRH5KeffsqePTuzvvXEwl8Jb/acOHHimDFjqCy9kFscG3HUGRYZQNqO1ThCZWbuQADBjyHgzZ72qLeZiuYl6VgwY98m7M/9xXWKThErUFkKHaVqIlGzJ33Amj9/fvFvEz34HY2o/JwXsprb3ZZ1GTuZ7UJIq4m41amTOQmOdfizSAoVKqTy7EHgMyileAhKR6T2FO1AZbz60YlbpQ8++IBtCERtkEuJqD0dsdKZM2fOjRs3Mk8EfeFZJ31GULJkSbwa8rnI2ZMCxie8EalOxBIiim2EcKWT2pdK/d///odkglnfemLhr4Q3e1aqVOno0aNUll7ILY6NOOoMiwwgbcdqHKEyM3cggODHEPBmT3vU20xF85J0LJixbxP25/7iOkWniBV4wQDtlx6Nmj1btGhRpUoVw98mevC71Q/tm+nevTteDx8+fOrUqS+++OLy5cvXr18/efIkdjLbhcAeatwKtzp1MmeEkmsqW9XhzyJZu3Yt2+WEz6CU4iEoCSSghw4dmj9//lNPPYX147ZRZDBT3mlMKuPVs869e/eWLVuWbdxJ1Aa5FM/2tMG/zty5c7/xxhvME0FfeNM5cODAqlWr0rd30UjhwoV79erFP5FBm9jpATpdCum0r6MIb8Sq74goxBXbCOLK79S+VOqPP/6IZIJZ33pi4a+Euo+4TugXv3sgvZBbHBtx1BkWGUDajtU4QmVm7kAAwY8h4MGejqi3mbrmJfNYMGPfJuzP/cV1ik4RK/CCAdovPRode2KBgynMf5voze+3bt1CWobkDCkaZlGka3v27MGdBu6Q586dO3LkyOHDh2OORW6ALjds2BCTbalSpfLnz58tWzbsER88TljZjeNW512dzMElf//9d3Jy8qZNmyZPnty1a9dy5cphv/2jScRnkUQnKK1w6+xdu3a1b9/+/vvvz5AhQ65cuXLkyHHbHNYwU95pTCrj1bPORx99dMOGDWzjTrg9b1/ePXSugcjZ0wzT4RI610pnnjx5Xn/9deaJoC/c6kScY2bBREM7n3zySTRy8ODBp59++r777jtw4AB2ok2uRB37U0gn6oQFsU0ziCjEFdsI4srv1D6/igimOCQTzPrWEwt/JdR9xHUaxoX0Qm5xbMRRJ1oIF6xFAZtxxMwdCCD4MQQipJOd7ISVTjMe/M6kuITONUA6zWPBjL1O8RKiTuaS4CigCrxghlegTZGI2hMERTHMf2an3mYYdUIJs10I7GHHLHCr8+5N5vifpSCBQxqHZA4pHRI7pHdUAeDol19+yTZCYCfqU74f6aC0R6XNK1eujBs3Dnf86dKlu/feezNlytShQ4c+ffr07t0bi3rHjh1r1KhRsGBBdKpw4cLffPMNnXXbLpFJ5jA1169fn22Y4PYUr6iI1SnhtSdh5Xc/sq105suX77XXXmOeCPrClc63334bp9BfWgHcqmbOnJknDdu2bcNR1EGbfsRLkerEKQTbDiLakx22aNmm74grRBfbcOl3upz0ov/5z3+QTDDrW08s/JVQ9xHpXLduHe7maQ8hvZBbHBtxqxMNcmi/AXYsCNtljc04YuYOBBD8GAKOOlUuZ0D9FCudZtzaE4RROddpGAtm7HWifX4JUSdzSXAUiFAFYC6LezgRtScxPIj06upthlEnlDDbhZBqE3Gr825M5g4ePMi2nUifPj1/P4OzevVqNPLAAw/MmTPn9OnTbK8TnoPSBsc2kZhCaq5cuVq1ajV27NiRI0fWrFkzISGhZcuWo0ePXrhwIdby48ePf/fddwUKFKhateqRI0foxKCdIpLMlS5det++fWzDBPe7eEVFrE4Joz05VvHpR7aVTrgGKz3zRNAX6jqxEKI+cjWUkcAhjTN/wE3Z3htvvOFHvBT/9jRj0ybiCtHFNlz6nToi7Q605c2bl1nfemLhr4R630lniRIl6C1SjvRCbnFsxK1OFfz7HbKZuQMBBD+GgGObHsylfkpY4tMAt2cYlXOdhrFgxl4n2ueXEHUylwRHgZRdu3bhldfnrwYiak/itpogbFvAf3yaUYlPZrsQUm0ibnXGczJ3SvZD++ogk8Or+Z05Avr79++fMWPG9u3bT58+HRPxpUuXrl69iiuyGnfiOShtcGwzKSkpbdq0f/31FzqC+/6pU6cePnyYHbsTZHJNmzbdtGkTbQYNEP5kDgml+Se8RLjfxSsqYnVKGO3JsYpPP7KtdBYsWHDNmjXME0FfKOqkLI0yuQULFqD85JNP0iEDVBOwbWXsT/FvTzP2bSK6EGNUduV36oi0O99++y3u3Jj1LaZg8+nqfYfOyZMnd+/enW2HkF7ILY6NuNLJSk749ztkM3MHAgh+DAHHNj2YS/2UcMWnCLdnGJWLOsWxYMZeJ9rnlxB1MpcER4EZqkOVgXkPJ6L2JLAoP/zww5MmTWLbAv7j04xKfDLbhZBaRsStzjAkc0eSVN+dEsGFodWK8+fPs5ITFy5coILBWGnSpMEekDVrVtzYlSpVqlKlSnXq1EHK8vjjj/fr1+/5558fP378zJkzFy1ahJu/rVu34m7m6NGjn3zyyZkzZz788MNevXodO3aMGrcCNTHXDBkypHbt2kWKFBG/hcZqhOA6HUlOTmYlJxzbfOWVV7JkyYKUrkqVKszuFrRr165Dhw5z5syhTeoCM2UogSBQpgpudc6bNw9ewJCjnVK43+kqrhBFioTRnhyr+PQj20pnoUKFVq9ezTwR9IWKTnqnjTI5ytXsf156ypQpfsRL8W9PM/ZtIroQY4g0lF35nfou7Q7uCfPnz8+sf+dY4JhPV+87LF+iRAncbbLtENSmT6RqRdR1RnkcMXMHAgh+DAHHNj2Yy9E4nHDFpwi3ZxiVizrFsWDGXifa55cQdTKXmJI5JutOaD9e6XSRiNqTGDNmDJK5oLrYhWm1wO04iud35mg/x5C528DbdMSsM+gjSXCrtxlGnaNGjUIiu2TJkgEDBrBdFgwaNKhr166JiYm0Sb1gprzTmFTGqyudBw8eTEhIcPxUmttTvKIiVqeE0Z78IW1W8elHtpXOokWLrly5knkilEywYxZAIaqJmVzLli3pkBSqQ/VdwcVLUY95D+PdCsQYIg3x5srv1BFpdy5duoRkgllfNrEA8+mKfccNZKZMmaTjQnohtzg2ou6jMI4jjs04YuYOBBD8GAKObXowl/opfuKTTxpsOwS3ZxiVG3TyscC2Beztifb5JUSdzCWhZI7vp4IB2i89GsbxzjHE59SpU5HMiTNnrGFlN47bcaSTOQlujSiC65ovDTwHpQ2ObXbr1g2DWTGZa9q0Kf8MlHrBTHmnMamMV3Wdu3fvzp8//5YtW9i2Ndye4hUVsTolXPYUH9L26aefsr134ke2lc5ixYrh0swTQV84+h2LB3SiQFma/S/8eM7kgH1//YwjK1TaRKQh3jZu3Mi2nUCb1BFpd3B/XLhwYWZ9iynYfLqKznPnzuXOnXvp0qVs+06kF3KLtJGbN2/u2rXr2rVrKKv7KDrzJwHZzNyBAIIfQ8CxTQ/mUj/Fc3xOmzYNV5E+2ZHbM4zKzTppLLz//vtsO4S9PdE+v4Sok7kkOAp4BV4wQPulR8M73glDfE6aNCn235ljWi1wO450MifBrRFFgj6SOMlzUNrg2Ca9M6f4MWu/fv0i8c4c7gvz5ctHvx3uCLeneEVFrE6BTqubYwM29hQf0oapef78+Tdu3KBDIn5kW9kTqdiyZcuYJ9SSOfQU1eB3vAKSLcVPJgdwLivJ8DOOrFBsE/GWJ08exT91QpvUEWl3vvzyy6JFizLrhy+Z++CDDxBIr776qpXfpRdyCxoRQVb01FNP5cqVq1ChQthcuXKluo/CNS+REhuoDjN3IIDgxxBw1EknusLmFMOM4SE+d+7ciWTi8ccfJ7vB12iQDhHcnmFULtWJsYB8zjAWVHxEZVEnc4kpmfv999+pLEIVeDWRsI93YIjPCRMmwP4zZ85k2wLqbYZRJ+zAbBdCahkRtzp1MifBj7NxXfOlgXqbYdS5evXqLFmyKP4BRM+ePW2+M0f7AZXxqqITq0VCQsKqVavYthPcnuIVFbE6hf7whW6OcaPM9sqQ2tPwkDb6blnatGkzZMgwYMCAr7/+mvYTfmRb2bNUqVJLly5lngj6QiWW4HqIROVZs2axXSZ8ZnLAvr9+xpEV6m0uXLgQsYcIZNvWoE3qiLQ758+ff/DBB5n1LaZg8+n2OpGgIH7oATFWfpdeyC1iIzdv3rx48eJjjz1GOz/66KN7771X3Z7hmpds+vXbb79hvkIBdZi5AwEEP4aAo04P5rI6he6FxBnDVXzCUMjhkEkgn8MemjFAkSJF+vTp89VXX1FNbk8cooI6VqdY6dyyZYthLDj6iF9C1MlcEhwFvEKrVq1o0wydRdVEIjHeDfFJAgDbFlBvM4w6oYTZLoRUm4hbnXGVzMUOJEnEc1Da4Ngm/TUrCn/88cfevXvHjBlj82iSdu3ahfevWceOHVuuXLnTp0+7DUogXlER6Sn79u1DKkaHIFicZM2YdcI4OJc/pI3mZbyijIVn/Pjx2BSTIakGe/gpVvYsU6bM4sWLmSeUkzmiaNGiWL/Zxp34z+SAfX89+N0R9TZhT8QeItDmb/oItEkdkXbn3LlzDz30ELN+OJK5oUOHVq5c+eOP2bRp5XfphdxibuTnn3/GTnorBQV1yzuOd469j2z6hRPz5MmDAuowcwcCCH4MAUe/2zRrhfQUzBh16tShQ3zGwK0RHXWEZgx+08hnDMqkJ0+ejE0adNyeUhn2WJ1i403DWHD0Eb+EqJO5JJUkc/zVgHqbYdQJJcx2IaTaRNzq1MlcRCBJIp6D0gbHNuk5c5kzZ8Yw7tWrF+5xDxw4cOjQoUWLFo0bN27QoEGdOnXiDw2uXbt2uJ4z9/rrr5cuXbpz585YObDpNiiBeEVFzKcgacuUKdPMmTNxiD+Vw/Dxh4hBJ8RjFVm3bh1tipkcx5AS+ZFtZc+yZcvCX8wTLpM5dFP6q9thyeSAfX89+N0R9TbJnnAi4hDRaPMMVbRJHZF25+zZs8WLF2fW95fMbdmyBXdTCEXxM3orv0sv5BZpI5gQ1qxZg0KVKlUcf/eJYzPeDdj7yKZfX3/99YMPPogC6jBzBwIIfgwBR797MJf5FJoxZs2ahUOAJg3sLF++vHTGMIMZ1ZzJ0SbBhx5vDZtUUMfqFPtxJI4FRx/xS4g6mUvuTOZQiLWPWW+LC5EjR45ixYrVr19/1KhR27ZtQ/qi3mYYdUIJs10I7GHHLHCrM66SOWakIGZLhWsyEjHrxHXNlwbqbYZX5/Xr1zEbNmrUKFeuXPfdd1+hQoVKBilQoAD9Zhxmn9deew3VwvILEFgbHn30UYwc3OCyXZ7sKV5REcMpSMKwh2SYn5dLX0w2dMGgs2PHjmPGjKGydF4mxMTIoEEFfoqV37GQLFy4kHki6At1ex47doxr44iCfWLfXw9+d0S9TdGeCAPEJCJTmrugTeqItDvJyckYL8z6FlOw+XSDzq1bt9aqVatOnTrbt29nu0JY+V16IbdIG8FyTo+169+/v+KXWYGVTjP2PrLp12effYbbThRQh5k7EEDwYwg4+t2DuQyn0LjgE5dh0pDOGAYo7aOy44zBP/Q0yFDB6hSVcURjATcVNnk82ueX4F3GHuaS4CjgFXjBAO2XHo30eOfcunXr6tWrly5dOnDgwPTp09u3b5+QkNCzZ0/FvEdd53//+19UPnny5O7du5cvXw6/DxgwoG3btlWrVs2fPz+MoH+b1RneYZiGGSmI2VLhmoxEzDpxXfOlgc+glOJW58cff4ybzoYNG2KSws1Ku3bthg8fPnjw4MaNG5NsA8yUdxqTyngVdX700UeTJ0+uXLky5j76JpCIB3uKV1REPAVJWJkyZY4fP862g0AbOs7lYXbG3TaVCVEnWkAyR2Wcgsal8zLB0yM/sq38XrFixVdeeYV5IugLV/bk2miPYdMn9v314HdH1Ns02xN+RAwgShGriFi2N9gmdUTanTNnzpQqVYpZ32IKNp9OOjHi5syZU7t2bWRyyOfokAErv0sv5BZpI8jk6OcBli5davUcaTNhmZegx6ZfcEr16tVRQB1m7kAAwY8h4Oh3m2atEE+xGhfipGGeMQzwr3Cozxgo+1Quoj6OlixZIh0LBNrnl+B+xx7mkuAooAq8YIZXoE2R6Ix3KZcvX0aXH3jgAQhz/PRc1Hnz5k1siulav379kBZjJc2aNStaS5cuHV4Rq3jFUdRBTdTHWbAwdjLbhcAe1rQF6n0nnTqZk+DWiBzcWeK6BNsVIuxBCTzrBLjKjh07aHrCHMRE3wkz5Z3GpDJeX3311QULFrzwwgslSpRA5jRq1KgPPviA6hjwoFO8oiJ0ys8//4wkDNAnvAawdKEan2QN35/jOtetW4ce8RYwmzuueTQ7kwZX8FOs/P7II4/Mnz+feSLoC7f25CsHL9BR/9j31098WqHeppU9EaWIVfgXcYvoRQyvWbOGOiLtzqlTp7DsMetbTMH8dMza+/btw1qOYVWwYEHkTEOGDMFAo2pSrHRKL+QWaSPoL0IahaSkpEqVKtFOR8IyL0GPTb8OHz5MP1CLOszcgQCCH0PA0e82zVrBT7EfFzRpUD5nmDFExFRPfcY4e/asH+UG3I4j81igb1GjfX4J7nfsYS4JjgIRqmCA9kuPRnO8m0GbdevW7dq1q5VyDtfZuXPn2/00Ubhw4SZNmsB0b775ZnJyMv+VKTpLBDuZ7UJIq4mo95106mROglsjclq0aEEhYr56hIKSlZzwaU+xO8HO3aZ58+bPPffc7Nmzz5w5w45Z4EEn2qeCOjhl7ty5mJj4Z6NSkMmhJuVzmJcxO9N+QDrpb9n4u3pYyAGV7RkwYIA32VSw8nuVKlXQL+aJoC882JNWDhDGTA6gQVaSEdH4dMRxHCFuEb2I4TZt2pBxADsmgPysXLlyzPoWUzCdC6pVq4ZxgUX9pZdeUhzIVtXQGiv5QNoIRTgKmMrVrxKWeQmXs7kigrN169YooA4zdyCA4McQcPS7TbNW4BRcEVCB7ZWBzIzSX8OMwSGTkonUZ4xXXnkFeao35ax0J57HER8LyFpq1KiB9vkluN+xh7kkOArMUB2qDMx7OCky3jlDhw7t0aMH8rnFixezXRaI65HK38UD1JR2GTuZ7UJIq4mo95103nXJHEad4yPH0KZKNSDqxB0kkjmAAtslEImgdOtsFaT2lIZdRHU6BroZmpSHDRvGtq0R8zmsu7ilpv2kE34vGXziLuCTuCMqS4IU3lMreyI/ePnll5kngr5QsSeqmfEgzwarnyHmRDQ+HQlXfCYlJZUvX55ZX2EKJvzrVLyQPdJG+DtzycnJuPmhnY6ExZ63o9C6X1u2bOnWrRsKqMPMHQgg+DEEHO1p06wVNGaByrjgKZo4Y3D4pKE+YwD/k4aBiI4jXJS5JDgKpMTOD+1bsXv37sKFCycmJiKfY7usMa9H9Oh4KfTQAypTZRHsZLYLIa0mot530hm3yRz/bVbPYHDi1T6f4zrpA9bRo0cjmaM9BsIelMCts1WQ2hNl2ikSUZ3SKzqiPjnyfA69QIG8TDpRxh7yPqCPV+zxPCkDnEgFK3viRnnOnDnME26SOVaKGBj7efPmZRsyIhqfjoQrPo8dO1ahQgVm/bhI5vh35jZt2tS+fXva6Ui47GnTr3Xr1vXp0wcF1GHmDgQQ/BgCjvb0Zi5XI5c+PBVnDA5NGoTKjAHCMmkYiOg4wkWZS0zJHFUA5rK4h5NS4/3q1atFihSZMGECXlFme60xr0coSJ/Bjp28v1QwgJ3MdiGk1UTU+0464/mdObPRsZO/6WLgr7/+wi340qVL+/fvX6VKFdQEWKtwy8VqyOA6kcMhk8MpyOpojwH/QUmSogkzpUXYhWtyFzEPHreoT5GUz6GAkCAvc52YmrEHA97qIW0ifiZlwHtqZc/atWvPmjWLeSLoCxV78mYjR3JyMrIctiHDg98d8T+OzNi3efTo0YoVKzLrK0zBhH+dYfGgtBH+16yTJ08eMWIE7XQkXPa06deSJUueffZZFFCHmTsQQPBjCDja07O51Mcv/VkDCnzGEMGkUadOHelPDpgJ16RhIKLjCBdlLgmOAq6BFwzQfunRlBrvPXr0SExMLFy48O7du9kuW8zrkVVnAe+vtA52MtuFkFYTUe876QxDMnckyeHX06XgwlBgxblz51jJifPnz1PBYCwrg0r3S6Fc+9NPP6X2pZBOpAXNg/APWOmoCNfpyJkzZ1jJCfU2fdoTZdopElGd6m4yozhR3rx5E9VKlCiBV/KyQefjFg9pE/E5KQOcTpezsmeNGjWwQjBPBH2hYk9UYxeIGAcOHKhXrx67noyIxqcj4YrP7du3G5I5dsAW/zrD4kFpI5lDz5nr3LnzvHnz2PWcCJc9bfo1Z84cJHNUh5k7EEDwYwg42tOPudRHMaoR0nVh48aNCQkJ/OEmVoRx0jAQ0XGEizKXBEcB4GKoYID245VOF4nCeCcNgG3/f//f9OnTkW3jNqZ///5slxPm9ciqs4D3V1oHO5ntQmAPNW6Fet9JZzy/M0f7RbCT73f88BugTAUroNPxA1YivHcYhNvMXQWpPaV2iKhOR8vbozJdXrx4sUiRIrjD5p+YGHR+9dVXaMTwfBMR/5My4D21sicSphkzZjBPBH2hYk/ebOSYNGmS/d+aRDQ+HQlXfGKmqly5MrO+xVgw419nWDwobQQ76Smv5cqVs/p9PzPhsqdNvxBR9E1W1GHmDgQQ/BgCjvb0aS7FsTxr1iwkBIbPWEXWr1+PdqI2aRiI6DjCRZlLgqOAa+AFA7RfejT64x2pHpSMHTu2bt266m2a1yOrzgLeX2kd7GS2CyGtJuJW592bzKFg/+E34AUroNPxA1YiXEEp4iEoHZHaU2qHiOp0tLwjjpPm5MmT6Qs6HLNOwzNKRMIyKQPeUyt7NmjQYNq0acwTQV+o2NO/AR2pXr26fSoQ0fh0JFzx+d5771WpUoVZX2EKJvzrDIsHxUbEX5RKSkqiAL58+TI77ES47GnTr8TERPp5aNRh5g4EEPwYAo72tGlWEccRvW/fvkyZMtm/8Qad0Zw0DER0HIlOQZlroLIUOkrVRKI/3pHDIZODGGR16m2a1yNpdwjeX2kd7GS2CyGtJuJW512dzFHBjEodAveRSOaA9C9YRcIVlCIegvLLL7/cuHEjZkzMm126dKlWrVquXLluG0UGM6WFMSOqU3pFt9hMnXSI/+g1IdUpPj2YE65JGfCeWtmzUaNGL774IvNE0Bcq9uTNRohvv/02d+7cbMMCD353RL3NcMXnwYMHMUyY9RWmYMK/zrB4EI2IFCtWDDcws2bNSps2LTYRwNG3J67LSiagbcmSJSigDjN3IIDgxxBw1GnTrDo245oO7dq1i21bQDqjNmkYiOg4wkWZS4KjADhmD+I7IyJRHu+jR48Wn0Wi3qZ5PZJ2h6BDeJXWwU5muxDSaiJudepkToJKHaD4ASsRlqA0oNImvPXaa6917dq1fPnyuK1MSEjIkCFDzpw5s2fPjk3oh/j169dfv34dZdy701koA2ZKC2OGVydhHjw+kU6gVrOqlU7My+LniVane4P31MqeTZs2nTp1KvNE0Bcq9uTNRohRo0YNHTqUbVjgwe+OqLcZrvjcv39/jRo1mPUVpmDCv86weNCxkejb00ZS586d1wV/Chl1mLkDAQQ/hoCjzrCYC0hHt/qQ5zqjM2kYiOg4wkWZS4KjYPbs2Xh1JE2aNHS6SDTH++7du4sUKSI+i0S9TfN6hIL9B3q3+yzzDnYy24WQVhNxq1MncxJU6gCkQSofsBL+g9KMY5v0Q/tI4HBH3qZNmxkzZhwKIv2h/QIFCnz//fd0IjYBM6WFMcOok2MePP4xTKM2s6qVzp+FX9y3Od0bvKdW9kSYTZ48mXki6AsVe/JmI8HXX3+NOZpHixXe/B47kKS9e/fWrFmTWV9hCibU+27ld8UL2ePYiH+dZmzavG1Wa0nNmzffsmULCqjDzB0IIPgxBBx12jTrFsMYdzXkuc7oTBoGPKybjnC/46LMJcFRoA6dLhJRnSLSZ5Got2lej/Rz5iSk9mSOHhEs/gWrPT6DUopjm8eOHUubNi0Kf/zxB9Yk3CliWUJu17JlS6ShCxcupB9v+e6775DJVapU6cSJE3TibTPFSzIH+GTKC+zAndjopJ+4od94sDrdG7ynVvaEsyZNmsQ8EfSFitqBYXIAAGXFSURBVD15s5Fg8ODBuBlgG9akuN/9wJX8+9//rl27NrO+whRMqPfdyu9hMYVjI/51mrFpE3psJNWpU4cGF+owcwcCCH4MAUedNs16gE8UVDA/iMQKUWcUJg0DHtZNR7jfcVHmkuAoAI7ZQ4p/zErPIkEmJz6LRL1ND/NS0DCSytjJbBdCWk3ErU6dzElwrMM/YG3UqBHb5YTPoJTi2OayZcuyZcv2119/QW3Dhg2nTp1q9Y31qlWrNmjQgP+IJOoDZkoLY4ZRJ0ccPI4/MOAKmpT9E95JWeyjlT1bt249ceJE5omgL1TsiWqsFG5WrlxZvnz569evs21rvPmdCikOVwKbI8kg4wNFhf7He1hM4diIf51mbNqEHhtJuJ+kCQp1mLkDAQQ/hoCjTpwSmzMGiNykYcDDuslhWi2gCswlwVFAO+1PpKNUTcSPTivM8bl48eK6desin8NKzXYFUW9TnJdUfs4LWU2w35IuYyezXQhpNRG3Ou/qZE6qQeWvWfkHrO+99x7b5YSfoLTCsc3nnnuucOHCSUlJVapUYbssaNeuHW5/+W/VoWuAmdLCmGHUyeF+z5s3L0KLylFD2s2Igj7yH1GwsidcM378eOaJoC9U7BmhvmCtzZgxo/RbI2Y8+D36LrCCK8E9PZYEZn2FKZjwP97DYgrHRvzrNGPTJvTYSCpZsuRHH32EAuowcwcCCH4MAUedd8mMAcRJw4CHdZNj0xc6JDoFZdrJj5qh/dKjfnRaYY5PXLpbt24YvGw7hHqbXKfVD+2b6d69O14xT2KS/OKLLy5fvoz73pMnT2Ins10I7KHGrXCr825M5ugpQTbf37R/zhx9wApQiE5QWuHYZtu2bTHslyxZMmDAALbLgkGDBlHSQJtkB2ZKC2OGUSeH27NChQrJyclUjhrSbkYU8UcUrOzZoUOHcePGMU8EfaFiz0j0BTNUunTpFixYwLad8OD36LvACq5k586d9erVY9ZXmIIJ/+M9LKZwbMS/TjP2bdpIKlSoEH3/GHWYuQMBBD+GgKPOu2TGADa/vOJnPbLpCx0SnYIy7eRHzdB+6dFIr5u3xYU4c+YM2xtCvU1R561bt5CWITlDioZEDZPhnj17Nm7ciGxh7ty5I0eOHD58+MCBA3v06IGLNmzYsGrVqqVKlcqfP3+2bNmwJ02aNMx2IbCTNW2BW513bzLnyIbQj7cYwM4uXbo0b94c5UgHpT2ObSKwSpcunRqTuSZNmhw4cIDKUUPazYiCPqKnVLayJ24Kx4wZwzwR9IWKPcPel1WrVmXMmHHz5s0R9Xv0XWAFV7J9+/b69esz6ytMwYT/8R4WUzg24l+nGfs2bSTdf//9X3/9NQqow8wdCCD4MQQcdd4lMwYQJw0DftYjm77QIdEpKPOdVDDDK9CmSBTWTZurq7cZRp1QwmwXQqpNxK3O+EzmkC9LLYWdtP/vv//G/c2aNWueeeYZzNQFChSgQwaefPJJOlFk9erVOISMe86cOadPq/6UmeegtMGxzcmTJ+fOnTs1fsyKGXzSpElUjhrSbkYU8UcUrOzZtWvXUaNGMU+kRDKH9XXw4MHly5enT1cj6vfou8AKrmTr1q0NGjRg1tfJnAL2bdpIypo1K52LOszcgQCCH0PAUeddMmMAcdIw4Dn5QEds+kKH8MpcEkrmOFQNmMviHo5nnTYY4vO2rCBsW0C9zTDqhBJmuxBSbSJudcZnMvfCCy8ULlwYO2/evPn9998jm8Ht9aJFi9q3b49qmTNnxmuaNGnSpUuHe8GHH364bdu2o0ePRgVUQ+UzZ87wJ65ZAf39+/fPmDEj2pw+fTruli5dunT16tVbt26hccDqhfAclDY4tol1KEOGDOp/ALFz507apC4wa6ZEMged1atXp3LUkHYzoog/omBlz8cee2zkyJHME9FN5r799ltcGiNl3Lhx/C8eIur36LvACq7krbfeatSoEbO+TuYUsG8TknLmzFm2bNkWLVoMGTJk3rx5sPCHH36IYEufPv1vv/1GdZi5AwFEIIaAo867ZMYANr+84jn5QEds+kKH8MpcYkrmOLt27cKr4SzaFPGs0wZDfDZt2rRUqVLvvvsu2xZQbzOMOmEHZrsQUsuIuNUZz+/MlSxZEq8FCxZE9Hfs2LFXr14zZsxAxoa87ejRo9euXaMTzagb8eLFi9u2bcO9Y/369YsVK5YjRw5cEWmT2U/qbYZxsUR+CSXQNnbsWPQd02JqeTQJyJ07N+Z3thEVpN2MHIYfUbCyZ/fu3YcPH848EclkDvchGM7Jycm4M8HdP0YN5A0dOtTwPLmI+j3KLrCBK9m0aVOTJk2Y9XUyp4B9m7hPRuQje0MON3ny5GHDhnXt2rVWrVqFChXialFg5g4EEPwYAio6437GAIZJw4Dn5AMdsekLHcIrc4lFMsdrEuY9HM86bTDEJ27AkMwdPHiQbQuotxlGnbADs10IqWVE3Or0m8z997//PZKk+lGjCC4MrVacP3+elZy4cOECFQzGwibyNrEdrFKs5ARv0xGDTvQL1wVsW0C9zTDqhHcgBkltlSpVENn33nsv0s3evXs/9dRTeEV2ixxX8aHBrEWBSNuzf//+mMdJT3RAN1kpKiC3HjBgAOuttT2x1GHBY54I+kLFnrf95548efKUK1euQYMGzz333M6dO1lbdxJRv0MDs05KAyUkaenSpYZkjvbb43+8h8UUjmr96zTjbbyLQDYzdyBA2Z5Km3E/YwDDpGHAyp5mDPZER2z6gkNUh7kkOApEWL07of14pUuIeNZpgyE+69atW6JEiaC62IVptcDtOPKczCFPuJ0q4H9q+QOIiL6jwAn6SBLc6m2GV+eNGzdwE/ziiy8++eSTpUuXzpQpE7K6ihUr4jVfvnyk1gpmStPQlcKuJ8ObPZFZpkmThr4QHR3sexFezD+iYOV35NzPP/8880QomWDHnAjjnSUnouMomi6whyt5/fXXmzVrxqwvm1ik+LdnWEzh2EiM+N0AZDNzBwIIfgwBlTbje8YA5knDgJ/xbtMXOiQ6BWXayY+aof3So1GYl+rVq4dkbv/+/Uxx7GFlN47bcaSTOQlujSiC65ovDTwHpQ0edF69ehXxvWzZskmTJuFGtk2bNlWqVMmfPz/JNsBMeefQlWJ/1LM9x40bN3jwYLYReex7EV7MP6Jg5fc+ffokJiYyTwR94Sc+rYiR+IymC+zhStavX9+8eXNmfYUpmPBvz7CYwrGRGPG7Achm5g4EEPwYAoptYkw5/uV+GAmLj9Rx/OUVP+Pdpi90SHQKyrSTHzVD+6VHozAv1a1bt3jx4rdVxjBMqwVux1FcJXOxA0kS8RyUNrh1tgqiPdnATblk7vr16+XLl1+1ahXbjjD2vQgj6JH5RxSs/N63b9+hQ4cyT+hkLlpwJWvXrm3ZsiWzvk7mFPAfn5DNzB0IIPgxBBTbxJgqXbp0/M0YQDppGPAz3m36QodEp6BMO2n/77//TmURqsCriURhXqpdu/ZDDz304Ycfsm0B//FpxrFN2IHZLoTUMiJudcbtO3MpBWRIneQ5KG2IaFCK9rTqFMf+qB+dp06dypgxo9Vfb4UX+16EC/RF+iMKVn7v37//kCFDmCeCvoio3x2JaHxGxwUqcCWrV69u1aoVs77CFEz4t2dYTOHYSIz43QBkM3MHAgh+DAH1Nnfs2BFnMwawmjQM+BnvNn2hQ6JTUKadAKODNs3QWVRNJArzUs2aNYsVK3b8+HG2LeA/Ps04tgk7MNuFkFpGxK1O/c5cRCBJIp6D0oaIBiV6wYJOLZmzqeBT5+bNm9OlSxeF2dm+j2EBvUBf0CO2LWDl90GDBj3zzDPMEyFfqMNacSJG4lNdcKThSlauXNm6dWtm/egmc2GBNWdBjPjdAGQzcwcCCH4MAVc642nGADaThgEP8zzHpi90SHQKyrQTxGYyRwIA2xbwH59mHNuEEma7EFJtIm51xu07c2ZLRWcywnXNlwbqbUZz0jQjtadVpzj2FfzrxESGG9NIf3pi30f/QD96YTUpW/mdFjPmCQVfiKjXjJH4VBccabiS5cuXt2nThllfYQomYsSejsSmThiZmTsQoJsZtzrjY8YA9pOGAT9+t+kLHRKdgjLtpP0x+DGrzdX9x6cZxzahhNkuhFSbiFudOpmT4NnZn332Ga5LsF0h1Nu00snajSLMlAoJhH0Fz/YUOXXqVPny5QcPHhy5v1az76MfoFn8EQUpVn4fMmTIwIEDmScUfCGiXtN/fJrx4Hd1wZGGK1m6dGm7du2Y9RWmYCJG7OlIbOqEkZm5AwEEP4aAB52pesYAfNKQPvlWih+/2/SFDolOQZl28qNmaL/0aKTj87a4EDly5ChWrFj9+vVHjRq1bds2pC/+49OMY5tQwmwXAnvYMQvc6oznZO61114Tf4Y1CpNRixYtOnXqhEsDtiuEepsxMrmjC8yUCgmEfYVw6bx+/fq4cePSpEmDYRmJp4Pa99Eb0Gn+EQUpVn5PTEzs378/84SCL0TUa8ZIfKoLjjRcyeLFi9u3b8+srzAFEzFiT0diUyeMzMwdCCD4MQS86UyNMwYwTBpR8Ds6YtMXOoRX5hJhFuIFM7wCbYpELT5v3bp19erVS5cuHThwYPr06RjICQkJPXv2VMx71HUiEULlkydP7t69e/ny5VOmTBkwYEDbtm2rVq1KD4uAN5ntQljZjePW7/GZzIm/AJEtW7aCBQuWKVPmkUceadKkSceOHXv37o1bPYyTmTNnLlq0CDnfjh074OwTJ058/vnnuPTFixe/+OIL3BF++eWX1LgVos758+cjmatbty7/hVMRn0Epxa2zVZDaE2VA+6XYHw2vzu+//37o0KG5cuWqXr36pEmTcNuanJz8ww8/YNyyGl6x74UK5h9RgE7zjyhIsfL7sGHD+vXrxzzhPplTrBwj8anetUjDlSxcuBCTBrO+TuYU8K8TRmbmDgQQ/BgCfnTSjJE7d+4YnDGA4y+vRMHv6IhNX+gQXplLQrMQh6oZoP3SoykYn5cvX548efIDDzwAYatXr2Z7LRB13rx5E5tiuobIpF9+ypo1K1pLly4dXitWrIhXHEUd1ER9nPXRRx9hJ7NdCOxhTVvg1u/xmczx32bFOPnll1/QGrI05GqoM3jwYLyqkD59erza53NcJ33A2rdv3x49etAeA2EPSuDW2RzcrBw6dAjZ51NPPVWpUqVgdyUwa8ZYMkegzVdeeaV27dpw9P3330+/txsLQAn0QFWdOnWg0L/fR4wYgbhintDJXLTgSuDETp06MevrZE4B/zphZGbuQADBjyEQFp2xOWMAw6TB5IaIgt9JBtswQYfwylxiSuYIXpMw7+GkeHzWrFmzW7duUm0iXKfVH3nAZU2aNEG+8eabbyIdpxwD0Fki2MlsF0JaTcSt3+P5nTnaL4KdwPEPvDnI5wYOHMg2ZHCdLVq0QJ5epEgR5Em0x0CEgpKVnCCdu3btat++PWaNDBky5MqVi35J1gZmzRhL5u62d+ZGjx6NnJt5Qidz0YIrmTdvXufOnZn1dTKngH+dMDIzdyCA4McQ8KNTvzNnxtAmOmLTFzqEV+YSi2QOxM4P7dvQv3//Pn36WH2GJiLOSwsWLKCyPagp7TJ2MtuFkFYTcev3+EzmgJVBpfutQGWVd+bmz5/fuHFjZHK7d++m/WYiEZQqbV65cmXcuHFlypRJly7dvffemylTJtyRzJ07F1LPnz//zz//sHr/93+4yfjmm2+oTIZiplRIIOyPug1KK/g3YEaOHJmKvjM3atQoP9+ZGzt2bO/evZknFHwhol45peKTECdNKqQ4XMnLL7/cpUsXZn2FKZiIEXs6Eps6YWRm7kAAwY8h4E1napwxgGHSiI7fbfpCh0SnoCxC1YC5LO7hpGB8vvHGG1gNhw8fbvUZmoh5XlqxYgXKUnCIagKqLIKdzHYhpNVE3Pr97k3mZs+eTZtmyCsAZSpYAZ30AWvr1q1x+8j2ygh7UALHNv/++29oy5UrV5s2bTZt2nTjxg3s/Omnn3bs2DFr1izc/HXq1In/0H7t2rWPHDlCJ2ITMFMqJBD2R90GpZS79q9ZJ0yY0KtXL+YJBV+IqNdMkfjkiJNm7ECSXnrpJdz/MOsrTMFEjNjTkdjUCSMzcwcCCH4MAQ869V+z2mC2p01f6JDoFJRpJz9qhvZLj6ZUfF64cCF79uwzZsyw+QxNRJyXeEE6h2Mn7y8VDGAns10IaTURt+MoDMncB8dVP7UUwYVhfSvOnDnDSk4kJydTwWAsK4Py/ShIO8+9AlCgxq2AzgYNGnTu3LlatWrYpLMAHRXhOh05efIkKznh2ObWrVvTpk0LPX/88cfevXvHjBlTs2bNhISEli1bIvVcuHDhtm3bjh8//t133+XLl699+/ZI+Ej/bTO5TObYJWWo993K7wsWLMiQIQNPsiOEfR/9s3LlSvQCfWG9uhMrvz/77LM9e/ZknlDwhQhqslacSJH45HgY70DdDsDGFPY6R4wYYUjm2AFbUqM97YmmThiZmTsQQPBjCLjVGR8zBrCfNAz48btNXyjmRaegDPhRKhig/Xil9kWiEJ+kAbDtIPXq1Zs0aVKhQoWWLVvGdtnCdTp2FvD+SutgJ7NdCOyhxq1wO47u3nfmpBUIlTrElClT6tSpg2qwJttlQXjvMAjHNlevXp0lS5Z//vkHChs2bDh16lSrp6JXrFixd+/ec+bMoU3UB8yUCgmE/VG3dxgGNt/dvwABrz3xxBPMEwq+EFGvmSLxyfF2p67eO2BT2V4n7uMff/xxZn2LicVMarSnPdHUCSMzcwcCCH4MAVc642nGADH+CxC8YID2S4+mSHxOmDChc+fOPXr0SExMZLuc4DodOwt4f6V1sJPZLoS0mojbcaSTOQkqdQB9wFq5cmXH71GCMAYlx7HNUaNGFShQ4OzZs2XKlGG7LGjWrNngwYN5lKNfgJlSIYGwP+o2KEVO3fW/zfriiy92796deULBFyLqNVMkPjneJnf13gGbyvY6p02bZrA/O2BLarSnPdHUCSMzcwcCMD6GgHqb+rdZVTDbE32xgSowl9w5C1FZCh2laiLRj889e/YULFhw1qxZdevW9RCfvBfS7hC8v9I62MlsF0JaTcStTp3MSVCpA1q0aNGoUSOV71GCcAWliGOb3bp1S0hI2LlzZ/78+dkuC4oVK9a6dWvcuNDmbTO5TOZsKngYPMT169fLly8f6d/k4dj3MYygR+iX4e8hrPw+ffp0wztD6jrVa6ZIfHK8Te7qvfvrr79YSYa9zn/96186mQPR1AkjM3MHAgh+DAHFNjGmSpcuHX8zBpBOGgYi6nfRKSgDx+xB/M6SSJTj84cffkAmt2DBAog5c+aMh/jkvZB2h6BDeJXWwU5muxDSaiJudepkToJKnfnz51euXLlQoUIq36MEYQlKA45tRvOdOZsKHgYPMW7cOKhiG5HHvo/hBf1C79hGECu/z5w587HHHmOeUPCFiHrlFIlPjofx/s8//9D3QVXAolKxYkW2YcJe5+TJkw3fWWQHLCCbu6VkyZK4m3r++ed37drFGjIRUXs6smHDhjFjxjRp0qRChQp58+Zlul3C2gphpRM1mbkDAQQ/hoCiToypAQMGsI3IY+5RRDFPGgYi4XerZM7mLwhF0qRJQ6eLRFSnmc6dO0+YMIE/i8TDOEJHDAUzdOh2n2V1sJPZLoS0mohbnTqZk+BYhz5gzZ8//9q1a9kuJ8ISlAYc24zmd+ZsKngYPOD777/HRBC5v0QzY9/H8IJ+oXfi8+es/I5J0/AFfHWd6pVTJD45Hsb7jRs3MmTIsGnTpp9//pn22PD000/36tWLbZiw1zlx4sQnn3ySWV9hClY0uAhG6Pnz5/fs2TNv3rwGDRrkyZNnyJAhuAdjh0NE1J5W8Ie0Va1a1edD2syWsdKJmszcgQCCH0NApe/xPWMA86RhIIx+51glc+rQ6SIR1WngpZdeatq06ejRo/lnaB7GEe8FCtIPu/l7kLc7LOsydjLbhZBWE3Gr865O5qQaxHeGecFAixYtqlSpgviIZlCacWwzKSkpan/NykoyPAwegCVk1KhRbCMq2Pci7IwcORJ9ZBvWfn/55Ze7du3KPKHgCxH1yikSnxwP4+jmzZuIZHqOP15Lly7dvXv3NWvWXLlyBa8oYw9/yn+mTJk++ugjOtGMvc5x48YZHg3DDljgWMERWHjGjBnQPHbsWPED4oja08z1cD+kzWwZK52oycwdCCD4MQRU+h73MwYwTBoGIroeiU5BGThmDyn+Mevhw4ezZ8++fPly8VkkHsYR74V+zpyEFE/mPD9nbv78+WXLlq1bty7KUQtKKY5t0nPmcubM2axZs1WrVv3555/YmVqeM5c7d+5IPOfTBvtehB30Dn1kG9Z+N/8CgbpO9copEp8cD+No165d9AOL27dvN2RvYm73+++/Yw8yEjpLir1O3AIZfoGDHbBA0eCOwCZ9+/bFIsTfTY+oPQ1gGQ77Q9rMlrHSiZrM3IEAgh9DQKXvcT9jAMOkYcCP39EXG6gCc8mdsxCVpdBRqibiPz7NmOclZCpYqSmTE5/n72EcSXshJdhvSWXsZLYLIa0m4lbn3ZvMObJhwwabRk6fPo1ydILSCpU2cTsyefLkChUqJCQkQHbGjBlbtGgxbdq0GP8FCCxg1atXp3LUsO9FJEAf+VJt5Xfzb4Oq61SvmVLxSXgYR9euXUPvbN5v47z99tv2drDXOWrUqD59+jDrK0zB6jZXYfPmzWjwrbfeQjmi9hTBRTFRhP3PCMyWsdKJmszcgQCCX+U3ju+SGQOIk4YBP3636QsdEp2CMu3kR83QfulRn/EpxTwvYdg+99xzPXr0MDzP38M4Qi9WrlxJZRuQ1aCmtMvYyWwXQlpNxK3O+Ezm7H+bFYW///47OTkZN+7PPPNM/fr1CxQoQIcMPPnkk3SiyKVLl3CnjmR/zpw5lNKp4CcorXDr7OPHj/fv379UqVLp0qXLnDlzlixZWD8tYNZMiWRuzJgxkyZNonLUsO9FJEAf0VMqW/l94cKFHTp0YJ7QyZzQJqbXe++9F32sUqUKAnvp0qVJSUmYnjC0N23ahHuYrl27litXDhWQz7FzZNjrHDFiRN++fZn1o57Mgffeey9v3rxIrSJtTyJyD2kzW8ZKJ2oycwcCCH4MAce+3yUzBhAnDQN+/G7TFzokOgVl2smPmqH90qN+dFphmJcwG9SsWXPx4sX0GZqIh3HUuXPn2x1WoHv37njF8Dl16tQXX3xx+fLl69evnzx5EjuZ7UJgDzVuhVud8ZnMvfDCC4ULF8bOmzdvfv/995jit2/fvmjRovbt26MafRaTJk0azFn333//ww8/3LZtWyTvqIBqqHzmzBmcSM1aAf1YP3D/ijanT59+4MABJHlXr169desWGgesXgjPQWmDh6Dk4Co7duyYNm3a448/DguQZgPMmqGhaw9rV4YHnU2aNIFJqRw17HsRCdBH9JTKVn5HWJqTOXVYK07EWnxaYW7zr7/+wpjF3I3xiKwOXUYChzRu6NChSOmQ2OHOjVW1wF7nsGHD+vXrx6yfEskcwGKAtHXv3r1s2wnP9sQKFLmHtJktY6UTNZm5g8kchoBjLN0lMwYQJw0DfsaRTV/okOgUlPlOKpjhFWhTxI9OK8R5KSiKYX6ev3qbok6s7EjLkJwhRcMwwRjZs2fPxo0bV6xYMXfu3JEjRw4fPnzgwIE9evRAOtGwYcOqVauWKlUqf/782bJlgwzkG8x2IbCTNW2BW53x/M5cyZIl8VqwYMHq1at37NixV69eM2bMwLyAvO3o0aPXrl2jE82oG/HixYvbtm0bNWpU/fr1ixUrliNHDlwRjjT7yVtQ2uMtKO2R2tPcHRBRnRUqVMAyTOWoIe1mREEf0VMqW9lzyZIl7dq1Y54I+iKifnck1pI5K8KlMzExEWkis34KJXNg7dq1ZcuW/e2339i2Ld7sibUqoo91NFvGSidqMnMHAgh+DAFHv98lMwYQJw0DfsaRTV/okOgUlEWoGjCXxT2cKIx3XBfZFWDbAupthlEn9DDbhZBaRsStzvhM5gA2X3vttStXrtBREJ1FCNcFbENAvc0YWSzRC2ZKi7CLqM68efP+8MMPVI4a0m5GFPQRPaWylT2XL1/epk0b5omgLyLqd0diJD4dCZfOIUOG4IabWV9hCo5cFFWpUkW6OJnxZs9xEX6so9kyVjpRk5k7EEDwYwg4+v0umTGAOGkY8DyO0BGbvtAhvDKXBEeBlF27duHVcBZtikRhvN9Wc8890guptxlGnRDDbBcCe9gxC9zqjOdkjvZzorMI4brmSwP1NmNksUQvmCktwi6iOnFFDw+ysoG+Be8f+29fuYU+lKeylT1XrlzZunVr5omgLyLqd0diJD4dCZfOZ555BikOs77CFOxYwTOXL19OkyYN/yslGzzYMwoPaTNbxkonajJzBwIIfgwBR7/jlNicMUDkJg0DnscR6WQbJugQXplLgqPADK9JmPdwojDeExIS0qZNK/2KhXqbYdQJOzDbhZBaRsStzjAkc0eSVP8IQAQXhlYrzp8/z0pOXLhwgQoGY2GT9nOSk5NZyQnepiNmnbiu+dJAvU0rndRyNGGmlBkTRNSeuCILlHBA8/KUKVPw+sYbb9AlzEh1oj7OoumY2gnv1IwG6UJW9nzllVdatGjBPBH0hZ/4tMJ/fJqJD529e/dGPsesbzEWRFCBuTYCjBw5sn///uxK1niwJ5odMWIEu0xkMJvOSidqMnMHAgh+DAFHv4fX7HykU4HeGlQBOsUZQ2yKNsMCGmTXuxPP4wgNAta6CbocXplLgqNAhNW7E9qPV7qESBTGe4YMGXBzgvyEbQuotxlGnbADs10IqWVE3OrU78xJ4G06YtaJ65ovDdTbjJF3PtALZkrT0JVCZ0nxoNO+QVeIk6n9xGrWaa5v34IHeE+t/L527dqWLVsyT4SmAHbMCQ9+dyRG4tORcOlEljNkyBBmfdnEYsCxgh/Onj2bPXt2tmGNB3tG4SFtZstY6URNZu5AAMGPIeDo9zCa3TDGXQ15QyZHuGpBBavOeh5HaNCqTUCH8MpcEloRxKNmaL/0aBTGe9q0aW9LjG2YVgvU+072jKtkLnYgSSKeg9IGt85WQbQnG7h3Dl0p9kc96LRvUB3zNGozsRp0WtW0acEDvKdWfl+/fn3z5s2ZJ5STOVTzQN68eStUqNCkSZMxY8ZY/UljiscnhEEeREIqBDPpbmBthbDX2bdv36FDhzLrp3QyB2rVqnXw4EG2YYHb8Q6TRuEhbWbLWOlETWbuQADBjyHgGEvhMrt0dCsOeZtqii0oYtVZD/M8x6pNQIfwylySGpK5NGnSvPfee0xuTGJlN45638meOpmLCCRJxHNQ2uDW2SqI9mRBl2qTOasJlPbv3LmTbYcQddI3ea0mX6uWPcB7auX3DRs2NGvWjHnCTTLHSsrcunXrhx9+SE5OPnDgwKRJk7C6586dG3mM4bcgUyo+IQNicuXKBWGQB5GQCsFuvylltoy9zj59+iQmJjLrx0AyN2XKFMcfrXI73qPzkDazZax0oiYzdyCA4McQcIylsJjdZlzToa+++optm8Ahq3MJm8bdYtVZD/M8x6pNQIfwylxiSuZ+//13KotQBV5NxI9OKwzz0m19MQ/TaoF638mecZXMsUALBI4ePbp9+/Zp06b16NGjatWq6dKlwyvusHfv3s1/oM0Gt0ZUwXNQ2hBRnaI9g4FnF3n2Rz3otG9QBfupc9++fZkyZcIr2w7CdUqPGgjX1Mx7auX3jRs3NmnShHkiksmcmW+//RZ5A+5xx40bd/36ddoZ/fgM74+Emi1jr7N3797PP/88s34MJHOHDh1q1KgR27DA7XiPzkPazJax0omazNyBALRhCDjGkn+zO47oyZMnI7NnGyZwCBXYhgVhnzQMeJjnOTYGpEN4ZS65c0Vo1aoVbZqhs6iaiB+dVsTIuokEA2nG8OHDeeKBJASpCBKSDz74AIOXWVBhJnGrMw6TuWPHjlGBA+POmjWrV69etWrVSkhIqFChwpAhQ7Zt22b1p+wRdbYjEQ3KL7/8EjPjnDlzEhMTu3TpUrNmzUKFCt0edjKY+VJhMqcyab766quGX/jgOrEfR6lsQ1imZt5TK79v2rSpcePGzBPRTeaIr7/+evDgweXLlz916hQ2ozxphv1HQs2WsdfZs2fPYcOGMevHQDJ39uxZGIRtWOB2XorOQ9rMlrHSiZrM3IEAgh9DwDGWfJpdZSxfvHixWLFibMMEDqEC27AmvJOGAbd+F7ExIB3CK3OJTubuBInEmjVrkFRgHCHBQJrx1FNPIeVA4sHsFeLo0aPvvvsulaWWEXGrM96SuaSkJLKUDUhl+vbtW7du3WzZspUpU2bAgAFvvvmm+FlS2J0NUioob9y4AVOPHz++Y8eO+YLkypULtwvlypXLnz//7QFnDbOXWjJnU8GDPe0vZ4/idDlq1ChUE59ESDqxB/sdP8ki/E/NvKdWfn/rrbcaNmzIPJESyRyxatWqjBkzbt68OZqTZiR+JNRsGXuduLHGfTazfgwkc1Br9Zgxjtt5KToPaTNbxkonajJzBwIIfgwBx1jyY3bFUXzz5k1UMzy+FGATO3HI8XeDiDBOGgb8rEdWbQI6hFfmkjtXBBRi8GNWG9TbtNGJhAFpA5IHpBBIJGrXro2kAqkFM5A1SOaOHDmCgtQyIm51xlUyp5LJGZg/fz780aBBg5w5c5YoUaJPnz6YuNEUkmvcjmMtsf9YJ8aDkmafsmXLVq9eHTGXNm1adBM3Dehm7969n3zySWR4NWrUKFiwIKoVKFCAZ7TYBMxGqSqZU5woN2zYgGr0riSfmqGTMjnajzq03x6fUzPOpYKV37dt2xYLyRw4fPhwunTpFixYwLad8OB3kQj9SKjZMvY6H3/88REjRjDrqyVzBuBBdiwc2DxmjON2XkKD0XlIGzscwkonajJzB5M5GNAxlsyNK+JqxgD0w0J80qAZg3ZOmTKFdjoSrknDgJ/1yKpNQIfwylxiSuaoYID2S4/60WlFhJI5sHXrVmQFSNfQFxSweiJVwEqKtAHJA1IIZhRlDh069MEHH1jZjeNKJ17jKpmrXLnyE088MWPGjD179jCzuWHhwoWDBg1CO/RAMvisXbt2+fLle/DBB7t37441DMkiXYvjQacjYQxK+k5u/fr1x40bN3PmzJEjR9asWTMhIaFly5ajR49GfzFLHj9+/LvvvkMmV6lSpRMnTtCJOAswu6SeZE59isycOTN9xopZGHfVtBM6UcYelHEUdWi/IxjSitc1w3tq5fcdO3bUq1ePeSJFkzmA1CpDhgz0easjHvzOidyPhJotY6+zW7duo0aNYtZXSOYIapMCEjfua9asof1hwVGD23kpvNFCvaZZ1H5QWOnEiczcgQCCH0PAMZa8dYGkqoxcPmMAcdLgMwb1Vz2f69+/v+KlzVh11s96ZGNAOoRX5hJhReAFM7wCbYr40WlFGNfNM2fOLFu2rHfv3sWLF8+dO3fr1q2xemIumj59OrqDJAFLJzOES5CZID9BloJcpVChQux6Fqj3newZP8ncH3/8sW/fPuQr1apVS58+PbIWZGMqb3ua+de//oUW4LabN2/+9ddfX3755fr16wcOHFixYkVkQrhTHDt27K5du3DpGA9KTIJYetEF9AWyp06darU6Vq1aFfcZqE+bqA+YOVJJMkfz8ty5c9m2NWWDoICMAaeY35mjZIVXswfZME5ZsmQJXj1MzTiLClZ+R6Q9+uijzBMpncyBlStXli9fnv89hA0e/E5E9EdCzZax19m5c+cxY8Yw67tJ5niigHAqWrTovHnz2DHfOGpwOy+FMVp4rw1lKVY6cRYzdyCA4KfJlh2zwEMXSJ6rGQPQWYZ35qiP6vkcNeJ/0jDgeT1Cg1ZtAjqEV+aS0IrAoWoGaL/0qGedNvhZN3/77bcDBw68+OKLrVq1ypEjR+nSpZE8YP757LPPsHrSB1zA25tEAHkIGkROgrwCWQSyFOQqyFjY5S1Q7zvZM36SOZFffvll9+7diYmJMFyWLFnq1q3br18/9bdDu3fvzp9fxVr8v/+DU2F9tLx3714M1+bNm8PruCeDk5YvX/7JJ5+wehZEJygNTJs2LWfOnElJSVWqVGG7LGjXrl3Lli0XL15Mm9R3Zg61ZI6VZLgNSmDfoBScMmzYsDJlyvz8889slwzxLTeksCtWrKAyIJ3Yg/20R7wdl4Jr4Yrr1q1DmSZo2q8OP8XK75hBEMDMEzGQzIHBgwePGzeObVjjwe9ERH8k1GwZe50dO3bEzRuzvnIyZ3h47IULFypVqhSux384anA7f4YrWmgIiNmJeY+IlU6cwswdCCD4MQQcY8lDF3CK2xlD2h1xp0o+R/VxU8TLtF8dq1M8r5to0EYGHcIrc4kpmSN4TcK8h+NZpw1u181vvvlm06ZNSBKqV6+eLl06hNmoUaN27Njxww8/YKHHck+VCSyghQoVEn9W0RHkG8g60CwykAoVKuBCyEmuXbsWxvWdQ/aMz2RO5Mcff9y6deugQYOKFy+O9KtBgwYoL1q0iJlcRo0aNZCl3Q7Pe+6pXbv28OHDt23bdvnyZdZi8K8Kfv/991u3bn388cfI5Hr37o0ZAY0jH5o6dSqSbuR8rGqIyAWlDRD20EMP4f5vwIABbJcFsAnyufHjx9Mm9Z2ZI/Ukc3gdM2YMVl/aYwbzMqrRl+EGBqH9BNfJD9EXZWzyOVwLV2QbPmQDK79jukcQMk/ERjL39ddfp0mTxvD8OTMe/A7QLBqP3I+Emi1jrxPjAskls75aMid95NiVK1cw+WBOZ9s+cNTgdv4MS7RQXmLoNaD90ie0WelEfWbuQADBjxYcY8lDF+gU9RnDqoNAPET5nNWkwWvy8Y5NKqhjdYrndRMN2sigQ3hlLrFI5kDs/NC+lJMnT7766qtdunQpVqzYAw880KFDhzlz5rz//vt///03FnQs66yeif79+3fu3DlTpkx79+5lJpCBvAIrKYY5vb2HRQS5BzIQ1koQncxZ4srZaBZ3zE899RRSnDx58jRp0mTIkCHLli1jrghRoECB8uXLP/vsswjEw4cPz5gxo23btrlz5y5VqhTOXbFixaeffsoaDSZ2v/32GxI7NL5z507cxDds2DAhIeGRRx4ZPHjw+vXrv/zyS1QLb1ASjm3ehckcMCRYnLJly+IOm+Zl8e03jqiTv2mH+jiLf8giYl4G/Mi28vs777xTq1Yt5onYSObAyJEjhw4dyjYs8OB3gGYV/5TYG2bL2OvE2J8wYQKzvloy18fikWO43W/fvj1GJdv2iqMGt/On/2gRsxkzVk9os9KJppi5AwEEP4aAYyx56AI/RWXGsO8gECtYTRpiHT7e/Sg34NbvHDRoI4MO4ZW5xJTMUTVgLot7OJ512iCdP69du4b0C+HXrFmzrFmzVqhQAWnZ2rVrz549iyUbC/eff/7Jqlpzu4dBkMy98MILzAQhkD8gi2jcuDEyCqy2yBCQY9h0MIzrO4cud3clc6wU5NKlS3Bqjx49ChYsmD9//pYtWz7//POrVq2CezJmzAivmP/cATkcFnh4C1kdcjvM8sjzkO3xgEDh119/vXnz5h9//PHhhx8uWLCge/fuDz74IG4CWrduPXv2bPTaJv0nwujsu+1jViqIH30ShrkVZkFl87f4RZ30dTrUpE1xWifQvvkDGj+yrfy+f//+GjVqME/ETDL37bffYgiwDQs8+B2g2Yj+SKjZMvY6W7VqNXHiRGZ9p2TuSvApFUWKFLF55BiSOaR0hs9xXOHoXLfzp89oEXMUKbAGbALL8K+aEVY60Rozd/BzEgwBx1jy0AV+iuOMgWnfvoME2YFuAoFh0jBYiY93P8oN+Fk3bWTQIbwyl9y5IvCCAdovPepHpxXcngg22PzZZ5+tXLlyQkJCo0aNxo8fv2vXrsuXL2NpxgLt+GU1pIBYqbF84w7kkUceud3VIB06dEBigO4jT0C2gBUTmQPyB2QRqIyMgp1vSxjXdw7ZMwzJ3JGk0+yIG3BhKLDi3LlzrOTE+fPnWcmJM2fOsJIJiEGmheQMDnviiSfIc/Y5OyJj27Zt/C+WzZ/GIm6Q+P/zzz+Ins8//3zz5s2JiYmYmFC5WrVqAwYMWLp06YkTJ5gCARudBhz7vnr1ald/AMF/4ep2/10mc+ySMtR9xP1ufzkpooY9e/ZgEzdkJ0+eRAHQpx7oYPny5TEmjxw5wqoKGHSiDmqiPpmFPnABaBMto4CrsKohsDOoxQU4hc618vumTZvgHeaJoC9U7OlBiVugauvWrex6Mjz4HQ2a3zENL9zgHHudWAzgbmb9oP3ZARO42cPREiVK4BXDn11PBqYCDDdDZqOOjQbC7fyJBlnT7jHkKFKw7KEOfXcFVqJLAyudqMbMHQggHjAEHGPJQxdwCjs5NGNg1cekTX/TwD8nxVxdoUKFd955h1W1BUtApUqV+CchNGnwGQPpLKsnjHfsp8rq4BQ614CfddNGBl0Or8wlLpM5al/Ej04pcN+IESPatWuH1KpQoUKdO3eeP3/+oUOHsPhiCYZP7ccj0pi9e/fOmjXr8ccfL1WqFFLwOnXqIB1cuXLlRx99hAWU1lBOnjx5kC3QuzMkQFEnCOP6ziF7hiGZS6XvzEmBn6pXr46pFndX+/btu3DhAlI689chDaCO/aex9I7u33///dNPP6FrCDLEAe7OH3jgAfNzT8KYufNHk4wdOxbyIvpoElaS4fYOA9g3KMVwCvqO+yqMOtoPq2KgPvzww+afZOVIdaI+zsK55Be0hjaxKf0OkB/ZVn5HtBiSORV7elDilkmTJkk/nOJ48DsajPSPhJotY6+zWbNmU6ZMYdYP2p8dMMGfUoE69l+BB+gmRhxmGLbtBkfnup0/PUeLSia3IfjFU0xxKMM+sBLtB1Y6UZ+ZO5jMYQg4xpKHLhhO+frrr5GE4e43TZo0dOjUqVO4+sCBA93aE6fgRHrvH01hxsBcZJgx+Hj3r5zjVqeIjQw6hFfmEpfJHG2K+NFJ/O9//4MMJN+418KKhqFEX2rCEoZFFkstFlybRydeunRp+/btGIPI/woXLoxVu0mTJkgHEatnz55llYLfi7gRBK5EYjd06NAqVapIe+QYn5wwru8csqdO5u4AboOwiRMnduzYEZlW0aJFu3btOmfOnLfeeuuLL7745Zdf4F30H8k+O0GG1aexCILhw4d/++23uF1A/od2IP7jjz+m554gHOm5J4MGDVL5U3zgWAe3I7goZCAE8XrvvffmyJGjd+/e0IbXXr16oZvhemgwK8lwG5TAvkEp0lPoJpveEuCfmVpho5M+maV20KZVfEo12MNPsYpPRA7cxzwRS8ncgQMHMAOyDRke/B6FHwk1W8ZeJyRNnTqVWd82maNggx9V/qQRzJs3DzOM+eN+Rxyd63b+dGxQikomBzKH/iScHuIjvh9pM46YuQMBBD+GgGMseeiC9BQsAT/88AMO0WCnz0zd2hPgRN6I2GVODCZzNlAF5hJTMmcFHaVqIt50Yglet24d1soKFSpkzZoVaRyysW3btsGSWEyxpF6/fv2bb77BImu+KFI0JGpI1zCcsSgjgUMah9OR0okfj2LF/OOPP+jzNAQ2lv5OnToVKlQob968WCttvijlGJ8clTyEUG+T7KmTOQm8TXrCHFL+Rx55BJkW/fXymjVrPvjgA/oTFdjC/k07w6exCAhDnKGF33//HTGEAY9bt3feeQdrQLNmzZB1lSlTBvdzNs89Uek7Iu/DDz988cUXMZ+WLl06U6ZMyOoqVqyI13z58kGMDWzgqiVzNhXcBiWwv5wUq1Nwr2b+so4Ue51ogbdjFZ9+ZFvF5/vvv4/wY56IpWQuOTkZsyrbkOHB72gw0j8SaraMvU6sGRg+zPq2yRxA0v/444+joJjPYWbAkDx48CDbVsPRuW7nTw/RopjJlQ2Cgvl7acBmHDFzBwIIfgwBx1jy0AWbU8TBDtzakzA0YiDWkjkrRJ3MJaEVwTF7oG8esw0BRZ1Iqvbs2UMZFb230q1btwULFuzfvx9WxaL522+/0S+JISF78803n3/+eRIGPvroo5UrVz777LN16tTB7QTWOwzMWbNm7d27F0kLtU9gBUciiNbQU/gLS3ytWrUyZsyIVbJ37978Txjt8WBPR9TbJHvqZE6CtM1ffvll3759uEdv2bIlMi3ccvXs2XP+/Pk7d+5ExoaAQEYvzdk5FGQ20x+9OYym8ArDIglDJockDIEofe6JW2eDq1evYiQsW7YMNyX9+/dv06YNbnytfqSVDdxUnsxFbvCY8SPbSufRo0cxrTBPxFIy98MPP9j/SKgHe0bhR0LNlrHXWb9+/enTpzPrOyVzgH+U75jPUT6Ee0W3znKs73b+dCsA4BRgn8xh7sI6SmXpX4zajCNm7kAAwY8h4BhLOIWVlFE/xa09VeDjPYzKI62TuSQ4CmbPno1XR9KkSUOni9joxPDH8Bk9enS9evXSpUtXqVKlIUOGrF27Fvfkv/76Ky2OeMVSixQfeV6XLl0KBUEBm1wV7gH69OmDzA+ZxrVr11jrQW7duoXTsdoih0MjqPPEE08UK1Yse/bszZs3FxfZiNrTEfU2SadO5iSotPnJJ58g00Kyj9tNBAFu3ydOnIj7zs8++4yiDbkdkn1WO4hjkBlAC7A1Yu7HH388d+4chXjdunUTQs89efXVV1VuGoAHe0IqG7g6mTNhZU8/sq10Hjt2rEKFCswTbpI5M47vo7gCcyLaZBsyvPnd5psuHqCEyQA7FsJe56OPPjpjxgxmfYVkjr5kSWXK5+hDRgMkDK/wu2ObBhzrux3vbgUAEk+vbNedoNc4uiH4t5zmh/gQNuOImTsQQPBjCDjGkrcusJITbu2pAh/vYVQeaZ3MJaEVQRE6XcSgE4vmqlWr+vbtW7p0aSymjRs3Rka1devWb775BssfFkEshajG336rWbMmmsUrythj+DNS6UX/+ecfJHCYW5CxbNmyBYt1gwYNsmXL9tBDD9l8/BVRezqi3ibp1MmcBLdGRP1du3bRE+YyZsxYrly5/v37I9M6cODATz/9hACCyZDeoSZe1d/+FcGJ9Gns9evXL1++fPjwYaSDnTp1Kly4cL58+ew/zgce7InxwAauTuZMWNnTj2wrnUlJSeXLl2eeUE7mCK4TqyluXnGu1dLrDfv+RsfvNlC2Aex7ba8T4xTDk1lfIZkDGNEvvvgilZHNYJjTR40cMQ2C31XaFHGs73a8uxUA6BSxIyLoL3pNmZz0IT6EzThi5g4EEPwYAo6x5LkLKri1pwp8vIdReaR1MpdYjAL1Nr/66issYTNnzmzTpk3OnDmLFi2KIYMV7d1338UCh2UOi53N22/YabXSiaAFgHTw1KlTS5cu7devH5LFDBkyVKtWjf8gJ6tqQUTt6Yh6m6RTJ3MS3BrRAKYexGX37t2LFCmSJ0+eli1bTps2DTcQ3377LWLrzz//FANR8YuZBtAOGgGQisjG0Grbtm3x4sXDOMgNQ9eqZcL+qAd72jcoxeqUqPkd+JFtpRPZP24PmCfcJ3NYRJHrAxSsll7P2Pc3On63gneWF9gBE/Y6a9WqhTslZn21ZA6uRDXxD27E5Gbfvn2iHqpMZUUc67sd724FAH4KmRedok1D8kp/B3D8+HHaNGAzjpi5AwEEP4aAYyz56YIjbu2pAh/vYVQeaZ3MJf6SuTNnzuB0uJUe1HX69GlaywCOKr79ZgVWxlu3bl27dm3Pnj3Tp09v0aIFVtUCBQp07twZizI9MkK97xG1pyNudepkTkIYnY0EbvPmzcOGDcPdAEKzSpUqzz333LJlyw4dOvTjjz/iFgS5HW4dWG3lP5kWWb9+PcU9yJ8/f6ZMmerUqYMr4rr8yaUe7InW2MDVyZwJK3v6kW2lE7eVZcqUYZ5wmcxhRsO54neVHDMbV9j3Nzp+l2Lopn2v7XViyZkzZw6zvloyB5C+PH7no3DoY8dZs2ZhhPKdAH5322vH+m7Hu1sBQDxl165d6NSrr746atQo7OcfK4tP6JBiM46YuQMBBDBacIwln12wx609VeDjPYzKI62TucRlModliBZBLEyIk+LFi9NfKiQmJpYsWRLO9fn22z///PPHH3/QT2sOHTq0UqVKaLxy5cq0CJqfQK7e94ja0xG3OnUyJyFCzkZoote4y+/YsWO+fPkQtZ06dXrppZc2btz45Zdf0geyCEoxt4N57R9miDpopF+/fjhEwwzhO23atKeffrpBgwYPPPBAnjx5cHcyfPhwrOvSR6MZ4H03DF1A+6XYH/VgT/sGpVidEk2/+5FtpRM3snA984SbZA7uRmXD3w8C+8zGFfb9jY7fzUg7SDvFLIpjrxO3YS+//DKzvnIyR23S9+cweMm5OBfjl7+JReCQ21471nc7f7oVAAynoFOUrWJawyZWaHpCGx21wmYcMXMHAgh+DAHHWPLfBRvc2lMFPt7DqDzSOplLnJI5zDxYbqZMmYKlBwsQliEsRliSsDBheaIWsGCtWbMG7YDSpUsrvv128+ZNrHpYIv/8809cDuMLC2iHDh0KFCiQK1euNm3a2H/diFDve0Tt6YhbnTqZkxAdZ4vPPcmYMSNmedzXrlix4t///jek/vrrrxSy4jPtrH5mpGvXriVKlKBBYmDt2rXjxo177LHHatWqhUGVPXv22rVrDxo0aOnSpR988IH5iyxcJ5plTaRQMucBOtdANP3OdLiEzrXSmZycjPtX5gk3yRyCZJLFA3jDlc9x8VK8+Z0KnrHpGhKOTJkyGXIpYK+zSpUqc+fOZdZ3mcwRWMNwltUjx+B3t712rO92XnIrAEhPQe+wn3pKT2izx2YcMXMHAmgNQ8AxlnCKB9jJTri1pwp8vDMpLqFzDURaJ3PJnaMAiwiWEiwovXv3xuKCJQYLDZYbLDpYerAAsXPuBAtW9+7dg125DWvLBM/e8ArNx44dQ1yNHDmyRo0aGTJkKFeuHD0rGItpNOd5Mx7s6YhbnTqZkxB9Z4vPPcFgQKD37Nlz3rx5r7/+OsbJxYsX/wg+9wS5HYKbnSPMArizadWqFRsltmzcuHHmzJkYAG3btq1YsSJujwoXLoyLjh07FjdGZ8+e5TrRLDsnlMzZQ2dJib49RVL7IIdTihcvzjyhnMxhWcU98cmTJ9m2ibDkc2H3u32Djjh2atasWbhrMmRU9jpx1zR//nxmfU/JHMAVrR45Br+77bVjfbfx6cHsVqegj4sWLZL21IyVTjTOzB0IIPjFecmR1D7ezcSITtEpKGPJwMKB5QOLCJYSLCiDBg3C4oIlhlWyBQsWlq1NmzZ17dqV2idu3bqFvI0SuB9++AGux8L08ssvI/MrVqxYtmzZmjZtanhEF6H9rpM5CSnubHruSZ8+fcqUKXPfffc1adJk4sSJK1eu3Lp164EDBy5dukRv2uG1U6dOWCQwnDC02ChxCZodP348bqoaN26M0ZIuXbqHH364R48ehqHLxAnowaOCf53nzp2jX3cm4AvHNrGUohqxIfQ732b853M4nZVkeLCnfYP2OHZnx44dqECI2Ya9TixUr7zyCrO+12TOBvhdsU2OY3238elWALA5xYPfDaBxZu5AAMGPIeDKnqzkhH+dZuJP55EjR/bu3fvSSy+JTkEZSwYWjhUrVrBdLsGChWUrOTm5XLly//zzD7K3mzdvInvD/efu3buXLl06YcKEhg0bInsrWbKkzdNDONrvOpmTEFPOxon8uScJCQlYWgYMGPDqq6/iBgi3LBhUxLRp05DqsYHig+3bt8+fPz8xMZG1G+LZZ59dtWpVUlLSb7/9RsL04FHBv87z588/+OCDzD1qyRzye8yAKDwpPLVVis98DueykgwP9rRv0AaVjuTMmbNDhw4owDgwEe0E9jpxb7Nw4UJmfZ3MhbA5xYPfDaBxZu5AAMGPIeDKnqzkhH+dZlK7TkzvmOQx1WPCr1evXq4g1atX79KlC5wiwtzjlU2bNrGGgt9kXblyJdad/v37ly9fPmPGjFjssORh4UMez5Q5of0ehmTuSNJpdsQNuDC0WkGjV4ULFy6wkhP0xQsV1NuMvk7cJE2fPr1Tp05FihTJly9f27Ztsbl27VoMifTp0xcvXrxly5aDBw+eO3cuRggbN/7Asvfiiy/269evRYsWpUuXxlUwvaI8aNCgNWvWfPjhh0yZNbFsT5HY1Hn8+PHChQszZwSTCcc2IQ/VaNYoG4QGnRQ/+RxOZJeU4cGeaJA17QaVLjRv3hzJHAowCyqLHrTXiZhftGgRs34omXbEld/d9tpRg9v4dCsA2Gjw4HcDaJyZOxBA8GMIuLInKznhX6eZVKcTEzim8eHDh2NKx8SO6R0BjzImfEz7mPyZG3yD9QirEtYmjMSHHnoILl68eDEWr1atWuXNmxfLGRY1bGKBI2GE9rsKpFO/MydBvc2U1fnxxx/Tn3zXqlWLpuNTp06tWLEC47BixYrYU6ZMGQzLgQMHzpo1i/8ZkX+WLl06evTo7t27P/roo4UKFcqUKVPlypX7BH/W4uDBg+aephZ7xqbOixcvwsjM9GrvzIFpoR8JBZlDv3Ruhed8jqLOCg/2tG9Qiop4DAr+QBCYBcah/YS9TgwirDrM+vqduRA2p3jwuwE0zswdCCD4MQRc2ZOVnPCv00yM60RTmKIxUffo0QOTNgYFzItpHJM5pnRM7Mzo4QArDtYdrD5YgzCI4FOsSn379sVgfOedd7CJZcvq6SEc7XcVSKdO5iTEh7Nv3LiRlJS0fPnyAQMGPPLIIxi3uMdt0KBBr169Jk6ciLsxNuZ889Zbb82ZM2fIkCEdOnTABHHffffly5evUaNGGKjr168/ffo0txIGMO7JmjZtihE+e/bsrVu34qj4F7Xa72a++uqrggULMlsrJ3OAP+Rsw4YNOMvxR0IB21bG/hQP9vSmAdgkc9S75s2bowyDwCy0n2Ovs1SpUuIih6bYAVtc+V2xTY5jfbfx6VYAsDnFg98NoHFm7kAAwY8h4MqerOSEf51mUlDn9evX9+/fv337dszGgwcPbtasGb0B9sILL2AqxoSMaRmTM6ZoTNTPPvssqmHqZlYOB1hTsLJgfcEqg7UGK061atX69++PNQgrkfi4kFRhT5C6dOpkTkK8Ovvzzz/ftGnTyJEjmzRpgoGdM2fO6tWrd+3adfjw4eIHSf7BqJ48efLTTz+NvK1EiRL33nsvVsTOnTtjZkHv9u3bh9URMrAHWWb27Nnvv//+mjVr4mYxMTER5x4+fNjmXo24e/z+zTff5M+fn1nWTTKHxKV8+fJUph8JleZzlOu88cYbeGW7lLE/xYM9vWmgLkjzOToEyLw8wRWx14kAXrZsGbO+TuZC2Jziwe8G0DgzdyCA4McQcGVPVnLCv04z0dH5ww8/fPjhh6+//vrUqVORPNWtW/eBBx7InDlzuXLl2rVrh+xtyZIlsCEYO3YsXjEVY0IO4w08gVUDawdWEKwjWE3y5MmDlQUTO1YZrDVMq4xYs6cVqUunTuYkxKuzDVy+fPmdd96ZNWsWRmPJkiXTp0+PuYC+cvfSSy9t2bKFDVnf7N69e+HChRj2lFIQTEQQzE3Hjh1DPvHiiy/26dOnXr16uB3PmDFj2bJl27Rp89xzz73yyito5LPPPkPw0Sl3j9+/++47zNTMlG6SOYBbcP6RojSf42kQ2jQ4RQX7UzzY07MGaT5HO5GN0Y8QiB89i9jrfOihh5YvX86sr5O5EDanePC7ATTOzB0IIPgxBFzZk5Wc8K/TTNh1Xrp0aevWrYjA0aNHd+nShe5+kTYhf+revfvEiRPXrl373nvv4e6XfgiBvwGGyTxDhgz/+te/mB19gxUB6wJWh1atWqFxrBcYWVg7Zs6ciXUEq0mqsCeIV506mZMQr86257fffsPdHoZr3759q1atmpCQ8OCDDzZu3Pipp56aMGGC5z9BN4BpOjn45+i4ImYfTD1/BX9ND68IrL+FX7/AJrI35HDI5JDPIatDbocMD3kesr0ePXog80P+hywQuSA7R0Zq9ztmSczdzHwuk7kjR46gPnxHmzyfu3nz5sWLF3Gzjk1KgNAmylRNHftTPNjTjwZK3dApdA0dXLBgATZxc0JHkclhU2pke50YBStXrmTW18lcCJtTPPjdABpn5g4EEPyuEoVUOt5///33s2fP7tq1a/78+UOGDEHCVKpUqbRp0xYtWrRBgwaYk3HX/eabbx49evQ///kPJsw///wTpyB7Y+ebQJqVK1cuJHzMju7BvIGZn55ahVGAFQHrApQsWbIEKwV/rAEnpuxpQ7zq1MmchHh1tgpim8ilNm7cOGLEiObNmxcuXBiDmd66w3ieOnWq1aO97cE0jVtMvILSpUt36NABm2uCfxX7v//9DxdFVocZih6PjNwO0SZ+2QLgHvTw4cM4BRMNUrqaNWvef//9uFvFPWvnzp1Hjhy5dOnSffv2wYz04xmp3e8YYuggM5/LZA46DT+sxN8cLVasWJ8+fb4K/cIb2sROKqtjf4oHe/rUgO6gU0WKFMFOMHToUOyk78nx39QyY68Tra1atYpZXydzIWxO8eB3A2icmTsQQPBjCLiyJys54V+nGZU2r1y5kpSUhKQNNxhPP/10/fr1CxUqhNtUzK6tW7fGjevChQu3b9+OOmgNkyHmMeRtSJ4wN7ImnIABARLBGjVqMDs6gfkcszrmdszwUILZHnM+Zv7+/ftjFcBawJq2JqXsSaT2ed6MW506mZMQr85WwabNX3755dixY1jYsEZiAsId83333YcUqm3btsgVZsyYsWHDBjYxWEOzDIEJAnPWzJkzcfOHnCxHjhwPBH/FD61hpvv3v/998eJFujS9b0fzGqAybk/pKPj5559Pnz69devW2bNn4/SmTZvSl3/xWq9ePau/tzAQm35HC7jDZuZzn8xRARbgP3lueMoagTaDPnENO1+GB52sUZfQuRz+mD2YFDmc9HtyIvY6sdCKXzYyX06Ket8hknrhCnayBW7jkzXqEmrBjAe/G0DjzNyBAIIfDaq3GVPzJ+4833vvvdWrV9NvKlarVi1nEBS6dOkyduzYlStX7tmz56OPPsIlrl69ittXzGzXr1/HFMeaUAC3wfSEEdwY4/YYN8nkoBIlShQoUIDZ8U4wV2PGxrSA2RtzOP3VGuZezO2Y4THP899XiNn1yIDWqZM5CfHqbBVc6fzxxx8PHz786quv9uvXD9kYZgTcRlevXr1Tp06YFObMmWN+HgqmmK5du27atIm1cifQeejQoaVLlyYmJtJzj3CDWKlSJSzJkydPxg0isjH+9j5leACFmzdvYhJEGakeHQUoQ6TN31tMmDABMyD/e4vY9Dvu4zH7M/N5TebAihUrcC6yHLyaf23Jv04zKWVP+gEMrGR4NTyFRIp9mwULFhTfhEab7IAt8WRPIpo6YWRm7kAAwQ+Hxrg9b9y48fnnn7/99tvTp09//vnnkSGVK1cuY8aMuBPAfW+fPn0Qh7jH2Lt378mTJ5F74Tb12rVrmKAwm2HWEu9LHcG5uNHF7S5SMaRfuAHGbTAmNNwS48YYt8e4SYYBAb3hBxtiHsZsjDkZMzPmZ0yAmKtr1arVv3//RYsWYQLETM5aN6HjU4VY0KmTOQnx6mwVfOr87rvvMGFh4ujZsycyp0yZMuHWELMG3SzSt5qKFCmSnJzMTnACkx0SOKRxSOaQ0iGxoy/zIdVDwocsDcmf2DtMi8jqfv/9d/pwFq/YFL+KB6z+3gIirf7ewkA0/Y77dcy8tLABGNCz37EoYkUxZ3IgzuITfUQQSntqxr5NLJbr169n1tfJnAL+dcLIzNyBAIIfQyB2dP7000+nTp166623Zs2ahWSocePGRYsWTZs2balSpVq1avXss8/OmzcPyRMWOEwgSLwuX76M6QhTEF7BN998M3z4cMUocjv7cShNxFWIDBkyYDbGnIxBgfn5bv6DEhCvOnUyJyFena1C2HVeuHABCcSMGTMwp2CT8rm/gn/0QBU8oH5vyk4I8ueffyJ2kdthpsPVb968yQ4EwSGcZfX3Fsj5xL+3iKY9cQefNWtWtrL5S+ZsuGvjE9i3mTdvXgQws75O5hTwrxNGZuYOBBD8GAIpohPyPvjgg3Xr1j3//PNPPPEEZpg8efLwr+eODj5lFzNGUlISMjYshfTRJLKo69evUwKHTcNnoLdnpSDBK9wBLqf+uQQHUxlmNoDLge+//x6akU3Onj27b9++mB7z5ctnvlxs+t2M1qkC6dTJnIR4dbYKkdOJCYWeGDxgwACrb7B5zvCsvjXCDtuCGRAZHs2GZgHSv7fIli0bTejmv7cw4N+eWBiyZMnCVjadzEVdJ9wtfhlUMai0PVWw0gkjM3MHAgh+DIGI6qTvY+zdu3fJkiXDhw/v2LFjhQoVMmfOjDSoVq1aGPVTp06lL7d9/PHHyJYw2+B2FDMGhP3666/iX2g53mdiurg9Mbn5xrAIpOJyuDrKqLB///7Vq1ePHz++S5culStXzpkzp+LUFJt+N6N1qkA6dTInIV6drULkdNKMafUNtscee2zcuHHiN9g43jI8mjGlfzCrDjQjwzNPhea/t6C/oGSHBfzbE/fimTJlYiubTuairjNXrlxvvPEGs75O5hTwrxNGZuYOBBD8GAKR03n16lVcjp4A0r9//1mzZq1btw6J3blz53788Ud6Ix8CALI3OpHAHm+fgeJywHFqwryHpA3gQp9++unOnTtfeeWVZ599FrNN8eLFM2TIgOTv0UcfFT80OHPmDDvZidj0uxmtUwXSqZM5CfHqbBWir1P8Blv37t3Fb7BhWnzmmWccv8EmhWZMb7e/KmCqBUj1cJW33377ueeeq1ixIqZ13MFjJTh79uy1a9dQzb890WssEmxl08lc1HXmzJnzzTffZNbXyZwC/nXCyMzcgQCCH0PAp04MRgxJDEwMTwxSzAaNGjV66KGHMmfOnC1btieeeGLq1Km4KPjll1/ofS8DkOrhM1B1MJkga7x8+TImww0bNmAy7NmzZ40aNfLmzZs+fXr6TMPx67x6vKsQrzrDkMx9cPz28w7cggujV1bgDoOVnEhOTmYlJ06ePMlKTqi3qXWq4EEn7kSRaS1btmz8+PFPPfVUkyZNSpYsSTejyMkw+U6ZMoV/g42FlBrhnZTRtUKFCtEy8PTTT2P+RZvVqlXDjT7WiaxZs2IWrlu3bteuXXE55JR00//JJ59QN0Ws7ImJG7M5W9mCyUQc+92R6OvEYr9p0yZm/aD92QFbtD1VsNIJIzNzBwIIfgwBlTYxrDC4Fi9ejIGG4YZBh6FXvHhxDEMMRgxJDEwMTwxSZEX/+te/lixZIv446e0xHCJyN4HEjRs3zp8/D7WYiEaMGNG+ffty5cplyZLlvvvuw00sprsBAwbg6sjqsFDePX43o3WqQDr1O3MS4jVzVyHGdfJvsL3wwgviN9gefvjhtm3bDhs2DJOjzTfYpHj+uARgmccKIX4MKoKjixYtQt45ZMgQJKCtWrWqXr06WkZ9zNqYvumZnKiAFWjBggUHDx7EAMbdufjewN9//502bVrWon5nLuo6EV3iE3Zgf3bAFm1PFax0wsjM3IEAgh9DAG1iUGBoYIBgmMAjGDIYOBg+GEQYShhQGFYYXFWqVMFAw3DDoEMFDEAxF7fhdhJ3zz3PP/88Xn1+PYODWejKlStYv+krGUjRGjZsSF/JKFCgQI0aNbp37z5r1iz7R2DePX43o3WqQDp1MichXp2tQmrUafXEYNyL00OerKZL+qiUbdyJ4xeZce9+e+6/5x7kkbgcWxCUQe64cOHCSZMmPfPMM8hKsXLgKlWrVi1ZsiTSUyxg2bNnL1asGDJFrEz33nsvOy245LzzzjsXLlygj3Ht0fGpgn2bWbJkEX+nGPZnB2zR9lSB60QwI6SPHz++Z8+etWvXwsjM3IEAgh8DASk1BgWGBgYIhkmjRo0wZDBwMHwwiDCUMKDYCV65PZjvuady5crq1uMgaUPG+dVXX9EjgidMmPDYY48hrcyZMyfiB5obN248aNAg8VZT+10FrVMF0qmTOQnx6mwV4kYnTZeYOqdOncr/3gJLQq5cuTBfY3PMmDFWf29xM4ghz7P6g9n8+fO3aNGCLQjhY9OmTStWrJgzZ87EiRPpQpxy5coVLlw4a9as6dOnz5cvHzaRCHbp0gULGzq7ePHizZs3Hzp0KDk5+eOPP5Z+AQiNIFksVKhQ2bJlkaE2a9asbdu2yHoTExNxuZdeemnZsmW0OmKcohGktvRlcJx7t8VnpkyZcCdATgEwHTtgS/R1ivi3J3wNj8Pv8D5iAB2fN28eogKxgQhBnCBaMIgQOYgfRBFiCRFFxhHbRPj95z//QSgiIOntNIQoAhXhiqDFIEIAI4wRzAhp3BfVrVsXdy+3o1wAA0Hx3TU/4EJJSUnIwJh0GcjYbty48csvv3z66af8d1SbN29Of5GQJ08edKFdu3aYWxy/BHK3jSMRrVMFtzp1MichXp2tQtzrtHpicKlSpZo2bYq7Z6uvGFOShxwRr7SHnpmXkJCA9I4tCNFlx44d69evX7hw4bRp00aNGjVw4MCePXsi0WzcuDG9yZc7d27+Jl/16tWxTPbu3Rs1IRsL0vfff3/u3Lnjx4+/++6727ZtW7t27YIFC6gp2KFHjx7I8OrXr48k+KGHHsJCBSsBtIlN7MQhVEA1VMYpOBGnoxE0hQbR7JEjR3AJXMjq7U9OLMcnurx9+3Zm8dSWzMHy9o5+6qmnrByNgujoxx9/3MrRaJwcDeMgwJo0aYJgQ8gh8BB+aIfeTkNYIjgRoghUagehiwBGGDPjpigQP2zYMO5fpKHI2y5fvoxbuNdffx3TxZNPPonMFdkn8jb0DsnogAEDDNNFjPjdEa1ThdSlUydzEuLV2SrcnToR05iOMWVjahafGFygQIE6der06tWL//G/4VYbUz84fPgwXmfPnr1q1aoYWZlENm3atHz5cnqTLzExEes3/9s9gL7//vvv169f//nnn38L8uuvvyJnZT28E/MbNhs3brR6w6ZMmTL8DRvDG4GoI74ROGvWLKs3Ag1EPz7Tp0+/c+fOoCFvg76wA7aEXSes8fnnnytaHncmipa3eQvWDKIC4cEDBq/0zLPbYXTPPVu2bMErtYxgQ8hF4e00DyA1xzjFaEVC2bdv344dOzZs2JC60KVLl+nTp48YMaJdu3bly5fPmjVrzpw5kc5i0/DTf1ZEPz5F9DyvQrzqtM+ppOhk7v+hdaqQenVKnxiM1bFixYpYAzDp8y/BYCWoXr06Vk2s/Tly5ChZsmTt2rVbt279xBNPDB06dMqUKa+++irSQbaexAAQnJycHFzCjNnJzZs3sUJjRadlG6Dw559/Yie9PYkyEr6rV69i+MNEly5dunDhwpdffgk7oIw9ly9fRk7w008/Ye1HZSQB9u8PDRw4UPH9ISy3ju8P0RuB4YrPtGnT7tq1i1nNdzJnfqts0aJFoils3hNF7ImmsHlPlJsClidnwReQBL+Qv5C0wT5fffUVNnF/AleiDnkKCunDRPgdMYBX7AfYyfpggqKIGSg2wFjDiMO4w+jDGMRIrFWrFkYlxiZGKMYpRiv9dt/LL7/85ptvQn/RokWbNGmCUESeZ/iKrZ4/VdA6VYicTp3MSYhXZ6ugdTqCKX7v3r3mv7dgh4PtfPzxx1hRli9fjoSPHq1StmxZLCRYkrGQVKpUqVGjRp06derXrx8qYDHGiv7666/v2bOHlqIoAMGbNm26vQjfcw+EPfjgg8gSGjZs2KFDBwh+/vnnsRC+8sor69at27lzJzJa9AhrP3ICSpWkIM9DEoCFn/I/ehcHCQHyAJxFWQLlB9evX//f//4HQ/3nP/9B2kFJxjfffIMAwJRCr1euXEEBaeLZs2c//PDDAwcOQLb4dtSQIUN69uzZrl27Bg0aVKlSpUSJEg888EDWrFnRI2hesWIF3HTw4EFMNUePHk1KSjp16tQnn3zy2WefffHFF8hm6HJIZbB57do1yjv5Z+icNGnSiH5B46iGyjgFXcDpaARNoUG0g8ZxCVwIl8ZFcWkIQBknQhJiBqdDIXQWL14cmqEcaRl6gb4Y3ipDf9Fr9B0WwCVgDdgKBXrFFb/77jtYCaaDGZGNQQ+lX6K1IZUcAegovZfG+hYmbsdQdJM5eATjBaMGYwcjCOMIowljCiOrQIECGGUIaYw4jDsE86RJkxAMOAsxLI5xxfEOYHBWckK9TT3Pq6B1qkA6dTInIV6drYLWqYJnnRg8WJsR/FiwX3755cTExMceewwrepkyZXLmzIkVMXfu3EhKqlevjnWoY8eOPK+aP38+5VW0mPkH15o8eXJwFb4HKRoSNSx1SNpwCVwIaRwuiktDANI7JHlI9ZDwYY1EfVfJH10CMBO4BNkVUhCCsqhff/2VkkW+EwkKEhd2mSD16tWrVatWzZo1q1WrVrlyZazxFSpUKFeuXKlSpZB5Fy1aFCk1Mqq8efPC4Pfddx8SrEyZMqVPnx6pG0ABm9hJ/TXAj+JEnI5G0BQaRLNoHJfAhcqXL4+L4tIQABl16tSBJJiLfmQdQDY0U+5LfcEr+oXeoY/YCaiDzBDuoQuxjYhBVwEssMKBOQgxFuireBgdsDkuh1eMGowdjCCMI4wmjCmMLCTBsCQTZ4uel1TQOlWIBZ06mZMQr85WQetUIUI6b926hQH1ySefvPvuuxs2bJg7d+6IESN69uzZtGlT5CLIGNKlS5c9e3YkDTyRevLJJ4cMGTJu3LiZM2cuWrRo/fr14rf1bcBy2LVr102bNrHLKwORbpM/8Pbbb7PzIwausnXr1owZM7IeemX37t07duxAU5s3b34zCArYxE4cYpV8QAYhkKv9/PPPcPrXX399/vz5M2fOHD9+HFbdu3cvDAvvwLbLli2DeWfNmgULjxkzZtiwYYMHD+7Tp0/37t2R4rRs2RLWRuYKgyO5gc0RJzB7QkICXeLSpUu4xA8//PDNN9988cUXiK4TJ068//77+/fv37Nnz5YtW15//fWVK1cieJAPTZs2beLEiSNHjhw6dGj//v179erVrVu3du3aNW/evH79+jVq1KhYsWLp0qURgfny5ROvAlj3nEB8IkpxOUQs4hbRixgWYwYRjjhHLxDziHzEP0bB1KlTMSIwLqAf5kIQMq+b0POSClqnCqlLp07mJMSrs1XQOlVIQZ3/+9//jhw5gvUeGcbChQsnTJiAdR3LbZ06dbCW05/aZcqUCWthqVKlKleu3KBBg9atWz/22GN9+/ZFHkBfTkd+gNW3XLlyycnJrN2IQSs9Vn2s/ZCHPADZAHICZAbID5AlQDwyBuQNyB6QQyCTgEhkFcgtsOQjz0C2gZwDmQfyD2QhyEWwoiMvQXaCHAWZCr19has899xzBQoUYFlDrAKdsDwSX24WOAtJDNyHbAZpGdIapGhI1JCuwblI3eA4pHFI5pDSIbGD+5DkIdVDwoe0D8GAFBCJINJBJIWYk8kmt+1+zz1IjKJgefDGG28sXbqU/s4GghFviDrEHiKQ/rYa3URkIj4hBkoQsdCADiKGEcmIZ3Tk3Llz0if06nlJBa1ThXjVqZM5CfHqbBW0ThViXOevv/767bfffvzxx1gg33rrLSyx06dPT0xM7NmzJ5bP6tWr0+oL6PNKgMKNGzewNpu/NOYTuhC9BRXp94dwFL1jSVOsAp0vvPACCWY2igx0CcC2wwH9+QtChb6BR2FDV5k9ezZeYf/GjRsj0pBYI+oQe4jAgwcPIhoRk4hM1lAQPd5V0DpV0Dp1MichXp2tgtapQmrXiUU3c+bMefLkKVKkCLKiKlWq1KlTp2nTph07dnziiSeQPyHbQDo1c+bMV155ZcWKFRs2bNi+fTsSryNHjpw+ffrzzz//+uuvkZldv379r7/++vvvv8OeArolmE7cU6hQoe7du7OkKVaBzk2bNnXt2pVJTyHgMjgO7gPwI4IKefb58+fh3w8++OCdd97Ztm0bMmz6kBeRgHhAVPTr1w8R0qFDhyZNmtStWxeRg/hBFCGWEFHoGlq+e8aRGa1TBa1TBbc6dTInIV6drYLWqUIc6Pztt99+/PFHrN/nzp07efLkrl27xPV73rx506ZNGzt2bGJiInK7HsEfHGvWrBlyvrJlyxYvXjx//vz33XdfhgwZ0qZNmzVrVsoLcahatWr169dv1aoVkpWnnnrq2WefHTVq1JQpU+bMmbN48eI1a9Zs3rx5z549Bw4cOHbs2CeffPLll19+9913P/300x/BP8NEYuE5L0QmkTFjxn/9618saYpVoDM5OblcuXJMtxsoAyNgsStXrnz//fewISwJex48eBC2hYXXrl0La8PmsDzsDy/07t0bHmnZsmW9evWqVq1apkwZysDgO3gQfoQ34VN4tkKFCvAyfA2Pw+/wPmIAkTBs2DD6EQhECOIE0fL+++8jchA/iCLEEiKKRN5V48iA1qmC1qmCW51hSOaOJJ1mR9yAC0OrFbhBZCUnLly4wEpOYAJlJSfU29Q6VdA6VUilOi9fvnzx4sWzZ8+eOHECg3rv3r3bt29/4403Vq5cOXv27FmzZk2ePHnkyJFDhgzp27dvt27dWrdu3ahRo5o1a1asWLFkyZKFChW6//77s2TJwlOKBx54oFixYuXLl69Ro0aDBg3atGnz2GOPPf3000OHDkVKgRRz7ty5yFTWrVv31ltvIXc5dOhQUlLSp59+iiQJ0J/o5s2bF6kJ8pWiRYs++OCDDz30ENIUXK5UqVLIY5B0on1kLZUqVXrkkUcqV66M/AZpaPXq1XFRaKtduzYSmkcffRSJKTIevKKMPfQXsqiDmqiPs6pUqYIW6K9l0SZaRvu4SokSJXBFXBdXhwYoKViwIFSRSAKWPH78ODKw3bt3IwNDjxYtWoTeURqN/vbp04d/7QwXRf4Hy8A+2bNnh63SpEmDVCx37tywIboGAagD26I+8jBYGzaH5WEQeGHBggXwCPwC78BH8BT8Ba+dOXOGHm7iiB5HKmidKmidKrjVGYZkTr8zp4LWqYLWqUK86vzzzz+vXr1KbzV9/PHHR48efffdd3fu3Llx48ZVq1YtXLhw5syZL7zwwvDhwwcNGtSrV68uXbq0bNkSmRbyKmRRyJn4h33fffcdkiTMcefOnUPKggkUWcvp06dPnjyJJAYp1IcffnjkyJH333//8OHDyG8OHDiwf/9+ZDn//ve/A8E/aMV1t23btmXLFqRZeEUZe9auXYujqIOaqI+zkEqiBbSD1tAmWkb7uAoO4Yq4Lq4ODVCClBeqoI0+4IZaeiMT2SF6gb6gR+gXekcfcKO/6DX6juvCDrAGegTLwD6wEmxFppOi41MFrVMFrVOFWNCpkzkJ8epsFbROFbROFbROFbROFbROFbROFeJVp07mJMSrs1XQOlXQOlXQOlXQOlXQOlXQOlWIV506mZMQr85WQetUQetUQetUQetUQetUQetUIV516mROQrw6WwWtUwWtUwWtUwWtUwWtUwWtU4V41amTOQnx6mwVtE4VtE4VtE4VtE4VtE4VtE4V4lWnTuYkxKuzVdA6VdA6VdA6VdA6VdA6VdA6VYhXnTqZkxCvzlZB61RB61RB61RB61RB61RB61QhXnXqZE5CvDpbBa1TBa1TBa1TBa1TBa1TBa1ThXjVqZM5CfHqbBW0ThW0ThW0ThW0ThW0ThW0ThXiVadO5iTEq7NV0DpV0DpV0DpV0DpV0DpV0DpViFedOpmTEK/OVkHrVEHrVEHrVEHrVEHrVEHrVCFedepkTkK8OlsFrVMFrVMFrVMFrVMFrVMFrVOFeNUZhmTuSNJpdsQNuDAUWHHu3DlWcuL8+fOs5MSZM2dYyQn1NrVOFbROFbROFbROFbROFbROFbROFWJBp35nTkK8Zu4qaJ0qaJ0qaJ0qaJ0qaJ0qaJ0qxKtOncxJiFdnq6B1qqB1qqB1qqB1qqB1qqB1qhCvOnUyJyFena2C1qmC1qmC1qmC1qmC1qmC1qlCvOrUyZyEeHW2ClqnClqnClqnClqnClqnClqnCvGqUydzEuLV2SponSponSponSponSponSponSrEq06dzEmIV2eroHWqoHWqoHWqoHWqoHWqoHWqEK86dTInIV6drYLWqYLWqYLWqYLWqYLWqYLWqUK86tTJnIR4dbYKWqcKWqcKWqcKWqcKWqcKWqcK8apTJ3MS4tXZKmidKmidKmidKmidKmidKmidKsSrzpRM5jQajUaj0Wg0/mHZlTLhSeY0Go1Go9FoNCmCTuY0Go1Go9FoUjE6mdNoNBqNRqNJxRiTuSNJp9kRjUaj0Wg0Gk3Mo9+Z02g0Go1Go0nF6GROo9FoNBqNJhWjkzmNRqPRaDSaVIxO5jQajUaj0WhSMTqZ02g0Go1Go0nF6GROo9FoNBqNJhWjkzmNRqPRaDSaVIxO5jQajUaj0WhSMTqZ02g0Go1Go0nF6GROo9FoNBqNJhWjkzmNRqPRaDSaVIxO5jQajUaj0WhSMTqZ02g0Go1Go0nFGJM5bOh/+p/+p//pf/qf/qf/6X+p69//S+Y0Go1Go9FoNKkUncxpNBqNRqPRpFr++9//H1lvtjveWfH6AAAAAElFTkSuQmCC;" vertex="1" parent="1">
          <mxGeometry x="-127.45" y="59.07" width="964.89" height="682.85" as="geometry" />
        </mxCell>
        <mxCell id="XM2iZvEffHL1gF4DJcAG-3" value="" style="shape=mxgraph.cisco.computers_and_peripherals.pc;sketch=0;html=1;pointerEvents=1;dashed=0;fillColor=#036897;strokeColor=#ffffff;strokeWidth=2;verticalLabelPosition=bottom;verticalAlign=top;align=center;outlineConnect=0;direction=east;" vertex="1" parent="1">
          <mxGeometry x="170" y="572" width="20" height="25" as="geometry" />
        </mxCell>
        <mxCell id="XM2iZvEffHL1gF4DJcAG-4" value="" style="shape=mxgraph.cisco.computers_and_peripherals.pc;sketch=0;html=1;pointerEvents=1;dashed=0;fillColor=#036897;strokeColor=#ffffff;strokeWidth=2;verticalLabelPosition=bottom;verticalAlign=top;align=center;outlineConnect=0;" vertex="1" parent="1">
          <mxGeometry x="110" y="572" width="20" height="27" as="geometry" />
        </mxCell>
        <mxCell id="XM2iZvEffHL1gF4DJcAG-5" value="" style="shape=mxgraph.cisco.computers_and_peripherals.pc;sketch=0;html=1;pointerEvents=1;dashed=0;fillColor=#036897;strokeColor=#ffffff;strokeWidth=2;verticalLabelPosition=bottom;verticalAlign=top;align=center;outlineConnect=0;" vertex="1" parent="1">
          <mxGeometry x="110" y="610" width="24.5" height="19" as="geometry" />
        </mxCell>
        <mxCell id="XM2iZvEffHL1gF4DJcAG-6" value="" style="shape=mxgraph.cisco.computers_and_peripherals.pc;sketch=0;html=1;pointerEvents=1;dashed=0;fillColor=#036897;strokeColor=#ffffff;strokeWidth=2;verticalLabelPosition=bottom;verticalAlign=top;align=center;outlineConnect=0;" vertex="1" parent="1">
          <mxGeometry x="160" y="610" width="20" height="24.5" as="geometry" />
        </mxCell>
        <mxCell id="XM2iZvEffHL1gF4DJcAG-7" value="" style="shape=mxgraph.cisco.computers_and_peripherals.pc;sketch=0;html=1;pointerEvents=1;dashed=0;fillColor=#036897;strokeColor=#ffffff;strokeWidth=2;verticalLabelPosition=bottom;verticalAlign=top;align=center;outlineConnect=0;" vertex="1" parent="1">
          <mxGeometry x="-50" y="300" width="30" height="30" as="geometry" />
        </mxCell>
        <mxCell id="XM2iZvEffHL1gF4DJcAG-8" value="" style="shape=mxgraph.cisco.computers_and_peripherals.pc;sketch=0;html=1;pointerEvents=1;dashed=0;fillColor=#036897;strokeColor=#ffffff;strokeWidth=2;verticalLabelPosition=bottom;verticalAlign=top;align=center;outlineConnect=0;" vertex="1" parent="1">
          <mxGeometry x="-50" y="300" width="30" height="30" as="geometry" />
        </mxCell>
        <mxCell id="XM2iZvEffHL1gF4DJcAG-9" value="" style="shape=mxgraph.cisco.computers_and_peripherals.pc;sketch=0;html=1;pointerEvents=1;dashed=0;fillColor=#036897;strokeColor=#ffffff;strokeWidth=2;verticalLabelPosition=bottom;verticalAlign=top;align=center;outlineConnect=0;" vertex="1" parent="1">
          <mxGeometry x="-40" y="450" width="30" height="30" as="geometry" />
        </mxCell>
        <mxCell id="XM2iZvEffHL1gF4DJcAG-15" value="" style="shape=mxgraph.cisco.computers_and_peripherals.pc;sketch=0;html=1;pointerEvents=1;dashed=0;fillColor=#036897;strokeColor=#ffffff;strokeWidth=2;verticalLabelPosition=bottom;verticalAlign=top;align=center;outlineConnect=0;direction=east;" vertex="1" parent="1">
          <mxGeometry x="700" y="370" width="30" height="30" as="geometry" />
        </mxCell>
        <mxCell id="XM2iZvEffHL1gF4DJcAG-16" value="" style="shape=mxgraph.cisco.computers_and_peripherals.pc;sketch=0;html=1;pointerEvents=1;dashed=0;fillColor=#036897;strokeColor=#ffffff;strokeWidth=2;verticalLabelPosition=bottom;verticalAlign=top;align=center;outlineConnect=0;" vertex="1" parent="1">
          <mxGeometry x="580" y="583" width="20" height="27" as="geometry" />
        </mxCell>
        <mxCell id="XM2iZvEffHL1gF4DJcAG-17" value="" style="shape=mxgraph.cisco.computers_and_peripherals.pc;sketch=0;html=1;pointerEvents=1;dashed=0;fillColor=#036897;strokeColor=#ffffff;strokeWidth=2;verticalLabelPosition=bottom;verticalAlign=top;align=center;outlineConnect=0;" vertex="1" parent="1">
          <mxGeometry x="520" y="580" width="20" height="27" as="geometry" />
        </mxCell>
        <mxCell id="XM2iZvEffHL1gF4DJcAG-18" value="" style="shape=mxgraph.cisco.computers_and_peripherals.pc;sketch=0;html=1;pointerEvents=1;dashed=0;fillColor=#036897;strokeColor=#ffffff;strokeWidth=2;verticalLabelPosition=bottom;verticalAlign=top;align=center;outlineConnect=0;" vertex="1" parent="1">
          <mxGeometry x="520" y="612" width="20" height="27" as="geometry" />
        </mxCell>
        <mxCell id="XM2iZvEffHL1gF4DJcAG-19" value="" style="shape=mxgraph.cisco.computers_and_peripherals.pc;sketch=0;html=1;pointerEvents=1;dashed=0;fillColor=#036897;strokeColor=#ffffff;strokeWidth=2;verticalLabelPosition=bottom;verticalAlign=top;align=center;outlineConnect=0;" vertex="1" parent="1">
          <mxGeometry x="580" y="612" width="20" height="27" as="geometry" />
        </mxCell>
        <mxCell id="XM2iZvEffHL1gF4DJcAG-20" value="" style="shape=mxgraph.cisco.computers_and_peripherals.pc;sketch=0;html=1;pointerEvents=1;dashed=0;fillColor=#036897;strokeColor=#ffffff;strokeWidth=2;verticalLabelPosition=bottom;verticalAlign=top;align=center;outlineConnect=0;" vertex="1" parent="1">
          <mxGeometry x="304" y="387" width="20" height="27" as="geometry" />
        </mxCell>
        <mxCell id="XM2iZvEffHL1gF4DJcAG-21" value="" style="shape=mxgraph.cisco.computers_and_peripherals.pc;sketch=0;html=1;pointerEvents=1;dashed=0;fillColor=#036897;strokeColor=#ffffff;strokeWidth=2;verticalLabelPosition=bottom;verticalAlign=top;align=center;outlineConnect=0;" vertex="1" parent="1">
          <mxGeometry x="380" y="400" width="20" height="27" as="geometry" />
        </mxCell>
        <mxCell id="XM2iZvEffHL1gF4DJcAG-49" style="edgeStyle=orthogonalEdgeStyle;rounded=0;orthogonalLoop=1;jettySize=auto;html=1;exitX=0.28;exitY=0.5;exitDx=0;exitDy=0;exitPerimeter=0;" edge="1" parent="1" source="XM2iZvEffHL1gF4DJcAG-22" target="XM2iZvEffHL1gF4DJcAG-23">
          <mxGeometry relative="1" as="geometry" />
        </mxCell>
        <mxCell id="XM2iZvEffHL1gF4DJcAG-22" value="" style="shape=mxgraph.cisco.computers_and_peripherals.laptop;sketch=0;html=1;pointerEvents=1;dashed=0;fillColor=#036897;strokeColor=#ffffff;strokeWidth=2;verticalLabelPosition=bottom;verticalAlign=top;align=center;outlineConnect=0;" vertex="1" parent="1">
          <mxGeometry x="240" y="560" width="20" height="30" as="geometry" />
        </mxCell>
        <mxCell id="XM2iZvEffHL1gF4DJcAG-50" value="" style="edgeStyle=orthogonalEdgeStyle;rounded=0;orthogonalLoop=1;jettySize=auto;html=1;" edge="1" parent="1" target="XM2iZvEffHL1gF4DJcAG-47">
          <mxGeometry relative="1" as="geometry">
            <mxPoint x="310.0000000000002" y="595.5" as="sourcePoint" />
            <mxPoint x="240.00000000000023" y="612" as="targetPoint" />
            <Array as="points">
              <mxPoint x="275" y="596" />
              <mxPoint x="275" y="610" />
            </Array>
          </mxGeometry>
        </mxCell>
        <mxCell id="XM2iZvEffHL1gF4DJcAG-51" value="" style="edgeStyle=orthogonalEdgeStyle;rounded=0;orthogonalLoop=1;jettySize=auto;html=1;" edge="1" parent="1" source="XM2iZvEffHL1gF4DJcAG-23" target="XM2iZvEffHL1gF4DJcAG-47">
          <mxGeometry relative="1" as="geometry" />
        </mxCell>
        <mxCell id="XM2iZvEffHL1gF4DJcAG-23" value="" style="shape=mxgraph.cisco.computers_and_peripherals.laptop;sketch=0;html=1;pointerEvents=1;dashed=0;fillColor=#036897;strokeColor=#ffffff;strokeWidth=2;verticalLabelPosition=bottom;verticalAlign=top;align=center;outlineConnect=0;" vertex="1" parent="1">
          <mxGeometry x="310" y="578.5" width="20" height="30" as="geometry" />
        </mxCell>
        <mxCell id="XM2iZvEffHL1gF4DJcAG-24" value="" style="shape=mxgraph.cisco.computers_and_peripherals.laptop;sketch=0;html=1;pointerEvents=1;dashed=0;fillColor=#036897;strokeColor=#ffffff;strokeWidth=2;verticalLabelPosition=bottom;verticalAlign=top;align=center;outlineConnect=0;" vertex="1" parent="1">
          <mxGeometry x="240" y="620" width="20" height="30" as="geometry" />
        </mxCell>
        <mxCell id="XM2iZvEffHL1gF4DJcAG-25" value="" style="shape=mxgraph.cisco.computers_and_peripherals.laptop;sketch=0;html=1;pointerEvents=1;dashed=0;fillColor=#036897;strokeColor=#ffffff;strokeWidth=2;verticalLabelPosition=bottom;verticalAlign=top;align=center;outlineConnect=0;" vertex="1" parent="1">
          <mxGeometry x="300" y="629" width="20" height="30" as="geometry" />
        </mxCell>
        <mxCell id="XM2iZvEffHL1gF4DJcAG-44" value="" style="edgeStyle=orthogonalEdgeStyle;rounded=0;orthogonalLoop=1;jettySize=auto;html=1;entryX=0.445;entryY=0.283;entryDx=0;entryDy=0;entryPerimeter=0;" edge="1" parent="1" source="XM2iZvEffHL1gF4DJcAG-26" target="XM2iZvEffHL1gF4DJcAG-38">
          <mxGeometry relative="1" as="geometry" />
        </mxCell>
        <mxCell id="XM2iZvEffHL1gF4DJcAG-26" value="" style="shape=mxgraph.cisco.computers_and_peripherals.pc;sketch=0;html=1;pointerEvents=1;dashed=0;fillColor=#036897;strokeColor=#ffffff;strokeWidth=2;verticalLabelPosition=bottom;verticalAlign=top;align=center;outlineConnect=0;" vertex="1" parent="1">
          <mxGeometry x="404" y="558" width="20" height="27" as="geometry" />
        </mxCell>
        <mxCell id="XM2iZvEffHL1gF4DJcAG-27" value="" style="shape=mxgraph.cisco.computers_and_peripherals.pc;sketch=0;html=1;pointerEvents=1;dashed=0;fillColor=#036897;strokeColor=#ffffff;strokeWidth=2;verticalLabelPosition=bottom;verticalAlign=top;align=center;outlineConnect=0;" vertex="1" parent="1">
          <mxGeometry x="384" y="620" width="20" height="27" as="geometry" />
        </mxCell>
        <mxCell id="XM2iZvEffHL1gF4DJcAG-28" value="" style="shape=mxgraph.cisco.computers_and_peripherals.pc;sketch=0;html=1;pointerEvents=1;dashed=0;fillColor=#036897;strokeColor=#ffffff;strokeWidth=2;verticalLabelPosition=bottom;verticalAlign=top;align=center;outlineConnect=0;" vertex="1" parent="1">
          <mxGeometry x="450" y="620" width="20" height="27" as="geometry" />
        </mxCell>
        <mxCell id="XM2iZvEffHL1gF4DJcAG-29" value="" style="shape=mxgraph.cisco.modems_and_phones.fax;sketch=0;html=1;pointerEvents=1;dashed=0;fillColor=#036897;strokeColor=#ffffff;strokeWidth=2;verticalLabelPosition=bottom;verticalAlign=top;align=center;outlineConnect=0;" vertex="1" parent="1">
          <mxGeometry x="324" y="390" width="26" height="26.42" as="geometry" />
        </mxCell>
        <mxCell id="XM2iZvEffHL1gF4DJcAG-30" value="" style="shape=mxgraph.cisco.modems_and_phones.hootphone;sketch=0;html=1;pointerEvents=1;dashed=0;fillColor=#036897;strokeColor=#ffffff;strokeWidth=2;verticalLabelPosition=bottom;verticalAlign=top;align=center;outlineConnect=0;" vertex="1" parent="1">
          <mxGeometry x="360" y="390" width="20" height="24" as="geometry" />
        </mxCell>
        <mxCell id="XM2iZvEffHL1gF4DJcAG-34" value="" style="edgeStyle=orthogonalEdgeStyle;rounded=0;orthogonalLoop=1;jettySize=auto;html=1;" edge="1" parent="1">
          <mxGeometry relative="1" as="geometry">
            <mxPoint x="378.5" y="303" as="sourcePoint" />
            <mxPoint x="378.5" y="219.5" as="targetPoint" />
          </mxGeometry>
        </mxCell>
        <mxCell id="XM2iZvEffHL1gF4DJcAG-37" value="" style="image;html=1;image=img/lib/clip_art/networking/Wireless_Router_128x128.png" vertex="1" parent="1">
          <mxGeometry x="290" y="390" width="30" height="60" as="geometry" />
        </mxCell>
        <mxCell id="XM2iZvEffHL1gF4DJcAG-39" value="" style="edgeStyle=orthogonalEdgeStyle;rounded=0;orthogonalLoop=1;jettySize=auto;html=1;exitX=0.669;exitY=0.617;exitDx=0;exitDy=0;exitPerimeter=0;" edge="1" parent="1" source="XM2iZvEffHL1gF4DJcAG-38" target="XM2iZvEffHL1gF4DJcAG-26">
          <mxGeometry relative="1" as="geometry" />
        </mxCell>
        <mxCell id="XM2iZvEffHL1gF4DJcAG-40" value="" style="edgeStyle=orthogonalEdgeStyle;rounded=0;orthogonalLoop=1;jettySize=auto;html=1;" edge="1" parent="1" source="XM2iZvEffHL1gF4DJcAG-38" target="XM2iZvEffHL1gF4DJcAG-37">
          <mxGeometry relative="1" as="geometry" />
        </mxCell>
        <mxCell id="XM2iZvEffHL1gF4DJcAG-41" value="" style="edgeStyle=orthogonalEdgeStyle;rounded=0;orthogonalLoop=1;jettySize=auto;html=1;" edge="1" parent="1" source="XM2iZvEffHL1gF4DJcAG-38" target="XM2iZvEffHL1gF4DJcAG-37">
          <mxGeometry relative="1" as="geometry" />
        </mxCell>
        <mxCell id="XM2iZvEffHL1gF4DJcAG-43" value="" style="edgeStyle=orthogonalEdgeStyle;rounded=0;orthogonalLoop=1;jettySize=auto;html=1;" edge="1" parent="1" source="XM2iZvEffHL1gF4DJcAG-38">
          <mxGeometry relative="1" as="geometry">
            <mxPoint x="310" y="530" as="targetPoint" />
            <Array as="points">
              <mxPoint x="300" y="533" />
              <mxPoint x="300" y="450" />
              <mxPoint x="310" y="450" />
            </Array>
          </mxGeometry>
        </mxCell>
        <mxCell id="XM2iZvEffHL1gF4DJcAG-46" value="" style="edgeStyle=orthogonalEdgeStyle;rounded=0;orthogonalLoop=1;jettySize=auto;html=1;" edge="1" parent="1" source="XM2iZvEffHL1gF4DJcAG-38" target="XM2iZvEffHL1gF4DJcAG-37">
          <mxGeometry relative="1" as="geometry" />
        </mxCell>
        <mxCell id="XM2iZvEffHL1gF4DJcAG-38" value="" style="image;html=1;image=img/lib/clip_art/networking/Switch_128x128.png;direction=east;" vertex="1" parent="1">
          <mxGeometry x="330.17" y="512" width="44.56" height="60" as="geometry" />
        </mxCell>
        <mxCell id="XM2iZvEffHL1gF4DJcAG-47" value="" style="shape=mxgraph.cisco.computers_and_peripherals.printer;html=1;pointerEvents=1;dashed=0;fillColor=#036897;strokeColor=#ffffff;strokeWidth=2;verticalLabelPosition=bottom;verticalAlign=top;align=center;outlineConnect=0;" vertex="1" parent="1">
          <mxGeometry x="210" y="600" width="30" height="20" as="geometry" />
        </mxCell>
        <mxCell id="XM2iZvEffHL1gF4DJcAG-48" value="" style="shape=mxgraph.cisco.computers_and_peripherals.printer;html=1;pointerEvents=1;dashed=0;fillColor=#036897;strokeColor=#ffffff;strokeWidth=2;verticalLabelPosition=bottom;verticalAlign=top;align=center;outlineConnect=0;" vertex="1" parent="1">
          <mxGeometry x="450" y="540" width="30" height="20" as="geometry" />
        </mxCell>
        <mxCell id="XM2iZvEffHL1gF4DJcAG-52" value="" style="strokeColor=#666666;html=1;labelPosition=right;align=left;spacingLeft=15;shadow=0;dashed=0;outlineConnect=0;shape=mxgraph.rackGeneral.horCableDuct;direction=south;" vertex="1" parent="1">
          <mxGeometry x="345" y="260" width="15" height="350" as="geometry" />
        </mxCell>
        <mxCell id="XM2iZvEffHL1gF4DJcAG-53" value="" style="strokeColor=#666666;html=1;labelPosition=right;align=left;spacingLeft=15;shadow=0;dashed=0;outlineConnect=0;shape=mxgraph.rackGeneral.horCableDuct;" vertex="1" parent="1">
          <mxGeometry x="97.45" y="600" width="510" height="15" as="geometry" />
        </mxCell>
        <mxCell id="XM2iZvEffHL1gF4DJcAG-54" value="" style="strokeColor=#666666;html=1;labelPosition=right;align=left;spacingLeft=15;shadow=0;dashed=0;outlineConnect=0;shape=mxgraph.rackGeneral.horCableDuct;" vertex="1" parent="1">
          <mxGeometry x="-20" y="260" width="760" height="15" as="geometry" />
        </mxCell>
        <mxCell id="XM2iZvEffHL1gF4DJcAG-57" value="" style="shape=wire;edgeStyle=orthogonalEdgeStyle;orthogonalLoop=1;jettySize=auto;html=1;sourcePerimeterSpacing=0;targetPerimeterSpacing=0;endArrow=none;curved=0;rounded=0;strokeColor=#009900;dashed=1;fillColor=#ffff00;dashPattern=12 12;fixDash=1;startSize=6;endSize=6;" edge="1" parent="1">
          <mxGeometry width="100" relative="1" as="geometry">
            <mxPoint x="220" y="620" as="sourcePoint" />
            <mxPoint x="320" y="620" as="targetPoint" />
          </mxGeometry>
        </mxCell>
        <mxCell id="XM2iZvEffHL1gF4DJcAG-59" value="" style="strokeColor=#666666;html=1;labelPosition=right;align=left;spacingLeft=15;shadow=0;dashed=0;outlineConnect=0;shape=mxgraph.rackGeneral.horCableDuct;direction=south;" vertex="1" parent="1">
          <mxGeometry x="-20" y="275" width="15" height="183" as="geometry" />
        </mxCell>
        <mxCell id="XM2iZvEffHL1gF4DJcAG-60" value="" style="strokeColor=#666666;html=1;labelPosition=right;align=left;spacingLeft=15;shadow=0;dashed=0;outlineConnect=0;shape=mxgraph.rackGeneral.horCableDuct;direction=south;" vertex="1" parent="1">
          <mxGeometry x="727.5" y="256.42" width="15" height="123.58" as="geometry" />
        </mxCell>
        <mxCell id="XM2iZvEffHL1gF4DJcAG-10" value="" style="shape=mxgraph.cisco.computers_and_peripherals.pc;sketch=0;html=1;pointerEvents=1;dashed=0;fillColor=#036897;strokeColor=#ffffff;strokeWidth=2;verticalLabelPosition=bottom;verticalAlign=top;align=center;outlineConnect=0;" vertex="1" parent="1">
          <mxGeometry x="720" y="290" width="30" height="30" as="geometry" />
        </mxCell>
      </root>
    </mxGraphModel>
  </diagram>
</mxfile>
